STARTFONT 2.3
FONT -FontForge-Roboto-Book-I-Normal--16-160-72-72-P-88-ISO10646-1
SIZE 16 72 72  2
FONTBOUNDINGBOX 31 22 -12 -4
COMMENT "Generated by fontforge, http://fontforge.sourceforge.net"
COMMENT "Copyright 2011 Google Inc. All Rights Reserved."
STARTPROPERTIES 43
FOUNDRY "FontForge"
FAMILY_NAME "Roboto"
WEIGHT_NAME "Book"
SLANT "I"
SETWIDTH_NAME "Normal"
ADD_STYLE_NAME ""
PIXEL_SIZE 16
POINT_SIZE 160
RESOLUTION_X 72
RESOLUTION_Y 72
SPACING "P"
AVERAGE_WIDTH 88
CHARSET_REGISTRY "ISO10646"
CHARSET_ENCODING "1"
FONTNAME_REGISTRY ""
CHARSET_COLLECTIONS "ISO8859-2 ISO8859-5 ISO8859-7 ISO8859-9 ISO8859-4 ISO10646-1"
BITS_PER_PIXEL 2
FONT_NAME "Roboto-Italic"
FACE_NAME "Roboto Italic"
COPYRIGHT "Copyright 2011 Google Inc. All Rights Reserved."
FONT_VERSION "2.137; 2017"
FONT_ASCENT 12
FONT_DESCENT 4
UNDERLINE_POSITION -2
UNDERLINE_THICKNESS 1
X_HEIGHT 8
CAP_HEIGHT 11
DEFAULT_CHAR 1
RAW_ASCENT 750
RAW_DESCENT 250
ITALIC_ANGLE 4992
NORM_SPACE 4
RELATIVE_WEIGHT 40
RELATIVE_SETWIDTH 50
SUPERSCRIPT_X 0
SUPERSCRIPT_Y 7
SUPERSCRIPT_SIZE 10
SUBSCRIPT_X 0
SUBSCRIPT_Y 2
SUBSCRIPT_SIZE 10
FIGURE_WIDTH 9
AVG_LOWERCASE_WIDTH 86
AVG_UPPERCASE_WIDTH 103
ENDPROPERTIES
CHARS 1296
STARTCHAR glyph1.dup1
ENCODING 0
SWIDTH 0 0
DWIDTH 0 0
BBX 1 1 0 0
BITMAP
00
ENDCHAR
STARTCHAR uni0002
ENCODING 2
SWIDTH 0 0
DWIDTH 0 0
BBX 1 1 0 0
BITMAP
00
ENDCHAR
STARTCHAR uni000D
ENCODING 13
SWIDTH 245 0
DWIDTH 4 0
BBX 1 1 0 0
BITMAP
00
ENDCHAR
STARTCHAR space
ENCODING 32
SWIDTH 245 0
DWIDTH 4 0
BBX 1 1 0 0
BITMAP
00
ENDCHAR
STARTCHAR exclam
ENCODING 33
SWIDTH 254 0
DWIDTH 4 0
BBX 4 12 0 0
BITMAP
0A
0A
0D
0D
1C
1C
28
28
24
00
20
70
ENDCHAR
STARTCHAR quotedbl
ENCODING 34
SWIDTH 314 0
DWIDTH 5 0
BBX 5 4 1 8
BITMAP
3240
3300
6200
6600
ENDCHAR
STARTCHAR numbersign
ENCODING 35
SWIDTH 602 0
DWIDTH 10 0
BBX 10 12 0 0
BITMAP
002490
0070C0
00A280
0FFFF0
018700
024A00
030D00
7FFF80
092800
0C3400
1C7000
286000
ENDCHAR
STARTCHAR dollar
ENCODING 36
SWIDTH 549 0
DWIDTH 9 0
BBX 9 16 0 -2
BITMAP
001400
003400
01FD00
075B00
0E0740
0D0240
0E0000
07D000
01B800
001D00
100A00
740E00
396C00
1BE000
034000
020000
ENDCHAR
STARTCHAR percent
ENCODING 37
SWIDTH 715 0
DWIDTH 11 0
BBX 10 12 1 0
BITMAP
1F4000
71C000
60C140
618700
2E4C00
003400
009000
029B80
0634D0
1C3090
2431C0
001F40
ENDCHAR
STARTCHAR ampersand
ENCODING 38
SWIDTH 607 0
DWIDTH 10 0
BBX 9 12 0 0
BITMAP
01F800
079E00
0B0A00
0A1D00
07B800
03D000
1ED080
387180
703B40
701F00
396F00
1BE780
ENDCHAR
STARTCHAR quotesingle
ENCODING 39
SWIDTH 173 0
DWIDTH 3 0
BBX 2 4 1 8
BITMAP
30
60
60
90
ENDCHAR
STARTCHAR parenleft
ENCODING 40
SWIDTH 336 0
DWIDTH 5 0
BBX 5 17 1 -4
BITMAP
0080
0280
0A00
1C00
2800
7400
B000
A000
D000
D000
D000
D000
D000
A000
7000
2400
0800
ENDCHAR
STARTCHAR parenright
ENCODING 41
SWIDTH 342 0
DWIDTH 5 0
BBX 6 17 -1 -4
BITMAP
0500
0300
0280
01C0
00D0
00D0
00D0
00D0
00D0
01C0
02C0
0380
0700
0A00
1C00
7400
9000
ENDCHAR
STARTCHAR asterisk
ENCODING 42
SWIDTH 422 0
DWIDTH 7 0
BBX 6 6 1 6
BITMAP
0300
0600
EBB0
1F40
3700
A280
ENDCHAR
STARTCHAR plus
ENCODING 43
SWIDTH 554 0
DWIDTH 9 0
BBX 9 9 0 1
BITMAP
005000
00A000
00E000
00D000
7FFF40
16D500
02C000
028000
038000
ENDCHAR
STARTCHAR comma
ENCODING 44
SWIDTH 195 0
DWIDTH 3 0
BBX 3 4 -1 -2
BITMAP
18
28
74
90
ENDCHAR
STARTCHAR hyphen
ENCODING 45
SWIDTH 272 0
DWIDTH 4 0
BBX 4 2 0 3
BITMAP
BF
15
ENDCHAR
STARTCHAR period
ENCODING 46
SWIDTH 260 0
DWIDTH 4 0
BBX 2 2 0 0
BITMAP
60
70
ENDCHAR
STARTCHAR slash
ENCODING 47
SWIDTH 404 0
DWIDTH 6 0
BBX 8 13 -1 -1
BITMAP
0007
000D
001C
0034
0060
00D0
0280
0340
0A00
0D00
2800
3400
A000
ENDCHAR
STARTCHAR zero
ENCODING 48
SWIDTH 549 0
DWIDTH 9 0
BBX 8 12 1 0
BITMAP
07E0
2D68
341C
700D
A00D
E01C
D01C
D028
D028
D074
B5E0
2F80
ENDCHAR
STARTCHAR one
ENCODING 49
SWIDTH 549 0
DWIDTH 9 0
BBX 5 12 2 0
BITMAP
0280
2F40
E740
0700
0700
0A00
0A00
0D00
0D00
1C00
1C00
2800
ENDCHAR
STARTCHAR two
ENCODING 50
SWIDTH 549 0
DWIDTH 9 0
BBX 8 12 0 0
BITMAP
02F8
0E5B
1C07
1407
000A
001D
0074
01D0
0740
1D00
7954
BFFE
ENDCHAR
STARTCHAR three
ENCODING 51
SWIDTH 549 0
DWIDTH 9 0
BBX 8 12 0 0
BITMAP
02F8
0A5A
1C07
0007
001D
02F4
016C
000D
000D
701D
3978
1BE0
ENDCHAR
STARTCHAR four
ENCODING 52
SWIDTH 549 0
DWIDTH 9 0
BBX 8 12 0 0
BITMAP
000F
002E
007E
01DD
038D
0A1C
1C1C
7428
BFFF
5579
0034
0070
ENDCHAR
STARTCHAR five
ENCODING 53
SWIDTH 549 0
DWIDTH 9 0
BBX 8 12 1 0
BITMAP
0FFE
1D55
1C00
2800
3BE0
39B4
0028
001C
4028
D038
B5B0
2F80
ENDCHAR
STARTCHAR six
ENCODING 54
SWIDTH 549 0
DWIDTH 9 0
BBX 7 12 1 0
BITMAP
01B4
0B90
1D00
3400
7BE0
B974
E028
D02C
D028
E034
75A0
2F80
ENDCHAR
STARTCHAR seven
ENCODING 55
SWIDTH 549 0
DWIDTH 9 0
BBX 8 12 1 0
BITMAP
7FFF
155E
001C
0038
00B0
00D0
0280
0740
0A00
1D00
3800
7000
ENDCHAR
STARTCHAR eight
ENCODING 56
SWIDTH 549 0
DWIDTH 9 0
BBX 9 12 0 0
BITMAP
01F900
0B5B00
0D0340
0D0740
0E1A00
07F800
1D6C00
340E00
700A00
700D00
397800
0BE000
ENDCHAR
STARTCHAR nine
ENCODING 57
SWIDTH 549 0
DWIDTH 9 0
BBX 7 12 1 0
BITMAP
0BE0
2D78
701C
A01C
A01C
A02C
79B8
2FA8
0070
00E0
1B80
7900
ENDCHAR
STARTCHAR colon
ENCODING 58
SWIDTH 239 0
DWIDTH 4 0
BBX 3 9 0 0
BITMAP
1C
18
00
00
00
00
00
60
60
ENDCHAR
STARTCHAR semicolon
ENCODING 59
SWIDTH 209 0
DWIDTH 3 0
BBX 4 11 -1 -2
BITMAP
07
06
00
00
00
00
00
18
28
34
A0
ENDCHAR
STARTCHAR less
ENCODING 60
SWIDTH 498 0
DWIDTH 8 0
BBX 8 7 0 2
BITMAP
0009
01BC
1F90
7800
2E40
02F4
0024
ENDCHAR
STARTCHAR equal
ENCODING 61
SWIDTH 537 0
DWIDTH 9 0
BBX 7 5 1 2
BITMAP
7FFC
1554
0000
FFF4
5550
ENDCHAR
STARTCHAR greater
ENCODING 62
SWIDTH 511 0
DWIDTH 8 0
BBX 8 7 0 2
BITMAP
1800
1F80
01B8
002E
06F4
7E40
6000
ENDCHAR
STARTCHAR question
ENCODING 63
SWIDTH 462 0
DWIDTH 7 0
BBX 7 12 1 0
BITMAP
1BD0
79B0
6034
0074
00B0
02D0
0740
0D00
1C00
0000
1400
3400
ENDCHAR
STARTCHAR at
ENCODING 64
SWIDTH 875 0
DWIDTH 14 0
BBX 14 15 0 -4
BITMAP
001BF800
00A41B00
02800280
0A0BD0C0
1C286080
2870A090
309090C0
70D0C0C0
60C1C180
60D7C700
60B8B900
30000000
24000000
0E010000
02FE0000
ENDCHAR
STARTCHAR A
ENCODING 65
SWIDTH 637 0
DWIDTH 10 0
BBX 10 12 -1 0
BITMAP
000B00
001F00
002B40
007680
00A280
01D2C0
0281C0
0741D0
0BFFD0
1D55E0
3800A0
740070
ENDCHAR
STARTCHAR B
ENCODING 66
SWIDTH 608 0
DWIDTH 10 0
BBX 9 12 0 0
BITMAP
0BFE00
0A5780
0D01C0
0D02C0
1C0780
1FFE00
2D5B00
280340
340340
340740
755E00
7FF400
ENDCHAR
STARTCHAR C
ENCODING 67
SWIDTH 636 0
DWIDTH 10 0
BBX 9 12 1 0
BITMAP
02F900
0E5B40
280280
740280
B00000
E00000
D00000
D00000
D00600
A00E00
796C00
1BE000
ENDCHAR
STARTCHAR D
ENCODING 68
SWIDTH 641 0
DWIDTH 10 0
BBX 10 12 0 0
BITMAP
0BF900
0A5B80
0D01C0
0D00D0
1C00E0
1C00D0
2C00D0
2801C0
380280
340740
756D00
7FE400
ENDCHAR
STARTCHAR E
ENCODING 69
SWIDTH 556 0
DWIDTH 9 0
BBX 10 12 0 0
BITMAP
0BFFD0
0A5540
0D0000
0D0000
1C0000
1FFE00
2D5400
280000
340000
340000
755400
7FFE00
ENDCHAR
STARTCHAR F
ENCODING 70
SWIDTH 541 0
DWIDTH 9 0
BBX 10 12 0 0
BITMAP
0BFFD0
0A5540
0D0000
0D0000
1C0000
1FFE00
295400
280000
340000
340000
700000
700000
ENDCHAR
STARTCHAR G
ENCODING 71
SWIDTH 665 0
DWIDTH 11 0
BBX 9 12 1 0
BITMAP
02F900
0E5B40
280280
740180
B00000
A00000
E07F80
D01740
E00740
B00700
396E00
1BE400
ENDCHAR
STARTCHAR H
ENCODING 72
SWIDTH 696 0
DWIDTH 11 0
BBX 11 12 0 0
BITMAP
0B002C
0A0028
0E0038
0D0034
1D0074
1C0070
2FFFF0
2955A0
3800E0
3400D0
7401D0
7001C0
ENDCHAR
STARTCHAR I
ENCODING 73
SWIDTH 268 0
DWIDTH 4 0
BBX 4 12 0 0
BITMAP
0B
0A
0E
0D
1D
1C
2C
28
38
34
74
70
ENDCHAR
STARTCHAR J
ENCODING 74
SWIDTH 540 0
DWIDTH 9 0
BBX 9 12 0 0
BITMAP
000340
000340
000740
000700
000B00
000A00
000E00
000D00
501D00
A02C00
75B400
1F9000
ENDCHAR
STARTCHAR K
ENCODING 75
SWIDTH 612 0
DWIDTH 10 0
BBX 11 12 0 0
BITMAP
0A00B4
0A02D0
0E0B40
0D2D00
1DB400
1EE000
2EB000
283400
342C00
340E00
740B00
700380
ENDCHAR
STARTCHAR L
ENCODING 76
SWIDTH 526 0
DWIDTH 8 0
BBX 8 12 0 0
BITMAP
0B00
0A00
0E00
0D00
1D00
1C00
2C00
2800
3800
3400
7554
7FFD
ENDCHAR
STARTCHAR M
ENCODING 77
SWIDTH 851 0
DWIDTH 14 0
BBX 14 12 0 0
BITMAP
0B4002D0
0B8007D0
0F800BC0
0EC01EC0
1DD03A80
1CD07380
28A0E340
28A2C740
38734700
343B0B00
743D0A00
70280E00
ENDCHAR
STARTCHAR N
ENCODING 78
SWIDTH 696 0
DWIDTH 11 0
BBX 11 12 0 0
BITMAP
0B002C
0B8028
0FC038
0ED034
1DA074
1C7470
2C38B0
281CA0
380EE0
340BD0
7403D0
7002C0
ENDCHAR
STARTCHAR O
ENCODING 79
SWIDTH 671 0
DWIDTH 11 0
BBX 9 12 1 0
BITMAP
02F900
0F5B40
280280
7401C0
B001C0
E001C0
D002C0
D00380
E00740
B00A00
796C00
1BE000
ENDCHAR
STARTCHAR P
ENCODING 80
SWIDTH 616 0
DWIDTH 10 0
BBX 10 12 0 0
BITMAP
0BFE40
0A56D0
0D00A0
0D00A0
1C00E0
1C06C0
2FFE40
295000
340000
340000
740000
700000
ENDCHAR
STARTCHAR Q
ENCODING 81
SWIDTH 671 0
DWIDTH 11 0
BBX 9 14 1 -2
BITMAP
02F900
0E5B40
280380
7402C0
A001C0
E002C0
D00280
D00380
D00740
A00A00
796C00
1BF400
002D00
000500
ENDCHAR
STARTCHAR R
ENCODING 82
SWIDTH 602 0
DWIDTH 10 0
BBX 10 12 0 0
BITMAP
0BFE00
0A57C0
0D01D0
0D00D0
1D01C0
1C0780
2FFD00
296C00
381D00
340E00
740B00
700740
ENDCHAR
STARTCHAR S
ENCODING 83
SWIDTH 580 0
DWIDTH 9 0
BBX 9 12 0 0
BITMAP
01FE00
0B5780
1D01C0
1C0040
0E0000
07E000
00BD00
000B00
500740
B00700
396E00
0BE400
ENDCHAR
STARTCHAR T
ENCODING 84
SWIDTH 583 0
DWIDTH 9 0
BBX 9 12 1 0
BITMAP
BFFFC0
15D540
01C000
02C000
028000
038000
034000
074000
070000
0B0000
0A0000
0A0000
ENDCHAR
STARTCHAR U
ENCODING 85
SWIDTH 633 0
DWIDTH 10 0
BBX 10 12 1 0
BITMAP
3801D0
3401C0
3402C0
700280
700380
A00340
A00740
D00700
D00A00
E00D00
B97800
1FE000
ENDCHAR
STARTCHAR V
ENCODING 86
SWIDTH 622 0
DWIDTH 10 0
BBX 10 12 1 0
BITMAP
B000E0
7002C0
740380
340B00
380E00
281C00
1C3800
1C7000
0DE000
0EC000
0B8000
0B0000
ENDCHAR
STARTCHAR W
ENCODING 87
SWIDTH 865 0
DWIDTH 14 0
BBX 14 12 1 0
BITMAP
700A01D0
701E02C0
702F0380
743B0740
34730B00
34D34D00
35C35C00
36826800
3B42B400
2E02F000
2D01E000
2C01D000
ENDCHAR
STARTCHAR X
ENCODING 88
SWIDTH 612 0
DWIDTH 10 0
BBX 10 12 0 0
BITMAP
1D00B0
0B02D0
074780
038E00
01EC00
00F400
01F000
03B800
0B2C00
1D1D00
780B00
E00740
ENDCHAR
STARTCHAR Y
ENCODING 89
SWIDTH 587 0
DWIDTH 9 0
BBX 9 12 1 0
BITMAP
B002C0
740740
380E00
1C2C00
0D7400
0AE000
07C000
074000
070000
070000
0A0000
0A0000
ENDCHAR
STARTCHAR Z
ENCODING 90
SWIDTH 585 0
DWIDTH 9 0
BBX 10 12 0 0
BITMAP
1FFFE0
0556D0
000740
001E00
003800
00B000
02D000
074000
1E0000
380000
B55500
FFFF00
ENDCHAR
STARTCHAR bracketleft
ENCODING 91
SWIDTH 262 0
DWIDTH 4 0
BBX 6 15 0 -2
BITMAP
0BD0
0E40
0D00
0D00
1C00
1C00
2800
2800
3400
3400
7000
7000
A000
A400
FC00
ENDCHAR
STARTCHAR backslash
ENCODING 92
SWIDTH 402 0
DWIDTH 6 0
BBX 4 13 1 -1
BITMAP
70
70
34
34
28
18
1C
0D
0D
0A
0A
07
03
ENDCHAR
STARTCHAR bracketright
ENCODING 93
SWIDTH 262 0
DWIDTH 4 0
BBX 6 15 -1 -2
BITMAP
0BD0
02C0
02C0
0280
0380
0340
0740
0700
0B00
0A00
0E00
0D00
1D00
1C00
FC00
ENDCHAR
STARTCHAR asciicircum
ENCODING 94
SWIDTH 410 0
DWIDTH 7 0
BBX 5 6 1 6
BITMAP
0700
0F00
1A40
3680
A180
D1C0
ENDCHAR
STARTCHAR underscore
ENCODING 95
SWIDTH 442 0
DWIDTH 7 0
BBX 7 2 -1 -2
BITMAP
FFFC
5554
ENDCHAR
STARTCHAR grave
ENCODING 96
SWIDTH 304 0
DWIDTH 5 0
BBX 2 2 2 10
BITMAP
E0
70
ENDCHAR
STARTCHAR a
ENCODING 97
SWIDTH 532 0
DWIDTH 9 0
BBX 8 9 0 0
BITMAP
06F4
1E6D
280D
000D
1BFD
391C
702C
75B8
2FAC
ENDCHAR
STARTCHAR b
ENCODING 98
SWIDTH 549 0
DWIDTH 9 0
BBX 8 12 0 0
BITMAP
0A00
0D00
0D00
1DF8
1E5E
280B
2807
340B
340A
740D
7978
A7E0
ENDCHAR
STARTCHAR c
ENCODING 99
SWIDTH 512 0
DWIDTH 8 0
BBX 8 9 0 0
BITMAP
06F4
1E5D
280A
3400
7000
7000
741C
2978
0BE0
ENDCHAR
STARTCHAR d
ENCODING 100
SWIDTH 551 0
DWIDTH 9 0
BBX 9 12 0 0
BITMAP
0002C0
000280
000340
06E740
1E5F00
280B00
340A00
700E00
700D00
741D00
397C00
1BAC00
ENDCHAR
STARTCHAR e
ENCODING 101
SWIDTH 518 0
DWIDTH 8 0
BBX 8 9 0 0
BITMAP
02F4
0E5D
2C0A
340A
7FFE
7554
3400
2D6C
0BE0
ENDCHAR
STARTCHAR f
ENCODING 102
SWIDTH 341 0
DWIDTH 5 0
BBX 6 12 1 0
BITMAP
06E0
1E40
2C00
FF40
3800
3400
7400
7000
7000
A000
A000
D000
ENDCHAR
STARTCHAR g
ENCODING 103
SWIDTH 549 0
DWIDTH 9 0
BBX 9 12 0 -3
BITMAP
06E740
1E5F00
280B00
340A00
700E00
700D00
741D00
397C00
1FAC00
002800
A5B000
2F9000
ENDCHAR
STARTCHAR h
ENCODING 104
SWIDTH 539 0
DWIDTH 9 0
BBX 8 12 0 0
BITMAP
0A00
0D00
0D00
1DF8
1E5D
280A
280E
340D
340D
701C
701C
A028
ENDCHAR
STARTCHAR i
ENCODING 105
SWIDTH 240 0
DWIDTH 4 0
BBX 4 12 0 0
BITMAP
05
0A
00
1D
1C
2C
28
38
34
74
70
B0
ENDCHAR
STARTCHAR j
ENCODING 106
SWIDTH 236 0
DWIDTH 4 0
BBX 6 15 -2 -3
BITMAP
0050
0090
0000
01C0
01C0
0280
0380
0340
0740
0700
0B00
0A00
0E00
5D00
B800
ENDCHAR
STARTCHAR k
ENCODING 107
SWIDTH 496 0
DWIDTH 8 0
BBX 8 12 0 0
BITMAP
0A00
0D00
0D00
1C1E
1C38
28E0
2B80
3E80
35D0
70A0
7074
A028
ENDCHAR
STARTCHAR l
ENCODING 108
SWIDTH 240 0
DWIDTH 4 0
BBX 4 12 0 0
BITMAP
0A
0A
0D
0D
1C
2C
28
38
34
74
70
B0
ENDCHAR
STARTCHAR m
ENCODING 109
SWIDTH 854 0
DWIDTH 14 0
BBX 13 9 0 0
BITMAP
1DF87E00
2E5F9740
280B0280
380E0280
340D0340
740D0340
701C0700
B01C0700
A0280A00
ENDCHAR
STARTCHAR n
ENCODING 110
SWIDTH 540 0
DWIDTH 9 0
BBX 8 9 0 0
BITMAP
1DF8
2E5D
280A
380E
340D
740D
701C
B01C
A028
ENDCHAR
STARTCHAR o
ENCODING 111
SWIDTH 558 0
DWIDTH 9 0
BBX 8 9 0 0
BITMAP
06F8
0E5E
280B
3407
7007
700B
740E
2D6C
0BE0
ENDCHAR
STARTCHAR p
ENCODING 112
SWIDTH 549 0
DWIDTH 9 0
BBX 9 12 -1 -3
BITMAP
077E00
0B9780
0A02C0
0E01C0
0D02C0
1D0280
1C0740
2E5E00
29F800
380000
340000
740000
ENDCHAR
STARTCHAR q
ENCODING 113
SWIDTH 556 0
DWIDTH 9 0
BBX 9 12 0 -3
BITMAP
06E740
1E5F00
280B00
340A00
700A00
700D00
741D00
397C00
1BAC00
002800
003800
003400
ENDCHAR
STARTCHAR r
ENCODING 114
SWIDTH 333 0
DWIDTH 5 0
BBX 6 9 0 0
BITMAP
1DE0
2E50
2C00
3800
3400
7400
7000
B000
A000
ENDCHAR
STARTCHAR s
ENCODING 115
SWIDTH 504 0
DWIDTH 8 0
BBX 8 9 0 0
BITMAP
07E4
1D6C
2809
2D00
0BE0
0078
602C
7978
1BE0
ENDCHAR
STARTCHAR t
ENCODING 116
SWIDTH 321 0
DWIDTH 5 0
BBX 5 11 0 0
BITMAP
0B00
0A00
7FC0
1D00
1D00
1C00
2C00
2800
2800
2900
1E00
ENDCHAR
STARTCHAR u
ENCODING 117
SWIDTH 539 0
DWIDTH 9 0
BBX 7 9 1 0
BITMAP
701C
701C
A028
A028
D034
D034
D074
E5F0
7EB0
ENDCHAR
STARTCHAR v
ENCODING 118
SWIDTH 474 0
DWIDTH 8 0
BBX 7 9 1 0
BITMAP
D038
D070
A0A0
61D0
7280
3740
3A00
2D00
2800
ENDCHAR
STARTCHAR w
ENCODING 119
SWIDTH 733 0
DWIDTH 12 0
BBX 11 9 1 0
BITMAP
D07028
D0B434
A1F470
A2A4D0
A329C0
6A1A80
7D1F40
781E00
340D00
ENDCHAR
STARTCHAR x
ENCODING 120
SWIDTH 485 0
DWIDTH 8 0
BBX 8 9 0 0
BITMAP
281E
1D38
0AB0
07D0
0380
0BC0
2CD0
74B0
E034
ENDCHAR
STARTCHAR y
ENCODING 121
SWIDTH 463 0
DWIDTH 7 0
BBX 9 12 -1 -3
BITMAP
0D0380
0E0700
0A0E00
0B1C00
072800
077000
03E000
03C000
028000
070000
5D0000
B80000
ENDCHAR
STARTCHAR z
ENCODING 122
SWIDTH 485 0
DWIDTH 8 0
BBX 8 9 0 0
BITMAP
2FFE
056C
0074
01D0
0780
0E00
2C00
B550
FFF4
ENDCHAR
STARTCHAR braceleft
ENCODING 123
SWIDTH 333 0
DWIDTH 5 0
BBX 6 16 0 -3
BITMAP
0060
01D0
0340
0740
0700
0B00
1D00
7800
2C00
1C00
1C00
1C00
1C00
1C00
0D00
0600
ENDCHAR
STARTCHAR bar
ENCODING 124
SWIDTH 241 0
DWIDTH 4 0
BBX 4 14 0 -2
BITMAP
09
0D
0C
0C
1C
18
28
24
34
30
70
60
A0
90
ENDCHAR
STARTCHAR braceright
ENCODING 125
SWIDTH 333 0
DWIDTH 5 0
BBX 6 15 -1 -3
BITMAP
0A00
0280
0280
0280
0280
0280
01E0
0380
0700
0A00
0A00
0D00
1C00
7800
9000
ENDCHAR
STARTCHAR asciitilde
ENCODING 126
SWIDTH 664 0
DWIDTH 11 0
BBX 9 4 1 2
BITMAP
2E0180
A6D340
D0BE00
000400
ENDCHAR
STARTCHAR uni00A0
ENCODING 160
SWIDTH 245 0
DWIDTH 4 0
BBX 1 1 0 0
BITMAP
00
ENDCHAR
STARTCHAR exclamdown
ENCODING 161
SWIDTH 241 0
DWIDTH 4 0
BBX 3 12 0 -3
BITMAP
1C
08
00
28
34
34
74
70
B0
A0
E0
D0
ENDCHAR
STARTCHAR cent
ENCODING 162
SWIDTH 535 0
DWIDTH 9 0
BBX 8 13 0 -2
BITMAP
0060
00A0
06F8
0E1E
2806
3400
7400
7000
7409
2968
0BE0
0740
0600
ENDCHAR
STARTCHAR sterling
ENCODING 163
SWIDTH 568 0
DWIDTH 9 0
BBX 9 12 0 0
BITMAP
00BE00
02D780
0742C0
0B0000
0A0000
0A0000
3FF000
1E5000
1D0000
1C0000
795500
FFFE00
ENDCHAR
STARTCHAR currency
ENCODING 164
SWIDTH 696 0
DWIDTH 11 0
BBX 11 10 0 0
BITMAP
1DBE68
0F96F4
0E00B0
1C0070
280070
340070
3400A0
2C02C0
7E5BD0
66F990
ENDCHAR
STARTCHAR yen
ENCODING 165
SWIDTH 514 0
DWIDTH 8 0
BBX 9 12 0 0
BITMAP
2C02C0
1D0740
0E0E00
0A2C00
077400
03E000
3FFD00
028000
7FFC00
034000
074000
070000
ENDCHAR
STARTCHAR brokenbar
ENCODING 166
SWIDTH 237 0
DWIDTH 4 0
BBX 4 14 0 -2
BITMAP
0A
0D
0D
1D
1C
2C
28
00
34
74
70
A0
A0
D0
ENDCHAR
STARTCHAR section
ENCODING 167
SWIDTH 599 0
DWIDTH 10 0
BBX 9 16 0 -4
BITMAP
01BE00
0B5780
0D01C0
1D0040
0F4000
0FF800
386F00
740740
740340
2E4B00
07FD00
006C00
400D00
D01D00
B57800
2FE000
ENDCHAR
STARTCHAR dieresis
ENCODING 168
SWIDTH 410 0
DWIDTH 7 0
BBX 5 2 2 10
BITMAP
8140
D340
ENDCHAR
STARTCHAR copyright
ENCODING 169
SWIDTH 767 0
DWIDTH 12 0
BBX 11 12 1 0
BITMAP
01BE40
0A41D0
28B830
628A14
930618
C60018
860018
C60924
831D70
61F4D0
280740
07F800
ENDCHAR
STARTCHAR ordfeminine
ENCODING 170
SWIDTH 438 0
DWIDTH 7 0
BBX 6 6 1 6
BITMAP
1F80
0090
2FD0
74D0
71C0
2EC0
ENDCHAR
STARTCHAR guillemotleft
ENCODING 171
SWIDTH 459 0
DWIDTH 7 0
BBX 6 6 1 1
BITMAP
0DA0
3580
A700
DA00
6340
2580
ENDCHAR
STARTCHAR logicalnot
ENCODING 172
SWIDTH 541 0
DWIDTH 9 0
BBX 7 3 1 3
BITMAP
FFF4
5574
0070
ENDCHAR
STARTCHAR uni00AD
ENCODING 173
SWIDTH 272 0
DWIDTH 4 0
BBX 4 2 0 3
BITMAP
BF
15
ENDCHAR
STARTCHAR registered
ENCODING 174
SWIDTH 767 0
DWIDTH 12 0
BBX 11 12 1 0
BITMAP
01BE40
0A41D0
29F930
628614
924A18
C3FC18
830D18
C30924
860960
6000D0
290740
07F800
ENDCHAR
STARTCHAR macron
ENCODING 175
SWIDTH 449 0
DWIDTH 7 0
BBX 5 1 2 10
BITMAP
FFC0
ENDCHAR
STARTCHAR degree
ENCODING 176
SWIDTH 367 0
DWIDTH 6 0
BBX 4 4 2 8
BITMAP
7C
C6
CA
B8
ENDCHAR
STARTCHAR plusminus
ENCODING 177
SWIDTH 522 0
DWIDTH 8 0
BBX 8 11 0 0
BITMAP
0010
00A0
0090
00D0
3FFF
15D4
01C0
0280
0140
1550
BFF8
ENDCHAR
STARTCHAR uni00B2
ENCODING 178
SWIDTH 360 0
DWIDTH 6 0
BBX 6 7 0 5
BITMAP
0BD0
1CA0
14A0
01D0
0740
2D00
7FD0
ENDCHAR
STARTCHAR uni00B3
ENCODING 179
SWIDTH 360 0
DWIDTH 6 0
BBX 5 7 1 5
BITMAP
2F40
1280
1F00
0340
0240
D740
7D00
ENDCHAR
STARTCHAR acute
ENCODING 180
SWIDTH 309 0
DWIDTH 5 0
BBX 3 2 2 10
BITMAP
78
A0
ENDCHAR
STARTCHAR mu
ENCODING 181
SWIDTH 554 0
DWIDTH 9 0
BBX 9 12 0 -3
BITMAP
1C0740
1C0700
2C0B00
280A00
380E00
340D00
741D00
797C00
BBAC00
A00000
D00000
D00000
ENDCHAR
STARTCHAR paragraph
ENCODING 182
SWIDTH 479 0
DWIDTH 8 0
BBX 7 12 1 0
BITMAP
0BF4
2FF4
7FF0
BFF0
FFE0
BFE0
7FD0
1AD0
01C0
01C0
0280
0280
ENDCHAR
STARTCHAR periodcentered
ENCODING 183
SWIDTH 257 0
DWIDTH 4 0
BBX 2 2 1 5
BITMAP
70
60
ENDCHAR
STARTCHAR cedilla
ENCODING 184
SWIDTH 245 0
DWIDTH 4 0
BBX 3 3 -1 -3
BITMAP
38
1C
74
ENDCHAR
STARTCHAR uni00B9
ENCODING 185
SWIDTH 360 0
DWIDTH 6 0
BBX 3 7 2 5
BITMAP
68
F8
28
34
34
30
70
ENDCHAR
STARTCHAR ordmasculine
ENCODING 186
SWIDTH 445 0
DWIDTH 7 0
BBX 6 6 1 6
BITMAP
1B80
38A0
7070
70A0
75D0
1F40
ENDCHAR
STARTCHAR guillemotright
ENCODING 187
SWIDTH 459 0
DWIDTH 7 0
BBX 7 6 0 1
BITMAP
1890
0D60
0A34
0A74
28D0
6240
ENDCHAR
STARTCHAR onequarter
ENCODING 188
SWIDTH 715 0
DWIDTH 11 0
BBX 10 12 1 0
BITMAP
190000
6D0000
0C0240
1C0600
181C00
283400
0091D0
0287C0
061DC0
1C3680
24BFD0
000340
ENDCHAR
STARTCHAR onehalf
ENCODING 189
SWIDTH 757 0
DWIDTH 12 0
BBX 10 12 1 0
BITMAP
190000
6D0000
0C0200
1C0A00
181800
287000
01CBD0
035C70
0900A0
280380
201D00
003FE0
ENDCHAR
STARTCHAR threequarters
ENCODING 190
SWIDTH 759 0
DWIDTH 12 0
BBX 10 12 1 0
BITMAP
1F8000
25C000
0F4090
028180
A28700
6E0D00
0024B0
00A2E0
0186A0
071890
093FF0
0001C0
ENDCHAR
STARTCHAR questiondown
ENCODING 191
SWIDTH 463 0
DWIDTH 7 0
BBX 7 12 -1 -3
BITMAP
0070
0060
0000
00D0
01C0
0780
1E00
2800
3400
7428
3974
1BD0
ENDCHAR
STARTCHAR Agrave
ENCODING 192
SWIDTH 637 0
DWIDTH 10 0
BBX 10 15 -1 0
BITMAP
001D00
000600
000000
000B00
001F00
002B40
007680
00A280
01D2C0
0281C0
0741D0
0BFFD0
1D55E0
3800A0
740070
ENDCHAR
STARTCHAR Aacute
ENCODING 193
SWIDTH 637 0
DWIDTH 10 0
BBX 10 15 -1 0
BITMAP
0001E0
000340
000000
000B00
001F00
002B40
007680
00A280
01D2C0
0281C0
0741D0
0BFFD0
1D55E0
3800A0
740070
ENDCHAR
STARTCHAR Acircumflex
ENCODING 194
SWIDTH 637 0
DWIDTH 10 0
BBX 10 15 -1 0
BITMAP
001B80
0038A0
000000
000B00
001F00
002B40
007680
00A280
01D2C0
0281C0
0741D0
0BFFD0
1D55E0
3800A0
740070
ENDCHAR
STARTCHAR Atilde
ENCODING 195
SWIDTH 637 0
DWIDTH 10 0
BBX 11 15 -1 0
BITMAP
002E64
0031E0
000000
000B00
001F00
002B40
007680
00A280
01D2C0
0281C0
0741D0
0BFFD0
1D55E0
3800A0
740070
ENDCHAR
STARTCHAR Adieresis
ENCODING 196
SWIDTH 637 0
DWIDTH 10 0
BBX 10 15 -1 0
BITMAP
001450
002860
000000
000B00
001F00
002B40
007680
00A280
01D2C0
0281C0
0741D0
0BFFD0
1D55E0
3800A0
740070
ENDCHAR
STARTCHAR Aring
ENCODING 197
SWIDTH 637 0
DWIDTH 10 0
BBX 10 17 -1 0
BITMAP
000780
000890
000880
000780
000000
000B00
001F00
002B40
007680
00A280
01D2C0
0281C0
0741D0
0BFFD0
1D55E0
3800A0
740070
ENDCHAR
STARTCHAR AE
ENCODING 198
SWIDTH 911 0
DWIDTH 15 0
BBX 16 12 -1 0
BITMAP
0000BFFF
0001F954
0003B400
000A7400
002D7000
00787FF4
00F0B550
02D0A000
07FFE000
1E55D000
3C00D550
B401FFF8
ENDCHAR
STARTCHAR Ccedilla
ENCODING 199
SWIDTH 636 0
DWIDTH 10 0
BBX 9 15 1 -3
BITMAP
02F900
0E5B40
280280
740280
B00000
E00000
D00000
D00000
D00600
A00E00
796C00
1BE000
074000
028000
0E0000
ENDCHAR
STARTCHAR Egrave
ENCODING 200
SWIDTH 556 0
DWIDTH 9 0
BBX 10 15 0 0
BITMAP
00B000
002400
000000
0BFFD0
0A5540
0D0000
0D0000
1C0000
1FFE00
2D5400
280000
340000
340000
755400
7FFE00
ENDCHAR
STARTCHAR Eacute
ENCODING 201
SWIDTH 556 0
DWIDTH 9 0
BBX 10 15 0 0
BITMAP
000B40
001800
000000
0BFFD0
0A5540
0D0000
0D0000
1C0000
1FFE00
2D5400
280000
340000
340000
755400
7FFE00
ENDCHAR
STARTCHAR Ecircumflex
ENCODING 202
SWIDTH 556 0
DWIDTH 9 0
BBX 10 15 0 0
BITMAP
006E00
01E740
000000
0BFFD0
0A5540
0D0000
0D0000
1C0000
1FFE00
2D5400
280000
340000
340000
755400
7FFE00
ENDCHAR
STARTCHAR Edieresis
ENCODING 203
SWIDTH 556 0
DWIDTH 9 0
BBX 10 15 0 0
BITMAP
008140
00D240
000000
0BFFD0
0A5540
0D0000
0D0000
1C0000
1FFE00
2D5400
280000
340000
340000
755400
7FFE00
ENDCHAR
STARTCHAR Igrave
ENCODING 204
SWIDTH 268 0
DWIDTH 4 0
BBX 4 15 0 0
BITMAP
0D
06
00
0B
0A
0E
0D
1D
1C
2C
28
38
34
74
70
ENDCHAR
STARTCHAR Iacute
ENCODING 205
SWIDTH 268 0
DWIDTH 4 0
BBX 6 15 0 0
BITMAP
01E0
0240
0000
0B00
0A00
0E00
0D00
1D00
1C00
2C00
2800
3800
3400
7400
7000
ENDCHAR
STARTCHAR Icircumflex
ENCODING 206
SWIDTH 268 0
DWIDTH 4 0
BBX 6 15 0 0
BITMAP
0B90
29A0
0000
0B00
0A00
0E00
0D00
1D00
1C00
2C00
2800
3800
3400
7400
7000
ENDCHAR
STARTCHAR Idieresis
ENCODING 207
SWIDTH 268 0
DWIDTH 4 0
BBX 6 15 0 0
BITMAP
1460
2870
0000
0B00
0A00
0E00
0D00
1D00
1C00
2C00
2800
3800
3400
7400
7000
ENDCHAR
STARTCHAR Eth
ENCODING 208
SWIDTH 655 0
DWIDTH 11 0
BBX 10 12 0 0
BITMAP
07FE00
0B5780
0A01D0
0A00A0
0D00A0
0D00A0
BFC0E0
2D40D0
2802C0
380740
396E00
7FE400
ENDCHAR
STARTCHAR Ntilde
ENCODING 209
SWIDTH 696 0
DWIDTH 11 0
BBX 11 15 0 0
BITMAP
007D60
0096C0
000000
0B002C
0B8028
0FC038
0ED034
1DA074
1C7470
2C38B0
281CA0
380EE0
340BD0
7403D0
7002C0
ENDCHAR
STARTCHAR Ograve
ENCODING 210
SWIDTH 671 0
DWIDTH 11 0
BBX 9 15 1 0
BITMAP
00E000
003000
000000
02F900
0F5B40
280280
7401C0
B001C0
E001C0
D002C0
D00380
E00740
B00A00
796C00
1BE000
ENDCHAR
STARTCHAR Oacute
ENCODING 211
SWIDTH 671 0
DWIDTH 11 0
BBX 9 15 1 0
BITMAP
000A00
002800
000000
02F900
0F5B40
280280
7401C0
B001C0
E001C0
D002C0
D00380
E00740
B00A00
796C00
1BE000
ENDCHAR
STARTCHAR Ocircumflex
ENCODING 212
SWIDTH 671 0
DWIDTH 11 0
BBX 9 15 1 0
BITMAP
00BD00
02DB00
000000
02F900
0F5B40
280280
7401C0
B001C0
E001C0
D002C0
D00380
E00740
B00A00
796C00
1BE000
ENDCHAR
STARTCHAR Otilde
ENCODING 213
SWIDTH 671 0
DWIDTH 11 0
BBX 9 15 1 0
BITMAP
01E640
035E00
000000
02F900
0F5B40
280280
7401C0
B001C0
E001C0
D002C0
D00380
E00740
B00A00
796C00
1BE000
ENDCHAR
STARTCHAR Odieresis
ENCODING 214
SWIDTH 671 0
DWIDTH 11 0
BBX 9 15 1 0
BITMAP
018200
018700
000000
02F900
0F5B40
280280
7401C0
B001C0
E001C0
D002C0
D00380
E00740
B00A00
796C00
1BE000
ENDCHAR
STARTCHAR multiply
ENCODING 215
SWIDTH 521 0
DWIDTH 8 0
BBX 8 7 0 2
BITMAP
1806
1D2D
07B4
03D0
0BE0
7838
6018
ENDCHAR
STARTCHAR Oslash
ENCODING 216
SWIDTH 671 0
DWIDTH 11 0
BBX 11 14 0 -1
BITMAP
000004
00BE68
03D6E0
0A00F0
1D02B0
2C0A70
381870
3430B0
3490E0
3681D0
2E0280
1E5B00
3AF800
500000
ENDCHAR
STARTCHAR Ugrave
ENCODING 217
SWIDTH 633 0
DWIDTH 10 0
BBX 10 15 1 0
BITMAP
01D000
006000
000000
3801D0
3401C0
3402C0
700280
700380
A00340
A00740
D00700
D00A00
E00D00
B97800
1FE000
ENDCHAR
STARTCHAR Uacute
ENCODING 218
SWIDTH 633 0
DWIDTH 10 0
BBX 10 15 1 0
BITMAP
001E00
003400
000000
3801D0
3401C0
3402C0
700280
700380
A00340
A00740
D00700
D00A00
E00D00
B97800
1FE000
ENDCHAR
STARTCHAR Ucircumflex
ENCODING 219
SWIDTH 633 0
DWIDTH 10 0
BBX 10 15 1 0
BITMAP
01B800
038A00
000000
3801D0
3401C0
3402C0
700280
700380
A00340
A00740
D00700
D00A00
E00D00
B97800
1FE000
ENDCHAR
STARTCHAR Udieresis
ENCODING 220
SWIDTH 633 0
DWIDTH 10 0
BBX 10 15 1 0
BITMAP
014500
028600
000000
3801D0
3401C0
3402C0
700280
700380
A00340
A00740
D00700
D00A00
E00D00
B97800
1FE000
ENDCHAR
STARTCHAR Yacute
ENCODING 221
SWIDTH 587 0
DWIDTH 9 0
BBX 9 15 1 0
BITMAP
002D00
006000
000000
B002C0
740740
380E00
1C2C00
0D7400
0AE000
07C000
074000
070000
070000
0A0000
0A0000
ENDCHAR
STARTCHAR Thorn
ENCODING 222
SWIDTH 578 0
DWIDTH 9 0
BBX 9 12 0 0
BITMAP
0A0000
0A0000
0FF900
0D5B40
1C0380
1C0280
280340
295E00
3FF800
340000
700000
700000
ENDCHAR
STARTCHAR germandbls
ENCODING 223
SWIDTH 581 0
DWIDTH 9 0
BBX 8 12 0 0
BITMAP
02F8
0B5E
0D0A
1C0D
1C28
2834
2834
341D
3407
7007
B25E
A2F8
ENDCHAR
STARTCHAR agrave
ENCODING 224
SWIDTH 532 0
DWIDTH 9 0
BBX 8 12 0 0
BITMAP
01D0
0060
0000
06F4
1E6D
280D
000D
1BFD
391C
702C
75B8
2FAC
ENDCHAR
STARTCHAR aacute
ENCODING 225
SWIDTH 532 0
DWIDTH 9 0
BBX 8 12 0 0
BITMAP
001E
0074
0000
06F4
1E6D
280D
000D
1BFD
391C
702C
75B8
2FAC
ENDCHAR
STARTCHAR acircumflex
ENCODING 226
SWIDTH 532 0
DWIDTH 9 0
BBX 8 12 0 0
BITMAP
01B8
038E
0000
06F4
1E6D
280D
000D
1BFD
391C
702C
75B8
2FAC
ENDCHAR
STARTCHAR atilde
ENCODING 227
SWIDTH 532 0
DWIDTH 9 0
BBX 8 12 0 0
BITMAP
02E7
061E
0000
06F4
1E6D
280D
000D
1BFD
391C
702C
75B8
2FAC
ENDCHAR
STARTCHAR adieresis
ENCODING 228
SWIDTH 532 0
DWIDTH 9 0
BBX 8 12 0 0
BITMAP
0145
024A
0000
06F4
1E6D
280D
000D
1BFD
391C
702C
75B8
2FAC
ENDCHAR
STARTCHAR aring
ENCODING 229
SWIDTH 532 0
DWIDTH 9 0
BBX 8 14 0 0
BITMAP
0078
0088
0088
00B4
0000
06F4
1E6D
280D
000D
1BFD
391C
702C
75B8
2FAC
ENDCHAR
STARTCHAR ae
ENCODING 230
SWIDTH 823 0
DWIDTH 13 0
BBX 13 9 0 0
BITMAP
07F4BD00
1E6F9740
281E0280
001D0280
1BFFFF80
782C0000
A02C0000
B5BE5A00
2F82F900
ENDCHAR
STARTCHAR ccedilla
ENCODING 231
SWIDTH 512 0
DWIDTH 8 0
BBX 8 12 0 -3
BITMAP
06F4
1E5D
280A
3400
7000
7000
741C
2978
0BE0
0700
0280
0E00
ENDCHAR
STARTCHAR egrave
ENCODING 232
SWIDTH 518 0
DWIDTH 8 0
BBX 8 12 0 0
BITMAP
01C0
0090
0000
02F4
0E5D
2C0A
340A
7FFE
7554
3400
2D6C
0BE0
ENDCHAR
STARTCHAR eacute
ENCODING 233
SWIDTH 518 0
DWIDTH 8 0
BBX 8 12 0 0
BITMAP
002D
0074
0000
02F4
0E5D
2C0A
340A
7FFE
7554
3400
2D6C
0BE0
ENDCHAR
STARTCHAR ecircumflex
ENCODING 234
SWIDTH 518 0
DWIDTH 8 0
BBX 8 12 0 0
BITMAP
01B8
079D
0000
02F4
0E5D
2C0A
340A
7FFE
7554
3400
2D6C
0BE0
ENDCHAR
STARTCHAR edieresis
ENCODING 235
SWIDTH 518 0
DWIDTH 8 0
BBX 8 12 0 0
BITMAP
0205
034A
0000
02F4
0E5D
2C0A
340A
7FFE
7554
3400
2D6C
0BE0
ENDCHAR
STARTCHAR igrave
ENCODING 236
SWIDTH 244 0
DWIDTH 4 0
BBX 4 12 0 0
BITMAP
28
09
00
1D
1C
2C
28
38
34
74
70
B0
ENDCHAR
STARTCHAR iacute
ENCODING 237
SWIDTH 244 0
DWIDTH 4 0
BBX 5 12 0 0
BITMAP
02C0
0A00
0000
1D00
1C00
2C00
2800
3800
3400
7400
7000
B000
ENDCHAR
STARTCHAR icircumflex
ENCODING 238
SWIDTH 244 0
DWIDTH 4 0
BBX 5 12 0 0
BITMAP
1F40
75C0
0000
1D00
1C00
2C00
2800
3800
3400
7400
7000
B000
ENDCHAR
STARTCHAR idieresis
ENCODING 239
SWIDTH 244 0
DWIDTH 4 0
BBX 6 12 0 0
BITMAP
2080
70D0
0000
1D00
1C00
2C00
2800
3800
3400
7400
7000
B000
ENDCHAR
STARTCHAR eth
ENCODING 240
SWIDTH 573 0
DWIDTH 9 0
BBX 8 12 1 0
BITMAP
0A41
06ED
02F4
011C
1BEC
396D
B01D
D01C
D02C
D038
B5B0
2F80
ENDCHAR
STARTCHAR ntilde
ENCODING 241
SWIDTH 540 0
DWIDTH 9 0
BBX 8 12 0 0
BITMAP
02E7
062D
0000
1DF8
2E5D
280A
380E
340D
740D
701C
B01C
A028
ENDCHAR
STARTCHAR ograve
ENCODING 242
SWIDTH 558 0
DWIDTH 9 0
BBX 8 12 0 0
BITMAP
01D0
00A0
0000
06F8
0E5E
280B
3407
7007
700B
740E
2D6C
0BE0
ENDCHAR
STARTCHAR oacute
ENCODING 243
SWIDTH 558 0
DWIDTH 9 0
BBX 8 12 0 0
BITMAP
001D
0074
0000
06F8
0E5E
280B
3407
7007
700B
740E
2D6C
0BE0
ENDCHAR
STARTCHAR ocircumflex
ENCODING 244
SWIDTH 558 0
DWIDTH 9 0
BBX 8 12 0 0
BITMAP
01B8
039D
0000
06F8
0E5E
280B
3407
7007
700B
740E
2D6C
0BE0
ENDCHAR
STARTCHAR otilde
ENCODING 245
SWIDTH 558 0
DWIDTH 9 0
BBX 8 12 0 0
BITMAP
02D7
062D
0000
06F8
0E5E
280B
3407
7007
700B
740E
2D6C
0BE0
ENDCHAR
STARTCHAR odieresis
ENCODING 246
SWIDTH 558 0
DWIDTH 9 0
BBX 8 12 0 0
BITMAP
0245
034A
0000
06F8
0E5E
280B
3407
7007
700B
740E
2D6C
0BE0
ENDCHAR
STARTCHAR divide
ENCODING 247
SWIDTH 558 0
DWIDTH 9 0
BBX 9 9 0 1
BITMAP
001000
00A000
005000
000000
7FFF40
555500
000000
028000
024000
ENDCHAR
STARTCHAR oslash
ENCODING 248
SWIDTH 554 0
DWIDTH 9 0
BBX 8 11 0 -1
BITMAP
0002
02F9
0E6E
282B
3467
70C7
724B
760D
3D78
2FE0
6000
ENDCHAR
STARTCHAR ugrave
ENCODING 249
SWIDTH 539 0
DWIDTH 9 0
BBX 7 12 1 0
BITMAP
0740
0280
0000
701C
701C
A028
A028
D034
D034
D074
E5F0
7EB0
ENDCHAR
STARTCHAR uacute
ENCODING 250
SWIDTH 539 0
DWIDTH 9 0
BBX 7 12 1 0
BITMAP
0074
01D0
0000
701C
701C
A028
A028
D034
D034
D074
E5F0
7EB0
ENDCHAR
STARTCHAR ucircumflex
ENCODING 251
SWIDTH 539 0
DWIDTH 9 0
BBX 7 12 1 0
BITMAP
06E0
0E78
0000
701C
701C
A028
A028
D034
D034
D074
E5F0
7EB0
ENDCHAR
STARTCHAR udieresis
ENCODING 252
SWIDTH 539 0
DWIDTH 9 0
BBX 7 12 1 0
BITMAP
0914
0D28
0000
701C
701C
A028
A028
D034
D034
D074
E5F0
7EB0
ENDCHAR
STARTCHAR yacute
ENCODING 253
SWIDTH 463 0
DWIDTH 7 0
BBX 9 15 -1 -3
BITMAP
000A00
002800
000000
0D0380
0E0700
0A0E00
0B1C00
072800
077000
03E000
03C000
028000
070000
5D0000
B80000
ENDCHAR
STARTCHAR thorn
ENCODING 254
SWIDTH 563 0
DWIDTH 9 0
BBX 8 15 0 -3
BITMAP
0A00
0E00
0D00
1DF8
1E5E
2C0B
2807
3407
340A
740D
797C
A7E0
A000
D000
D000
ENDCHAR
STARTCHAR ydieresis
ENCODING 255
SWIDTH 463 0
DWIDTH 7 0
BBX 9 15 -1 -3
BITMAP
018200
01C340
000000
0D0380
0E0700
0A0E00
0B1C00
072800
077000
03E000
03C000
028000
070000
5D0000
B80000
ENDCHAR
STARTCHAR Amacron
ENCODING 256
SWIDTH 637 0
DWIDTH 10 0
BBX 10 12 -1 0
BITMAP
003FF0
001F00
002B40
007680
00A280
01D2C0
0281C0
0741D0
0BFFD0
1D55E0
3800A0
740070
ENDCHAR
STARTCHAR amacron
ENCODING 257
SWIDTH 532 0
DWIDTH 9 0
BBX 8 11 0 0
BITMAP
03FF
0000
06F4
1E6D
280D
000D
1BFD
391C
702C
75B8
2FAC
ENDCHAR
STARTCHAR Abreve
ENCODING 258
SWIDTH 637 0
DWIDTH 10 0
BBX 10 15 -1 0
BITMAP
0018A0
000B90
000000
000B00
001F00
002B40
007680
00A280
01D2C0
0281C0
0741D0
0BFFD0
1D55E0
3800A0
740070
ENDCHAR
STARTCHAR abreve
ENCODING 259
SWIDTH 532 0
DWIDTH 9 0
BBX 8 12 0 0
BITMAP
028A
00B8
0000
06F4
1E6D
280D
000D
1BFD
391C
702C
75B8
2FAC
ENDCHAR
STARTCHAR Aogonek
ENCODING 260
SWIDTH 637 0
DWIDTH 10 0
BBX 10 15 -1 -3
BITMAP
000B00
001F00
002B40
007680
00A280
01D2C0
0281C0
0741D0
0BFFD0
1D55E0
3800A0
740070
000190
000340
0002D0
ENDCHAR
STARTCHAR aogonek
ENCODING 261
SWIDTH 532 0
DWIDTH 9 0
BBX 8 12 0 -3
BITMAP
06F4
1E6D
280D
000D
1BFD
391C
702C
75B8
2FAC
0060
00D0
00F4
ENDCHAR
STARTCHAR Cacute
ENCODING 262
SWIDTH 636 0
DWIDTH 10 0
BBX 9 15 1 0
BITMAP
001E00
002800
000000
02F900
0E5B40
280280
740280
B00000
E00000
D00000
D00000
D00600
A00E00
796C00
1BE000
ENDCHAR
STARTCHAR cacute
ENCODING 263
SWIDTH 512 0
DWIDTH 8 0
BBX 8 12 0 0
BITMAP
002C
00A0
0000
06F4
1E5D
280A
3400
7000
7000
741C
2978
0BE0
ENDCHAR
STARTCHAR Ccircumflex
ENCODING 264
SWIDTH 636 0
DWIDTH 10 0
BBX 9 15 1 0
BITMAP
00B900
02DA00
000000
02F900
0E5B40
280280
740280
B00000
E00000
D00000
D00000
D00600
A00E00
796C00
1BE000
ENDCHAR
STARTCHAR ccircumflex
ENCODING 265
SWIDTH 512 0
DWIDTH 8 0
BBX 8 12 0 0
BITMAP
01F4
075C
0000
06F4
1E5D
280A
3400
7000
7000
741C
2978
0BE0
ENDCHAR
STARTCHAR Cdotaccent
ENCODING 266
SWIDTH 636 0
DWIDTH 10 0
BBX 9 15 1 0
BITMAP
002000
003400
000000
02F900
0E5B40
280280
740280
B00000
E00000
D00000
D00000
D00600
A00E00
796C00
1BE000
ENDCHAR
STARTCHAR cdotaccent
ENCODING 267
SWIDTH 512 0
DWIDTH 8 0
BBX 8 12 0 0
BITMAP
0050
00A0
0000
06F4
1E5D
280A
3400
7000
7000
741C
2978
0BE0
ENDCHAR
STARTCHAR Ccaron
ENCODING 268
SWIDTH 636 0
DWIDTH 10 0
BBX 9 15 1 0
BITMAP
01CA00
007800
000000
02F900
0E5B40
280280
740280
B00000
E00000
D00000
D00000
D00600
A00E00
796C00
1BE000
ENDCHAR
STARTCHAR ccaron
ENCODING 269
SWIDTH 512 0
DWIDTH 8 0
BBX 8 12 0 0
BITMAP
025D
00E0
0000
06F4
1E5D
280A
3400
7000
7000
741C
2978
0BE0
ENDCHAR
STARTCHAR Dcaron
ENCODING 270
SWIDTH 641 0
DWIDTH 10 0
BBX 10 15 0 0
BITMAP
009740
002800
000000
0BF900
0A5B80
0D01C0
0D00D0
1C00E0
1C00D0
2C00D0
2801C0
380280
340740
756D00
7FE400
ENDCHAR
STARTCHAR dcaron
ENCODING 271
SWIDTH 625 0
DWIDTH 10 0
BBX 12 12 0 0
BITMAP
0002CD
00029C
000364
06E740
1E5F00
280B00
340A00
700E00
700D00
741D00
397C00
1BAC00
ENDCHAR
STARTCHAR Dcroat
ENCODING 272
SWIDTH 655 0
DWIDTH 11 0
BBX 10 12 0 0
BITMAP
07FE00
0B5780
0A01D0
0E00A0
0D00A0
BFC0A0
2D40E0
2C00D0
2802C0
380740
396E00
7FE400
ENDCHAR
STARTCHAR dcroat
ENCODING 273
SWIDTH 583 0
DWIDTH 9 0
BBX 10 12 0 0
BITMAP
000280
002FF0
000790
06E740
1E5F00
280B00
340A00
700E00
700D00
701D00
397C00
1BAC00
ENDCHAR
STARTCHAR Emacron
ENCODING 274
SWIDTH 556 0
DWIDTH 9 0
BBX 10 14 0 0
BITMAP
01FF80
000000
0BFFD0
0A5540
0D0000
0D0000
1C0000
1FFE00
2D5400
280000
340000
340000
755400
7FFE00
ENDCHAR
STARTCHAR emacron
ENCODING 275
SWIDTH 518 0
DWIDTH 8 0
BBX 8 11 0 0
BITMAP
07FF
0000
02F4
0E5D
2C0A
340A
7FFE
7554
3400
2D6C
0BE0
ENDCHAR
STARTCHAR Ebreve
ENCODING 276
SWIDTH 556 0
DWIDTH 9 0
BBX 10 15 0 0
BITMAP
00D340
007E00
000000
0BFFD0
0A5540
0D0000
0D0000
1C0000
1FFE00
2D5400
280000
340000
340000
755400
7FFE00
ENDCHAR
STARTCHAR ebreve
ENCODING 277
SWIDTH 518 0
DWIDTH 8 0
BBX 8 12 0 0
BITMAP
0249
01F8
0000
02F4
0E5D
2C0A
340A
7FFE
7554
3400
2D6C
0BE0
ENDCHAR
STARTCHAR Edotaccent
ENCODING 278
SWIDTH 556 0
DWIDTH 9 0
BBX 10 15 0 0
BITMAP
001400
001800
000000
0BFFD0
0A5540
0D0000
0D0000
1C0000
1FFE00
2D5400
280000
340000
340000
755400
7FFE00
ENDCHAR
STARTCHAR edotaccent
ENCODING 279
SWIDTH 518 0
DWIDTH 8 0
BBX 8 12 0 0
BITMAP
0060
0070
0000
02F4
0E5D
2C0A
340A
7FFE
7554
3400
2D6C
0BE0
ENDCHAR
STARTCHAR Eogonek
ENCODING 280
SWIDTH 556 0
DWIDTH 9 0
BBX 10 15 0 -3
BITMAP
0BFFD0
0A5540
0D0000
0D0000
1C0000
1FFE00
2D5400
280000
340000
340000
755400
7FFE00
007400
00A000
00B800
ENDCHAR
STARTCHAR eogonek
ENCODING 281
SWIDTH 518 0
DWIDTH 8 0
BBX 8 12 0 -3
BITMAP
06F4
0E6D
280A
340A
7FFE
7554
7400
2968
0BE0
0280
0740
03C0
ENDCHAR
STARTCHAR Ecaron
ENCODING 282
SWIDTH 556 0
DWIDTH 9 0
BBX 10 15 0 0
BITMAP
00A740
002D00
000000
0BFFD0
0A5540
0D0000
0D0000
1C0000
1FFE00
2D5400
280000
340000
340000
755400
7FFE00
ENDCHAR
STARTCHAR ecaron
ENCODING 283
SWIDTH 518 0
DWIDTH 8 0
BBX 8 12 0 0
BITMAP
0289
00B4
0000
02F4
0E5D
2C0A
340A
7FFE
7554
3400
2D6C
0BE0
ENDCHAR
STARTCHAR Gcircumflex
ENCODING 284
SWIDTH 665 0
DWIDTH 11 0
BBX 9 15 1 0
BITMAP
00B900
029A00
000000
02F900
0E5B40
280280
740180
B00000
A00000
E07F80
D01740
E00740
B00700
396E00
1BE400
ENDCHAR
STARTCHAR gcircumflex
ENCODING 285
SWIDTH 549 0
DWIDTH 9 0
BBX 9 15 0 -3
BITMAP
01B800
039D00
000000
06E740
1E5F00
280B00
340A00
700E00
700D00
741D00
397C00
1FAC00
002800
A5B000
2F9000
ENDCHAR
STARTCHAR Gbreve
ENCODING 286
SWIDTH 665 0
DWIDTH 11 0
BBX 9 15 1 0
BITMAP
018700
00B900
000000
02F900
0E5B40
280280
740180
B00000
A00000
E07F80
D01740
E00740
B00700
396E00
1BE400
ENDCHAR
STARTCHAR gbreve
ENCODING 287
SWIDTH 549 0
DWIDTH 9 0
BBX 9 15 0 -3
BITMAP
024A00
01F800
000000
06E740
1E5F00
280B00
340A00
700E00
700D00
741D00
397C00
1FAC00
002800
A5B000
2F9000
ENDCHAR
STARTCHAR Gdotaccent
ENCODING 288
SWIDTH 665 0
DWIDTH 11 0
BBX 9 15 1 0
BITMAP
002000
003400
000000
02F900
0E5B40
280280
740180
B00000
A00000
E07F80
D01740
E00740
B00700
396E00
1BE400
ENDCHAR
STARTCHAR gdotaccent
ENCODING 289
SWIDTH 549 0
DWIDTH 9 0
BBX 9 15 0 -3
BITMAP
006000
007000
000000
06E740
1E5F00
280B00
340A00
700E00
700D00
741D00
397C00
1FAC00
002800
A5B000
2F9000
ENDCHAR
STARTCHAR uni0122
ENCODING 290
SWIDTH 665 0
DWIDTH 11 0
BBX 9 16 1 -4
BITMAP
02F900
0E5B40
280280
740180
B00000
A00000
E07F80
D01740
E00740
B00700
396E00
1BE400
000000
070000
0B0000
090000
ENDCHAR
STARTCHAR uni0123
ENCODING 291
SWIDTH 549 0
DWIDTH 9 0
BBX 9 16 0 -3
BITMAP
002400
007400
00B000
000000
06E740
1E5F00
280B00
340A00
700E00
700D00
741D00
397C00
1FAC00
002800
A5B000
2F9000
ENDCHAR
STARTCHAR Hcircumflex
ENCODING 292
SWIDTH 696 0
DWIDTH 11 0
BBX 11 15 0 0
BITMAP
001F40
00B5C0
000000
0B002C
0A0028
0E0038
0D0034
1D0074
1C0070
2FFFF0
2955A0
3800E0
3400D0
7401D0
7001C0
ENDCHAR
STARTCHAR hcircumflex
ENCODING 293
SWIDTH 539 0
DWIDTH 9 0
BBX 8 15 0 0
BITMAP
01B8
039D
0000
0A00
0D00
0D00
1DF8
1E5D
280A
280E
340D
340D
701C
701C
A028
ENDCHAR
STARTCHAR Hbar
ENCODING 294
SWIDTH 684 0
DWIDTH 11 0
BBX 12 12 0 0
BITMAP
0A0028
0E0038
3FFFFD
1D0074
1C0070
2FFFF0
2955A0
3800E0
3400D0
7400D0
7001C0
B001C0
ENDCHAR
STARTCHAR hbar
ENCODING 295
SWIDTH 553 0
DWIDTH 9 0
BBX 8 12 0 0
BITMAP
0B00
7FE0
1E40
0DB8
1F5E
1C0B
280A
280A
340D
340D
701D
701C
ENDCHAR
STARTCHAR Itilde
ENCODING 296
SWIDTH 268 0
DWIDTH 4 0
BBX 7 15 0 0
BITMAP
2E64
31E0
0000
0B00
0A00
0E00
0D00
1D00
1C00
2C00
2800
3800
3400
7400
7000
ENDCHAR
STARTCHAR itilde
ENCODING 297
SWIDTH 244 0
DWIDTH 4 0
BBX 6 12 0 0
BITMAP
7DA0
96C0
0000
1D00
1C00
2C00
2800
3800
3400
7400
7000
B000
ENDCHAR
STARTCHAR Imacron
ENCODING 298
SWIDTH 268 0
DWIDTH 4 0
BBX 7 14 0 0
BITMAP
3FF4
0000
0B00
0A00
0E00
0D00
1D00
1C00
2C00
2800
3800
3400
7400
7000
ENDCHAR
STARTCHAR imacron
ENCODING 299
SWIDTH 244 0
DWIDTH 4 0
BBX 6 11 0 0
BITMAP
BFE0
0000
1D00
1C00
2C00
2800
3800
3400
7400
7000
B000
ENDCHAR
STARTCHAR Ibreve
ENCODING 300
SWIDTH 268 0
DWIDTH 4 0
BBX 6 15 0 0
BITMAP
1870
0B90
0000
0B00
0A00
0E00
0D00
1D00
1C00
2C00
2800
3800
3400
7400
7000
ENDCHAR
STARTCHAR ibreve
ENCODING 301
SWIDTH 244 0
DWIDTH 4 0
BBX 6 12 0 0
BITMAP
30D0
1F40
0000
1D00
1C00
2C00
2800
3800
3400
7400
7000
B000
ENDCHAR
STARTCHAR Iogonek
ENCODING 302
SWIDTH 268 0
DWIDTH 4 0
BBX 5 15 -1 -3
BITMAP
02C0
0280
0380
0340
0740
0700
0B00
0A00
0E00
0D00
1D00
1C00
2400
A000
B800
ENDCHAR
STARTCHAR iogonek
ENCODING 303
SWIDTH 240 0
DWIDTH 4 0
BBX 5 15 -1 -3
BITMAP
0140
0280
0000
0740
0700
0B00
0A00
0E00
0D00
1D00
1C00
2C00
6400
D000
B400
ENDCHAR
STARTCHAR Idotaccent
ENCODING 304
SWIDTH 268 0
DWIDTH 4 0
BBX 5 15 0 0
BITMAP
0200
0340
0000
0B00
0A00
0E00
0D00
1D00
1C00
2C00
2800
3800
3400
7400
7000
ENDCHAR
STARTCHAR dotlessi
ENCODING 305
SWIDTH 244 0
DWIDTH 4 0
BBX 4 9 0 0
BITMAP
1D
1C
2C
28
38
34
74
70
B0
ENDCHAR
STARTCHAR IJ
ENCODING 306
SWIDTH 808 0
DWIDTH 13 0
BBX 13 12 0 0
BITMAP
0B000280
0A000380
0E000340
0D000740
1D000700
1C000700
2C000A00
28000A00
38100D00
34701D00
74397800
701BE000
ENDCHAR
STARTCHAR ij
ENCODING 307
SWIDTH 476 0
DWIDTH 8 0
BBX 8 15 0 -3
BITMAP
0509
0A0D
0000
1D1C
1C28
2C28
2834
3834
3470
74B0
70A0
B0E0
00D0
06C0
0F40
ENDCHAR
STARTCHAR Jcircumflex
ENCODING 308
SWIDTH 540 0
DWIDTH 9 0
BBX 10 15 0 0
BITMAP
0007D0
002D70
000000
000340
000340
000740
000700
000B00
000A00
000E00
000D00
501D00
A02C00
75B400
1F9000
ENDCHAR
STARTCHAR jcircumflex
ENCODING 309
SWIDTH 249 0
DWIDTH 4 0
BBX 8 15 -2 -3
BITMAP
01F4
075D
0000
00D0
01C0
01C0
0280
0280
0340
0340
0700
0700
0A00
5D00
B800
ENDCHAR
STARTCHAR uni0136
ENCODING 310
SWIDTH 612 0
DWIDTH 10 0
BBX 11 15 0 -3
BITMAP
0A00B4
0A02D0
0E0B40
0D2D00
1DB400
1EE000
2EB000
283400
342C00
340E00
740B00
700380
028000
034000
060000
ENDCHAR
STARTCHAR uni0137
ENCODING 311
SWIDTH 496 0
DWIDTH 8 0
BBX 8 15 0 -3
BITMAP
0A00
0D00
0D00
1C1E
1C38
28E0
2B80
3E80
35D0
70A0
7074
A028
0A00
0D00
1800
ENDCHAR
STARTCHAR kgreenlandic
ENCODING 312
SWIDTH 544 0
DWIDTH 9 0
BBX 9 9 0 0
BITMAP
1D0B40
1C1D00
2C7400
29D000
3F8000
3AC000
74E000
707400
B02C00
ENDCHAR
STARTCHAR Lacute
ENCODING 313
SWIDTH 526 0
DWIDTH 8 0
BBX 8 15 0 0
BITMAP
01E0
0740
0000
0B00
0A00
0E00
0D00
1D00
1C00
2C00
2800
3800
3400
7554
7FFD
ENDCHAR
STARTCHAR lacute
ENCODING 314
SWIDTH 240 0
DWIDTH 4 0
BBX 6 15 0 0
BITMAP
01E0
0340
0000
0A00
0A00
0D00
0D00
1C00
2C00
2800
3800
3400
7400
7000
B000
ENDCHAR
STARTCHAR uni013B
ENCODING 315
SWIDTH 526 0
DWIDTH 8 0
BBX 8 16 0 -4
BITMAP
0B00
0A00
0E00
0D00
1D00
1C00
2C00
2800
3800
3400
7554
7FFD
0000
0340
0700
0900
ENDCHAR
STARTCHAR uni013C
ENCODING 316
SWIDTH 240 0
DWIDTH 4 0
BBX 5 16 -1 -4
BITMAP
0280
0280
0340
0340
0700
0B00
0A00
0E00
0D00
1D00
1C00
2C00
0000
2800
7400
6000
ENDCHAR
STARTCHAR Lcaron
ENCODING 317
SWIDTH 526 0
DWIDTH 8 0
BBX 8 12 0 0
BITMAP
0B0D
0A1C
0E24
0D00
1D00
1C00
2C00
2800
3800
3400
7554
7FFD
ENDCHAR
STARTCHAR lcaron
ENCODING 318
SWIDTH 313 0
DWIDTH 5 0
BBX 7 12 0 0
BITMAP
0A34
0A70
0D90
0D00
1C00
2C00
2800
3800
3400
7400
7000
B000
ENDCHAR
STARTCHAR Ldot
ENCODING 319
SWIDTH 526 0
DWIDTH 8 0
BBX 8 12 0 0
BITMAP
0B00
0A00
0E00
0D00
1D20
1C34
2C00
2800
3800
3400
7554
7FFD
ENDCHAR
STARTCHAR ldot
ENCODING 320
SWIDTH 347 0
DWIDTH 6 0
BBX 6 12 0 0
BITMAP
0A00
0A00
0D00
0D00
1C00
2C80
29D0
3800
3400
7400
7000
B000
ENDCHAR
STARTCHAR Lslash
ENCODING 321
SWIDTH 527 0
DWIDTH 8 0
BBX 8 12 0 0
BITMAP
0A00
0A00
0D00
1D00
1E80
7E40
6800
3800
3400
3400
7554
7FFD
ENDCHAR
STARTCHAR lslash
ENCODING 322
SWIDTH 266 0
DWIDTH 4 0
BBX 5 12 0 0
BITMAP
0700
0A00
0A00
0D00
0D00
1E40
7D00
6800
2800
3400
7400
7000
ENDCHAR
STARTCHAR Nacute
ENCODING 323
SWIDTH 696 0
DWIDTH 11 0
BBX 11 15 0 0
BITMAP
0002C0
000A00
000000
0B002C
0B8028
0FC038
0ED034
1DA074
1C7470
2C38B0
281CA0
380EE0
340BD0
7403D0
7002C0
ENDCHAR
STARTCHAR nacute
ENCODING 324
SWIDTH 540 0
DWIDTH 9 0
BBX 8 12 0 0
BITMAP
001D
0074
0000
1DF8
2E5D
280A
380E
340D
740D
701C
B01C
A028
ENDCHAR
STARTCHAR uni0145
ENCODING 325
SWIDTH 696 0
DWIDTH 11 0
BBX 11 16 0 -4
BITMAP
0B002C
0B8028
0FC038
0ED034
1DA074
1C7470
2C38B0
281CA0
380EE0
340BD0
7403D0
7002C0
000000
01C000
028000
024000
ENDCHAR
STARTCHAR uni0146
ENCODING 326
SWIDTH 540 0
DWIDTH 9 0
BBX 8 13 0 -4
BITMAP
1DF8
2E5D
280A
380E
340D
740D
701C
B01C
A028
0000
0700
0A00
0800
ENDCHAR
STARTCHAR Ncaron
ENCODING 327
SWIDTH 696 0
DWIDTH 11 0
BBX 11 15 0 0
BITMAP
0025C0
000E00
000000
0B002C
0B8028
0FC038
0ED034
1DA074
1C7470
2C38B0
281CA0
380EE0
340BD0
7403D0
7002C0
ENDCHAR
STARTCHAR ncaron
ENCODING 328
SWIDTH 540 0
DWIDTH 9 0
BBX 8 12 0 0
BITMAP
0189
00B4
0000
1DF8
2E5D
280A
380E
340D
740D
701C
B01C
A028
ENDCHAR
STARTCHAR napostrophe
ENCODING 329
SWIDTH 540 0
DWIDTH 9 0
BBX 8 12 0 0
BITMAP
2800
3400
6000
1DF8
2E5D
280A
380E
340D
740D
701C
B01C
A028
ENDCHAR
STARTCHAR Eng
ENCODING 330
SWIDTH 676 0
DWIDTH 11 0
BBX 11 15 0 -3
BITMAP
0B0028
0F4038
0FC034
1DD074
1CA070
2C70B0
2838A0
381CD0
340DD0
740BC0
7003C0
700280
000380
001740
003D00
ENDCHAR
STARTCHAR eng
ENCODING 331
SWIDTH 554 0
DWIDTH 9 0
BBX 8 12 0 -3
BITMAP
1DB8
1E5E
280A
280A
340E
340D
701D
701C
A02C
0028
0174
03D0
ENDCHAR
STARTCHAR Omacron
ENCODING 332
SWIDTH 671 0
DWIDTH 11 0
BBX 9 14 1 0
BITMAP
02FF40
000000
02F900
0F5B40
280280
7401C0
B001C0
E001C0
D002C0
D00380
E00740
B00A00
796C00
1BE000
ENDCHAR
STARTCHAR omacron
ENCODING 333
SWIDTH 558 0
DWIDTH 9 0
BBX 8 11 0 0
BITMAP
07FF
0000
06F8
0E5E
280B
3407
7007
700B
740E
2D6C
0BE0
ENDCHAR
STARTCHAR Obreve
ENCODING 334
SWIDTH 671 0
DWIDTH 11 0
BBX 9 15 1 0
BITMAP
01C700
00BD00
000000
02F900
0F5B40
280280
7401C0
B001C0
E001C0
D002C0
D00380
E00740
B00A00
796C00
1BE000
ENDCHAR
STARTCHAR obreve
ENCODING 335
SWIDTH 558 0
DWIDTH 9 0
BBX 8 12 0 0
BITMAP
024A
01B8
0000
06F8
0E5E
280B
3407
7007
700B
740E
2D6C
0BE0
ENDCHAR
STARTCHAR Ohungarumlaut
ENCODING 336
SWIDTH 671 0
DWIDTH 11 0
BBX 10 15 1 0
BITMAP
007AD0
009A00
000000
02F900
0F5B40
280280
7401C0
B001C0
E001C0
D002C0
D00380
E00740
B00A00
796C00
1BE000
ENDCHAR
STARTCHAR ohungarumlaut
ENCODING 337
SWIDTH 558 0
DWIDTH 9 0
BBX 9 12 0 0
BITMAP
00B780
019D00
000000
06F800
0E5E00
280B00
340700
700700
700B00
740E00
2D6C00
0BE000
ENDCHAR
STARTCHAR OE
ENCODING 338
SWIDTH 929 0
DWIDTH 15 0
BBX 15 12 0 0
BITMAP
01BFFFF8
0796D550
0E02C000
1C028000
28038000
3803FFC0
34075540
74070000
740B0000
340A0000
1D5E5540
07FFFFC0
ENDCHAR
STARTCHAR oe
ENCODING 339
SWIDTH 885 0
DWIDTH 14 0
BBX 14 9 0 0
BITMAP
02F82F40
0E5EE5D0
280BC0A0
340740A0
7007FFE0
700B5540
740F4000
297B9680
0BE0BE00
ENDCHAR
STARTCHAR Racute
ENCODING 340
SWIDTH 602 0
DWIDTH 10 0
BBX 10 15 0 0
BITMAP
000B40
001800
000000
0BFE00
0A57C0
0D01D0
0D00D0
1D01C0
1C0780
2FFD00
296C00
381D00
340E00
740B00
700740
ENDCHAR
STARTCHAR racute
ENCODING 341
SWIDTH 333 0
DWIDTH 5 0
BBX 7 12 0 0
BITMAP
00B4
0180
0000
1DE0
2E50
2C00
3800
3400
7400
7000
B000
A000
ENDCHAR
STARTCHAR uni0156
ENCODING 342
SWIDTH 602 0
DWIDTH 10 0
BBX 10 16 0 -4
BITMAP
0BFE00
0A57C0
0D01D0
0D00D0
1D01C0
1C0780
2FFD00
296C00
381D00
340E00
740B00
700740
000000
034000
070000
090000
ENDCHAR
STARTCHAR uni0157
ENCODING 343
SWIDTH 333 0
DWIDTH 5 0
BBX 7 13 -1 -4
BITMAP
0778
0B94
0B00
0E00
0D00
1D00
1C00
2C00
2800
0000
3400
7400
6000
ENDCHAR
STARTCHAR Rcaron
ENCODING 344
SWIDTH 602 0
DWIDTH 10 0
BBX 10 15 0 0
BITMAP
009740
002800
000000
0BFE00
0A57C0
0D01D0
0D00D0
1D01C0
1C0780
2FFD00
296C00
381D00
340E00
740B00
700740
ENDCHAR
STARTCHAR rcaron
ENCODING 345
SWIDTH 333 0
DWIDTH 5 0
BBX 7 12 0 0
BITMAP
0A74
02C0
0000
1DE0
2E50
2C00
3800
3400
7400
7000
B000
A000
ENDCHAR
STARTCHAR Sacute
ENCODING 346
SWIDTH 580 0
DWIDTH 9 0
BBX 9 15 0 0
BITMAP
000B40
001800
000000
01FE00
0B5780
1D01C0
1C0040
0E0000
07E000
00BD00
000B00
500740
B00700
396E00
0BE400
ENDCHAR
STARTCHAR sacute
ENCODING 347
SWIDTH 504 0
DWIDTH 8 0
BBX 8 12 0 0
BITMAP
002D
0074
0000
07E4
1D6C
2809
2D00
0BE0
0078
602C
7978
1BE0
ENDCHAR
STARTCHAR Scircumflex
ENCODING 348
SWIDTH 580 0
DWIDTH 9 0
BBX 9 15 0 0
BITMAP
006E00
01E740
000000
01FE00
0B5780
1D01C0
1C0040
0E0000
07E000
00BD00
000B00
500740
B00700
396E00
0BE400
ENDCHAR
STARTCHAR scircumflex
ENCODING 349
SWIDTH 504 0
DWIDTH 8 0
BBX 8 12 0 0
BITMAP
01B8
079D
0000
07E4
1D6C
2809
2D00
0BE0
0078
602C
7978
1BE0
ENDCHAR
STARTCHAR Scedilla
ENCODING 350
SWIDTH 580 0
DWIDTH 9 0
BBX 9 15 0 -3
BITMAP
01FE00
0B5780
1D01C0
1C0040
0E0000
07E000
00BD00
000B00
500740
B00700
396E00
0BE400
028000
00D000
078000
ENDCHAR
STARTCHAR scedilla
ENCODING 351
SWIDTH 504 0
DWIDTH 8 0
BBX 8 12 0 -3
BITMAP
07E4
1D6C
2809
2D00
0BE0
0078
602C
7978
1BE0
0340
0180
0A40
ENDCHAR
STARTCHAR Scaron
ENCODING 352
SWIDTH 580 0
DWIDTH 9 0
BBX 9 15 0 0
BITMAP
00A740
002D00
000000
01FE00
0B5780
1D01C0
1C0040
0E0000
07E000
00BD00
000B00
500740
B00700
396E00
0BE400
ENDCHAR
STARTCHAR scaron
ENCODING 353
SWIDTH 504 0
DWIDTH 8 0
BBX 8 12 0 0
BITMAP
0289
00B4
0000
07E4
1D6C
2809
2D00
0BE0
0078
602C
7978
1BE0
ENDCHAR
STARTCHAR uni0162
ENCODING 354
SWIDTH 583 0
DWIDTH 9 0
BBX 9 15 1 -3
BITMAP
BFFFC0
15D540
01C000
02C000
028000
038000
034000
074000
070000
0B0000
0A0000
0A0000
0A0000
070000
1D0000
ENDCHAR
STARTCHAR uni0163
ENCODING 355
SWIDTH 321 0
DWIDTH 5 0
BBX 5 14 0 -3
BITMAP
0B00
0A00
7FC0
1D00
1D00
1C00
2C00
2800
2800
2900
1E00
0D00
0700
2D00
ENDCHAR
STARTCHAR Tcaron
ENCODING 356
SWIDTH 583 0
DWIDTH 9 0
BBX 9 15 1 0
BITMAP
025D00
00A000
000000
BFFFC0
15D540
01C000
02C000
028000
038000
034000
074000
070000
0B0000
0A0000
0A0000
ENDCHAR
STARTCHAR tcaron
ENCODING 357
SWIDTH 341 0
DWIDTH 5 0
BBX 7 13 0 0
BITMAP
001C
0028
0B20
0A00
7FC0
1D00
1D00
1C00
2C00
2800
2800
2900
1E00
ENDCHAR
STARTCHAR Tbar
ENCODING 358
SWIDTH 583 0
DWIDTH 9 0
BBX 9 12 1 0
BITMAP
BFFFC0
15D540
01C000
02C000
1FF800
079000
034000
074000
070000
0B0000
0A0000
0A0000
ENDCHAR
STARTCHAR tbar
ENCODING 359
SWIDTH 321 0
DWIDTH 5 0
BBX 5 11 0 0
BITMAP
0B00
0A00
7FC0
0D00
0D00
FFC0
6D00
2800
2800
2900
1E00
ENDCHAR
STARTCHAR Utilde
ENCODING 360
SWIDTH 633 0
DWIDTH 10 0
BBX 10 15 1 0
BITMAP
02E740
071E00
000000
3801D0
3401C0
3402C0
700280
700380
A00340
A00740
D00700
D00A00
E00D00
B97800
1FE000
ENDCHAR
STARTCHAR utilde
ENCODING 361
SWIDTH 539 0
DWIDTH 9 0
BBX 7 12 1 0
BITMAP
0B5C
18B4
0000
701C
701C
A028
A028
D034
D034
D074
E5F0
7EB0
ENDCHAR
STARTCHAR Umacron
ENCODING 362
SWIDTH 633 0
DWIDTH 10 0
BBX 10 12 1 0
BITMAP
3BFFD0
3401C0
3402C0
700280
700380
A00340
A00740
D00700
D00A00
E00D00
B97800
1FE000
ENDCHAR
STARTCHAR umacron
ENCODING 363
SWIDTH 539 0
DWIDTH 9 0
BBX 7 11 1 0
BITMAP
1FFC
0000
701C
701C
A028
A028
D034
D034
D074
E5F0
7EB0
ENDCHAR
STARTCHAR Ubreve
ENCODING 364
SWIDTH 633 0
DWIDTH 10 0
BBX 10 15 1 0
BITMAP
028A00
00B900
000000
3801D0
3401C0
3402C0
700280
700380
A00340
A00740
D00700
D00A00
E00D00
B97800
1FE000
ENDCHAR
STARTCHAR ubreve
ENCODING 365
SWIDTH 539 0
DWIDTH 9 0
BBX 7 12 1 0
BITMAP
0A28
06E0
0000
701C
701C
A028
A028
D034
D034
D074
E5F0
7EB0
ENDCHAR
STARTCHAR Uring
ENCODING 366
SWIDTH 633 0
DWIDTH 10 0
BBX 10 17 1 0
BITMAP
007800
008800
008800
007800
000000
3801D0
3401C0
3402C0
700280
700380
A00340
A00740
D00700
D00A00
E00D00
B97800
1FE000
ENDCHAR
STARTCHAR uring
ENCODING 367
SWIDTH 539 0
DWIDTH 9 0
BBX 7 14 1 0
BITMAP
02D0
0220
0220
02D0
0000
701C
701C
A028
A028
D034
D034
D074
E5F0
7EB0
ENDCHAR
STARTCHAR Uhungarumlaut
ENCODING 368
SWIDTH 633 0
DWIDTH 10 0
BBX 10 15 1 0
BITMAP
007780
01DA00
000000
3801D0
3401C0
3402C0
700280
700380
A00340
A00740
D00700
D00A00
E00D00
B97800
1FE000
ENDCHAR
STARTCHAR uhungarumlaut
ENCODING 369
SWIDTH 539 0
DWIDTH 9 0
BBX 8 12 1 0
BITMAP
02DE
0674
0000
701C
701C
A028
A028
D034
D034
D074
E5F0
7EB0
ENDCHAR
STARTCHAR Uogonek
ENCODING 370
SWIDTH 633 0
DWIDTH 10 0
BBX 10 15 1 -3
BITMAP
2801D0
3801C0
3402C0
740280
700380
B00340
A00740
E00700
D00B00
E00E00
797800
1FE000
034000
070000
03C000
ENDCHAR
STARTCHAR uogonek
ENCODING 371
SWIDTH 539 0
DWIDTH 9 0
BBX 7 12 1 -3
BITMAP
701C
701C
A028
A028
D034
D034
D074
E5F0
7EB0
0180
0340
02D0
ENDCHAR
STARTCHAR Wcircumflex
ENCODING 372
SWIDTH 865 0
DWIDTH 14 0
BBX 14 15 1 0
BITMAP
001B8000
0039D000
00000000
700A01D0
701E02C0
702F0380
743B0740
34730B00
34D34D00
35C35C00
36826800
3B42B400
2E02F000
2D01E000
2C01D000
ENDCHAR
STARTCHAR wcircumflex
ENCODING 373
SWIDTH 733 0
DWIDTH 12 0
BBX 11 12 1 0
BITMAP
00BD00
02DB00
000000
D07028
D0B434
A1F470
A2A4D0
A329C0
6A1A80
7D1F40
781E00
340D00
ENDCHAR
STARTCHAR Ycircumflex
ENCODING 374
SWIDTH 587 0
DWIDTH 9 0
BBX 9 15 1 0
BITMAP
01B800
079D00
000000
B002C0
740740
380E00
1C2C00
0D7400
0AE000
07C000
074000
070000
070000
0A0000
0A0000
ENDCHAR
STARTCHAR ycircumflex
ENCODING 375
SWIDTH 463 0
DWIDTH 7 0
BBX 9 15 -1 -3
BITMAP
007D00
02D700
000000
0D0380
0E0700
0A0E00
0B1C00
072800
077000
03E000
03C000
028000
070000
5D0000
B80000
ENDCHAR
STARTCHAR Ydieresis
ENCODING 376
SWIDTH 587 0
DWIDTH 9 0
BBX 9 15 1 0
BITMAP
020500
074D00
000000
B002C0
740740
380E00
1C2C00
0D7400
0AE000
07C000
074000
070000
070000
0A0000
0A0000
ENDCHAR
STARTCHAR Zacute
ENCODING 377
SWIDTH 585 0
DWIDTH 9 0
BBX 10 15 0 0
BITMAP
000B40
001800
000000
1FFFE0
0556D0
000740
001E00
003800
00B000
02D000
074000
1E0000
380000
B55500
FFFF00
ENDCHAR
STARTCHAR zacute
ENCODING 378
SWIDTH 485 0
DWIDTH 8 0
BBX 8 12 0 0
BITMAP
002C
00A0
0000
2FFE
056C
0074
01D0
0780
0E00
2C00
B550
FFF4
ENDCHAR
STARTCHAR Zdotaccent
ENCODING 379
SWIDTH 585 0
DWIDTH 9 0
BBX 10 15 0 0
BITMAP
001400
002800
000000
1FFFE0
0556D0
000740
001E00
003800
00B000
02D000
074000
1E0000
380000
B55500
FFFF00
ENDCHAR
STARTCHAR zdotaccent
ENCODING 380
SWIDTH 485 0
DWIDTH 8 0
BBX 8 12 0 0
BITMAP
0050
00A0
0000
2FFE
056C
0074
01D0
0780
0E00
2C00
B550
FFF4
ENDCHAR
STARTCHAR Zcaron
ENCODING 381
SWIDTH 585 0
DWIDTH 9 0
BBX 10 15 0 0
BITMAP
00A740
002C00
000000
1FFFE0
0556D0
000740
001E00
003800
00B000
02D000
074000
1E0000
380000
B55500
FFFF00
ENDCHAR
STARTCHAR zcaron
ENCODING 382
SWIDTH 485 0
DWIDTH 8 0
BBX 8 12 0 0
BITMAP
0258
00E0
0000
2FFE
056C
0074
01D0
0780
0E00
2C00
B550
FFF4
ENDCHAR
STARTCHAR longs
ENCODING 383
SWIDTH 245 0
DWIDTH 4 0
BBX 6 12 0 0
BITMAP
02F0
0B50
0E00
0D00
1C00
1C00
2800
2800
3400
7400
7000
B000
ENDCHAR
STARTCHAR uni018F
ENCODING 399
SWIDTH 675 0
DWIDTH 11 0
BBX 10 12 0 0
BITMAP
02FE40
0256D0
0000E0
000070
000070
000070
3FFFF0
7540A0
7400D0
340280
1E5B00
06F800
ENDCHAR
STARTCHAR florin
ENCODING 402
SWIDTH 334 0
DWIDTH 5 0
BBX 9 15 -2 -3
BITMAP
001F40
007500
00A000
03FC00
00E000
00D000
01C000
01C000
02C000
028000
038000
034000
074000
1B0000
790000
ENDCHAR
STARTCHAR Ohorn
ENCODING 416
SWIDTH 670 0
DWIDTH 11 0
BBX 11 13 1 0
BITMAP
00001C
02F928
1E5BE0
380380
7002C0
A002C0
E002C0
D00280
D00340
D00700
A00E00
797800
1BE000
ENDCHAR
STARTCHAR ohorn
ENCODING 417
SWIDTH 559 0
DWIDTH 9 0
BBX 10 10 0 0
BITMAP
000060
02F8A0
0E5F80
280700
340700
700700
700B00
740D00
297800
0BE000
ENDCHAR
STARTCHAR Uhorn
ENCODING 431
SWIDTH 679 0
DWIDTH 11 0
BBX 12 13 1 0
BITMAP
000001
2801D7
3801DA
3402F8
740280
700380
B00340
A00740
E00700
D00B00
E00E00
797C00
1FE000
ENDCHAR
STARTCHAR uhorn
ENCODING 432
SWIDTH 604 0
DWIDTH 10 0
BBX 10 10 1 0
BITMAP
000050
701D90
701F40
A02C00
A02800
D03800
D03400
D07400
E5F000
7EB000
ENDCHAR
STARTCHAR uni01F0
ENCODING 496
SWIDTH 249 0
DWIDTH 4 0
BBX 8 15 -2 -3
BITMAP
025D
00E0
0000
00D0
01C0
01C0
0280
0280
0340
0340
0700
0700
0A00
5D00
B800
ENDCHAR
STARTCHAR Aringacute
ENCODING 506
SWIDTH 637 0
DWIDTH 10 0
BBX 10 17 -1 0
BITMAP
0000A0
000180
000000
000740
000980
000F40
001F00
002B40
007680
00A280
01D2C0
0281C0
0741D0
0BFFD0
1D55E0
3800A0
740070
ENDCHAR
STARTCHAR aringacute
ENCODING 507
SWIDTH 532 0
DWIDTH 9 0
BBX 8 15 0 0
BITMAP
000A
0018
0000
00B4
0098
00B4
06F4
1E6D
280D
000D
1BFD
391C
702C
75B8
2FAC
ENDCHAR
STARTCHAR AEacute
ENCODING 508
SWIDTH 911 0
DWIDTH 15 0
BBX 16 15 -1 0
BITMAP
00001E00
00002400
00000000
0000BFFF
0001F954
0003B400
000A7400
002D7000
00787FF4
00F0B550
02D0A000
07FFE000
1E55D000
3C00D550
B401FFF8
ENDCHAR
STARTCHAR aeacute
ENCODING 509
SWIDTH 823 0
DWIDTH 13 0
BBX 13 12 0 0
BITMAP
0001E000
00034000
00000000
06F4BD00
1E6F9740
281E0280
001D0280
1BFFFF80
782C0000
A02C0000
B5BE5A00
2F82F900
ENDCHAR
STARTCHAR Oslashacute
ENCODING 510
SWIDTH 671 0
DWIDTH 11 0
BBX 11 16 0 -1
BITMAP
0002C0
000A00
000004
00BE68
03D6E0
0A00F0
1D02B0
2C0A70
381870
3430B0
3490E0
3681D0
2E0280
1E5B00
3AF800
500000
ENDCHAR
STARTCHAR oslashacute
ENCODING 511
SWIDTH 554 0
DWIDTH 9 0
BBX 8 13 0 -1
BITMAP
002D
0060
0002
02F9
0E6E
282B
3467
70C7
724B
760D
3D78
2FE0
6000
ENDCHAR
STARTCHAR uni0218
ENCODING 536
SWIDTH 580 0
DWIDTH 9 0
BBX 9 16 0 -4
BITMAP
01FE00
0B5780
1D01C0
1C0040
0E0000
07E000
00BD00
000B00
500740
B00700
396E00
0BE400
000000
034000
070000
090000
ENDCHAR
STARTCHAR uni0219
ENCODING 537
SWIDTH 504 0
DWIDTH 8 0
BBX 8 13 0 -4
BITMAP
07E4
1D6C
2809
2D00
0BE0
0078
602C
7978
1BE0
0000
0700
0A00
0800
ENDCHAR
STARTCHAR uni021A
ENCODING 538
SWIDTH 583 0
DWIDTH 9 0
BBX 9 16 1 -4
BITMAP
BFFFC0
15D540
01C000
02C000
028000
038000
034000
074000
070000
0B0000
0A0000
0A0000
000000
0D0000
1C0000
240000
ENDCHAR
STARTCHAR uni021B
ENCODING 539
SWIDTH 321 0
DWIDTH 5 0
BBX 5 15 0 -4
BITMAP
0B00
0A00
7FC0
1D00
1D00
1C00
2C00
2800
2800
2900
1E00
0000
1C00
2800
2000
ENDCHAR
STARTCHAR uni0237
ENCODING 567
SWIDTH 249 0
DWIDTH 4 0
BBX 6 12 -2 -3
BITMAP
00D0
01C0
01C0
0280
0280
0340
0340
0700
0700
0A00
5D00
B800
ENDCHAR
STARTCHAR uni0259
ENCODING 601
SWIDTH 516 0
DWIDTH 8 0
BBX 8 9 0 0
BITMAP
0BE4
196C
000D
000A
7FFE
755D
702C
3974
1BD0
ENDCHAR
STARTCHAR uni02BC
ENCODING 700
SWIDTH 198 0
DWIDTH 3 0
BBX 3 4 1 8
BITMAP
28
34
70
90
ENDCHAR
STARTCHAR circumflex
ENCODING 710
SWIDTH 461 0
DWIDTH 7 0
BBX 5 2 2 10
BITMAP
2E40
B680
ENDCHAR
STARTCHAR caron
ENCODING 711
SWIDTH 435 0
DWIDTH 7 0
BBX 5 2 2 10
BITMAP
6280
2D00
ENDCHAR
STARTCHAR uni02C9
ENCODING 713
SWIDTH 449 0
DWIDTH 7 0
BBX 5 1 2 10
BITMAP
FFC0
ENDCHAR
STARTCHAR breve
ENCODING 728
SWIDTH 418 0
DWIDTH 7 0
BBX 5 2 2 10
BITMAP
D240
7E00
ENDCHAR
STARTCHAR dotaccent
ENCODING 729
SWIDTH 240 0
DWIDTH 4 0
BBX 2 2 2 10
BITMAP
50
A0
ENDCHAR
STARTCHAR ring
ENCODING 730
SWIDTH 329 0
DWIDTH 5 0
BBX 4 4 2 9
BITMAP
78
89
89
78
ENDCHAR
STARTCHAR ogonek
ENCODING 731
SWIDTH 267 0
DWIDTH 4 0
BBX 3 3 -1 -3
BITMAP
18
60
78
ENDCHAR
STARTCHAR tilde
ENCODING 732
SWIDTH 462 0
DWIDTH 7 0
BBX 6 2 2 10
BITMAP
B9D0
C780
ENDCHAR
STARTCHAR hungarumlaut
ENCODING 733
SWIDTH 366 0
DWIDTH 6 0
BBX 5 2 2 10
BITMAP
7680
DA00
ENDCHAR
STARTCHAR uni02F3
ENCODING 755
SWIDTH 290 0
DWIDTH 5 0
BBX 3 3 0 -4
BITMAP
B0
94
B0
ENDCHAR
STARTCHAR gravecomb
ENCODING 768
SWIDTH 0 0
DWIDTH 0 0
BBX 3 2 -5 10
BITMAP
A0
24
ENDCHAR
STARTCHAR acutecomb
ENCODING 769
SWIDTH 0 0
DWIDTH 0 0
BBX 3 2 -4 10
BITMAP
28
A0
ENDCHAR
STARTCHAR tildecomb
ENCODING 771
SWIDTH 0 0
DWIDTH 0 0
BBX 6 2 -6 10
BITMAP
7DA0
96C0
ENDCHAR
STARTCHAR hookabovecomb
ENCODING 777
SWIDTH 0 0
DWIDTH 0 0
BBX 3 3 -4 10
BITMAP
A0
74
D0
ENDCHAR
STARTCHAR uni030F
ENCODING 783
SWIDTH 0 0
DWIDTH 0 0
BBX 5 2 -6 10
BITMAP
B740
2A80
ENDCHAR
STARTCHAR dotbelowcomb
ENCODING 803
SWIDTH 0 0
DWIDTH 0 0
BBX 2 2 -7 -3
BITMAP
70
60
ENDCHAR
STARTCHAR tonos
ENCODING 900
SWIDTH 253 0
DWIDTH 4 0
BBX 3 3 2 10
BITMAP
34
70
50
ENDCHAR
STARTCHAR dieresistonos
ENCODING 901
SWIDTH 495 0
DWIDTH 8 0
BBX 6 3 2 10
BITMAP
0740
9650
D0A0
ENDCHAR
STARTCHAR Alphatonos
ENCODING 902
SWIDTH 637 0
DWIDTH 10 0
BBX 10 13 -1 0
BITMAP
00D000
01CB00
015F00
002B40
007680
00A280
01D2C0
0281C0
0741D0
0BFFD0
1D55E0
3800A0
740070
ENDCHAR
STARTCHAR anoteleia
ENCODING 903
SWIDTH 258 0
DWIDTH 4 0
BBX 2 2 1 5
BITMAP
70
60
ENDCHAR
STARTCHAR Epsilontonos
ENCODING 904
SWIDTH 556 0
DWIDTH 9 0
BBX 11 13 -1 0
BITMAP
340000
62FFF4
529550
034000
034000
070000
07FF80
0B5500
0A0000
0D0000
0D0000
1D5500
1FFF80
ENDCHAR
STARTCHAR Etatonos
ENCODING 905
SWIDTH 696 0
DWIDTH 11 0
BBX 12 13 -1 0
BITMAP
340000
72C00B
52800A
03800E
03400D
07401D
07001C
0BFFFC
0A5568
0E0038
0D0034
1D0074
1C0070
ENDCHAR
STARTCHAR Iotatonos
ENCODING 906
SWIDTH 268 0
DWIDTH 4 0
BBX 5 13 -1 0
BITMAP
3400
72C0
6280
0380
0340
0740
0700
0B00
0A00
0E00
0D00
1D00
1C00
ENDCHAR
STARTCHAR Omicrontonos
ENCODING 908
SWIDTH 681 0
DWIDTH 11 0
BBX 10 13 1 0
BITMAP
A00000
D1FD00
8B5B40
2C02C0
3401C0
7001D0
A001D0
A001C0
E00280
A00340
B00B00
396D00
1BE400
ENDCHAR
STARTCHAR Upsilontonos
ENCODING 910
SWIDTH 636 0
DWIDTH 10 0
BBX 12 13 -1 0
BITMAP
700000
A2C00E
91C02D
00D074
00A0A0
0071D0
003B40
002E00
001D00
002C00
002800
003800
003400
ENDCHAR
STARTCHAR Omegatonos
ENCODING 911
SWIDTH 659 0
DWIDTH 11 0
BBX 10 13 0 0
BITMAP
280000
34BE00
2396C0
0A00D0
1D00A0
2C00A0
2800A0
2800E0
3800D0
2802C0
1C0340
1E1E40
BF3F80
ENDCHAR
STARTCHAR iotadieresistonos
ENCODING 912
SWIDTH 318 0
DWIDTH 5 0
BBX 6 13 0 0
BITMAP
0280
5260
A070
0000
0E00
0D00
1D00
1C00
2C00
2800
2800
2900
1E00
ENDCHAR
STARTCHAR Alpha
ENCODING 913
SWIDTH 637 0
DWIDTH 10 0
BBX 10 12 -1 0
BITMAP
000B00
001F00
002B40
007680
00A280
01D2C0
0281C0
0741D0
0BFFD0
1D55E0
3800A0
740070
ENDCHAR
STARTCHAR Beta
ENCODING 914
SWIDTH 608 0
DWIDTH 10 0
BBX 9 12 0 0
BITMAP
0BFE00
0A5780
0D01C0
0D02C0
1C0780
1FFE00
2D5B00
280340
340340
340740
755E00
7FF400
ENDCHAR
STARTCHAR Gamma
ENCODING 915
SWIDTH 544 0
DWIDTH 9 0
BBX 10 12 0 0
BITMAP
0BFFD0
0A5540
0E0000
0D0000
1D0000
1C0000
2C0000
280000
380000
340000
740000
700000
ENDCHAR
STARTCHAR uni0394
ENCODING 916
SWIDTH 688 0
DWIDTH 11 0
BBX 11 12 -1 0
BITMAP
000740
000B80
001E80
0039C0
0070D0
00D0D0
02C0A0
0340A0
0B0070
1D0074
2D5574
7FFFF8
ENDCHAR
STARTCHAR Epsilon
ENCODING 917
SWIDTH 556 0
DWIDTH 9 0
BBX 10 12 0 0
BITMAP
0BFFD0
0A5540
0D0000
0D0000
1C0000
1FFE00
2D5400
280000
340000
340000
755400
7FFE00
ENDCHAR
STARTCHAR Zeta
ENCODING 918
SWIDTH 585 0
DWIDTH 9 0
BBX 10 12 0 0
BITMAP
1FFFE0
0556D0
000740
001E00
003800
00B000
02D000
074000
1E0000
380000
B55500
FFFF00
ENDCHAR
STARTCHAR Eta
ENCODING 919
SWIDTH 696 0
DWIDTH 11 0
BBX 11 12 0 0
BITMAP
0B002C
0A0028
0E0038
0D0034
1D0074
1C0070
2FFFF0
2955A0
3800E0
3400D0
7401D0
7001C0
ENDCHAR
STARTCHAR Theta
ENCODING 920
SWIDTH 664 0
DWIDTH 11 0
BBX 9 12 1 0
BITMAP
02F900
1E5B00
280380
700280
A002C0
E002C0
D7F680
D15380
D00740
A00E00
797C00
1FE000
ENDCHAR
STARTCHAR Iota
ENCODING 921
SWIDTH 268 0
DWIDTH 4 0
BBX 4 12 0 0
BITMAP
0B
0A
0E
0D
1D
1C
2C
28
38
34
74
70
ENDCHAR
STARTCHAR Kappa
ENCODING 922
SWIDTH 612 0
DWIDTH 10 0
BBX 11 12 0 0
BITMAP
0A00B4
0A02D0
0E0B40
0D2D00
1DB400
1EE000
2EB000
283400
342C00
340E00
740B00
700380
ENDCHAR
STARTCHAR Lambda
ENCODING 923
SWIDTH 640 0
DWIDTH 10 0
BBX 10 12 -1 0
BITMAP
000B00
001F00
002F40
007740
00B280
01D280
02C2C0
0741C0
0B01D0
1D00D0
2C00E0
7400A0
ENDCHAR
STARTCHAR Mu
ENCODING 924
SWIDTH 851 0
DWIDTH 14 0
BBX 14 12 0 0
BITMAP
0B4002D0
0B8007D0
0F800BC0
0EC01EC0
1DD03A80
1CD07380
28A0E340
28A2C740
38734700
343B0B00
743D0A00
70280E00
ENDCHAR
STARTCHAR Nu
ENCODING 925
SWIDTH 696 0
DWIDTH 11 0
BBX 11 12 0 0
BITMAP
0B002C
0B8028
0FC038
0ED034
1DA074
1C7470
2C38B0
281CA0
380EE0
340BD0
7403D0
7002C0
ENDCHAR
STARTCHAR Xi
ENCODING 926
SWIDTH 558 0
DWIDTH 9 0
BBX 9 12 0 0
BITMAP
0FFFC0
055540
000000
000000
000000
1FFE00
055400
000000
000000
000000
155400
BFFD00
ENDCHAR
STARTCHAR Omicron
ENCODING 927
SWIDTH 671 0
DWIDTH 11 0
BBX 9 12 1 0
BITMAP
02F900
0F5B40
280280
7401C0
B001C0
E001C0
D002C0
D00380
E00740
B00A00
796C00
1BE000
ENDCHAR
STARTCHAR Pi
ENCODING 928
SWIDTH 696 0
DWIDTH 11 0
BBX 11 12 0 0
BITMAP
0BFFF8
0A5578
0E0034
0D0074
1D0070
1C00B0
2C00A0
2800E0
3800D0
3400D0
7401C0
7001C0
ENDCHAR
STARTCHAR Rho
ENCODING 929
SWIDTH 616 0
DWIDTH 10 0
BBX 10 12 0 0
BITMAP
0BFE40
0A56D0
0D00A0
0D00A0
1C00E0
1C06C0
2FFE40
295000
340000
340000
740000
700000
ENDCHAR
STARTCHAR Sigma
ENCODING 931
SWIDTH 558 0
DWIDTH 9 0
BBX 10 12 -1 0
BITMAP
07FFF0
079550
02C000
00E000
007000
003800
007800
00E000
038000
0B0000
2D5500
7FFF80
ENDCHAR
STARTCHAR Tau
ENCODING 932
SWIDTH 583 0
DWIDTH 9 0
BBX 9 12 1 0
BITMAP
BFFFC0
15D540
01C000
02C000
028000
038000
034000
074000
070000
0B0000
0A0000
0A0000
ENDCHAR
STARTCHAR Upsilon
ENCODING 933
SWIDTH 587 0
DWIDTH 9 0
BBX 9 12 1 0
BITMAP
B002C0
740740
380E00
1C2C00
0D7400
0AE000
07C000
074000
070000
070000
0A0000
0A0000
ENDCHAR
STARTCHAR Phi
ENCODING 934
SWIDTH 699 0
DWIDTH 11 0
BBX 11 12 0 0
BITMAP
000D00
001D00
01BF80
0B6DB0
2C2C38
382828
743828
743438
3874B0
1EB6D0
07FE40
00A000
ENDCHAR
STARTCHAR Chi
ENCODING 935
SWIDTH 612 0
DWIDTH 10 0
BBX 10 12 0 0
BITMAP
1D00B0
0B02D0
074780
038E00
01EC00
00F400
01F000
03B800
0B2C00
1D1D00
780B00
E00740
ENDCHAR
STARTCHAR Psi
ENCODING 936
SWIDTH 675 0
DWIDTH 11 0
BBX 10 12 1 0
BITMAP
347470
747070
70B0B0
B0A0A0
A0E0E0
A0D1D0
B1D2C0
79DB40
1FF900
028000
038000
034000
ENDCHAR
STARTCHAR uni03A9
ENCODING 937
SWIDTH 649 0
DWIDTH 10 0
BBX 10 12 0 0
BITMAP
00BE00
079780
0E00D0
1C00E0
2800E0
3800E0
3400D0
3401C0
340280
280700
5E2E00
FF3F80
ENDCHAR
STARTCHAR Iotadieresis
ENCODING 938
SWIDTH 268 0
DWIDTH 4 0
BBX 6 15 0 0
BITMAP
1460
2870
0000
0B00
0A00
0E00
0D00
1D00
1C00
2C00
2800
3800
3400
7400
7000
ENDCHAR
STARTCHAR Upsilondieresis
ENCODING 939
SWIDTH 587 0
DWIDTH 9 0
BBX 9 15 1 0
BITMAP
020500
074D00
000000
B002C0
740740
380E00
1C2C00
0D7400
0AE000
07C000
074000
070000
070000
0A0000
0A0000
ENDCHAR
STARTCHAR alphatonos
ENCODING 940
SWIDTH 552 0
DWIDTH 9 0
BBX 9 13 0 0
BITMAP
001C00
002800
002400
000000
06E740
0E5F00
2C0B00
340B00
740A00
700E00
741D00
397E00
1B9B00
ENDCHAR
STARTCHAR epsilontonos
ENCODING 941
SWIDTH 527 0
DWIDTH 8 0
BBX 8 13 0 0
BITMAP
0028
0030
0060
0000
0BF4
2D5D
2805
0FE0
3940
7000
B018
7978
1FE0
ENDCHAR
STARTCHAR etatonos
ENCODING 942
SWIDTH 554 0
DWIDTH 9 0
BBX 8 16 0 -3
BITMAP
0028
0034
0020
0000
1DF8
1E5E
2C0A
280A
340E
340D
701D
701C
A02C
0028
0038
0034
ENDCHAR
STARTCHAR iotatonos
ENCODING 943
SWIDTH 318 0
DWIDTH 5 0
BBX 4 13 1 0
BITMAP
0A
0C
18
00
38
34
74
70
B0
A0
A0
A4
78
ENDCHAR
STARTCHAR upsilondieresistonos
ENCODING 944
SWIDTH 533 0
DWIDTH 9 0
BBX 7 13 1 0
BITMAP
00E0
1598
281C
0000
7438
7028
B02C
A028
E028
D034
D070
A5D0
2F40
ENDCHAR
STARTCHAR alpha
ENCODING 945
SWIDTH 552 0
DWIDTH 9 0
BBX 9 9 0 0
BITMAP
06E740
0E5F00
2C0B00
340B00
740A00
700E00
741D00
397E00
1B9B00
ENDCHAR
STARTCHAR beta
ENCODING 946
SWIDTH 579 0
DWIDTH 9 0
BBX 9 15 0 -3
BITMAP
01B900
075B00
0E0340
1D0340
1C0B00
2CBC00
285E00
380700
340700
740A00
796D00
BBE400
A00000
E00000
D00000
ENDCHAR
STARTCHAR gamma
ENCODING 947
SWIDTH 490 0
DWIDTH 8 0
BBX 7 12 1 -3
BITMAP
E02C
A034
B0B0
70D0
32C0
3740
2E00
2D00
2C00
2800
3800
3400
ENDCHAR
STARTCHAR delta
ENCODING 948
SWIDTH 554 0
DWIDTH 9 0
BBX 8 12 0 0
BITMAP
01BE
0395
0700
03D0
02F8
1D1E
380B
7407
700A
740E
3968
0BE0
ENDCHAR
STARTCHAR epsilon
ENCODING 949
SWIDTH 527 0
DWIDTH 8 0
BBX 8 9 0 0
BITMAP
0BF8
2D5D
2805
0FE0
3900
7000
B018
7978
1BE0
ENDCHAR
STARTCHAR zeta
ENCODING 950
SWIDTH 507 0
DWIDTH 8 0
BBX 8 15 1 -3
BITMAP
3FFD
1578
00B0
02C0
0B40
1D00
3800
7000
A000
E000
B400
2F40
02C0
0280
0200
ENDCHAR
STARTCHAR eta
ENCODING 951
SWIDTH 554 0
DWIDTH 9 0
BBX 8 12 0 -3
BITMAP
1DF8
1E5E
2C0A
280A
340E
340D
701D
701C
A02C
0028
0038
0034
ENDCHAR
STARTCHAR theta
ENCODING 952
SWIDTH 557 0
DWIDTH 9 0
BBX 8 12 1 0
BITMAP
07E0
1D68
341C
700D
A00D
BFFC
E56C
D028
D038
D074
B5E0
2F80
ENDCHAR
STARTCHAR iota
ENCODING 953
SWIDTH 318 0
DWIDTH 5 0
BBX 3 9 1 0
BITMAP
38
34
74
70
B0
A0
A0
A4
78
ENDCHAR
STARTCHAR kappa
ENCODING 954
SWIDTH 544 0
DWIDTH 9 0
BBX 9 9 0 0
BITMAP
1D0B40
1C1D00
2C7400
29D000
3F8000
3AC000
74E000
707400
B02C00
ENDCHAR
STARTCHAR lambda
ENCODING 955
SWIDTH 541 0
DWIDTH 9 0
BBX 9 12 -1 0
BITMAP
02D000
00B000
007000
007400
00B400
00F800
02EC00
075C00
0B0D00
1D0D00
2C0B00
740740
ENDCHAR
STARTCHAR uni03BC
ENCODING 956
SWIDTH 554 0
DWIDTH 9 0
BBX 9 12 0 -3
BITMAP
1C0740
1C0700
2C0B00
280A00
380E00
340D00
741D00
797C00
BBAC00
A00000
D00000
D00000
ENDCHAR
STARTCHAR nu
ENCODING 957
SWIDTH 474 0
DWIDTH 8 0
BBX 7 9 1 0
BITMAP
D038
D070
A0A0
61D0
7280
3740
3A00
2D00
2800
ENDCHAR
STARTCHAR xi
ENCODING 958
SWIDTH 480 0
DWIDTH 8 0
BBX 8 15 0 -3
BITMAP
01BE
0B95
0E00
0A40
02F8
0E50
3800
7400
7000
3400
2E00
06E0
0074
00B0
0090
ENDCHAR
STARTCHAR omicron
ENCODING 959
SWIDTH 558 0
DWIDTH 9 0
BBX 8 9 0 0
BITMAP
06F8
0E5E
280B
3407
7007
700B
740E
2D6C
0BE0
ENDCHAR
STARTCHAR pi
ENCODING 960
SWIDTH 582 0
DWIDTH 9 0
BBX 9 9 1 0
BITMAP
FFFF40
796D00
742800
703800
703400
A07400
A07000
D07400
D02D00
ENDCHAR
STARTCHAR rho
ENCODING 961
SWIDTH 554 0
DWIDTH 9 0
BBX 9 12 -1 -3
BITMAP
00BE00
029740
070280
0A01C0
0D02C0
1D0280
1C0340
2E5F00
29F800
380000
340000
740000
ENDCHAR
STARTCHAR sigma1
ENCODING 962
SWIDTH 526 0
DWIDTH 8 0
BBX 8 12 0 -3
BITMAP
02F4
0E5D
2C0A
3400
7400
7400
3800
1E40
06E0
0070
00A0
0080
ENDCHAR
STARTCHAR sigma
ENCODING 963
SWIDTH 554 0
DWIDTH 9 0
BBX 10 9 0 0
BITMAP
06FFD0
0E5D40
280A00
340700
700700
700A00
740D00
297800
0BE000
ENDCHAR
STARTCHAR tau
ENCODING 964
SWIDTH 510 0
DWIDTH 8 0
BBX 7 9 1 0
BITMAP
BFFC
1750
0B00
0A00
0A00
0D00
0D00
0E40
0B80
ENDCHAR
STARTCHAR upsilon
ENCODING 965
SWIDTH 533 0
DWIDTH 9 0
BBX 7 9 1 0
BITMAP
7438
7028
B02C
A028
E028
D034
D070
A5D0
2F40
ENDCHAR
STARTCHAR phi
ENCODING 966
SWIDTH 688 0
DWIDTH 11 0
BBX 11 13 0 -4
BITMAP
061F80
1E29E0
2C3470
343434
747074
747070
34A0E0
2DA780
07F900
00D000
01D000
01C000
02C000
ENDCHAR
STARTCHAR chi
ENCODING 967
SWIDTH 485 0
DWIDTH 8 0
BBX 10 12 -1 -3
BITMAP
0B41D0
068280
01C700
00DD00
00B800
00B400
00F000
02F400
076800
0E1C00
2C0E00
740B40
ENDCHAR
STARTCHAR psi
ENCODING 968
SWIDTH 684 0
DWIDTH 11 0
BBX 10 13 1 -4
BITMAP
B0A1C0
A0A0D0
E0D0D0
D0D0D0
D1C0D0
D2C1C0
E28380
779E00
1FE400
034000
070000
070000
0A0000
ENDCHAR
STARTCHAR omega
ENCODING 969
SWIDTH 803 0
DWIDTH 13 0
BBX 11 9 1 0
BITMAP
280038
740028
B0102C
D07428
D07028
D0B038
D0F074
A6B5A0
6E1F80
ENDCHAR
STARTCHAR iotadieresis
ENCODING 970
SWIDTH 318 0
DWIDTH 5 0
BBX 5 12 1 0
BITMAP
8140
D280
0000
3800
3400
7400
7000
B000
A000
A000
A400
7800
ENDCHAR
STARTCHAR upsilondieresis
ENCODING 971
SWIDTH 533 0
DWIDTH 9 0
BBX 7 12 1 0
BITMAP
0814
1D34
0000
7438
7028
B02C
A028
E028
D034
D070
A5D0
2F40
ENDCHAR
STARTCHAR omicrontonos
ENCODING 972
SWIDTH 558 0
DWIDTH 9 0
BBX 8 13 0 0
BITMAP
0028
0034
0060
0000
06F8
0E5E
280B
3407
7007
700B
740E
2D6C
0BE0
ENDCHAR
STARTCHAR upsilontonos
ENCODING 973
SWIDTH 533 0
DWIDTH 9 0
BBX 7 13 1 0
BITMAP
00D0
01C0
0180
0000
7438
7028
B02C
A028
E028
D034
D070
A5D0
2F40
ENDCHAR
STARTCHAR omegatonos
ENCODING 974
SWIDTH 803 0
DWIDTH 13 0
BBX 11 13 1 0
BITMAP
000A00
000D00
000800
000000
280038
740028
B0102C
D07428
D07028
D0B038
D0F074
A6B5A0
6E1F80
ENDCHAR
STARTCHAR theta1
ENCODING 977
SWIDTH 565 0
DWIDTH 9 0
BBX 9 12 0 0
BITMAP
007D00
01DB00
028340
028740
02C700
15EB00
347F80
340E00
740D00
741C00
397800
0BE000
ENDCHAR
STARTCHAR Upsilon1
ENCODING 978
SWIDTH 520 0
DWIDTH 8 0
BBX 9 12 1 0
BITMAP
E00B40
741E00
282800
287000
1CE000
0EC000
0B4000
0B0000
0A0000
0D0000
0D0000
1C0000
ENDCHAR
STARTCHAR omega1
ENCODING 982
SWIDTH 766 0
DWIDTH 12 0
BBX 12 9 1 0
BITMAP
FFFFFD
755574
B00034
E07034
D0A074
D0A070
D0E0A0
E6B5D0
7E1F40
ENDCHAR
STARTCHAR uni0400
ENCODING 1024
SWIDTH 556 0
DWIDTH 9 0
BBX 10 15 0 0
BITMAP
00B000
002400
000000
0BFFD0
0A5540
0D0000
0D0000
1C0000
1FFE00
2D5400
280000
340000
340000
755400
7FFE00
ENDCHAR
STARTCHAR uni0401
ENCODING 1025
SWIDTH 556 0
DWIDTH 9 0
BBX 10 15 0 0
BITMAP
008140
00D240
000000
0BFFD0
0A5540
0D0000
0D0000
1C0000
1FFE00
2D5400
280000
340000
340000
755400
7FFE00
ENDCHAR
STARTCHAR uni0402
ENCODING 1026
SWIDTH 731 0
DWIDTH 12 0
BBX 10 12 1 0
BITMAP
BFFFC0
16D540
028000
038000
034000
07BE40
0796D0
0B00A0
0A00A0
0E00E0
0D06C0
1D1E00
ENDCHAR
STARTCHAR uni0403
ENCODING 1027
SWIDTH 544 0
DWIDTH 9 0
BBX 10 15 0 0
BITMAP
000B40
001D00
000000
0BFFD0
0A5540
0E0000
0D0000
1D0000
1C0000
2C0000
280000
380000
340000
740000
700000
ENDCHAR
STARTCHAR uni0404
ENCODING 1028
SWIDTH 658 0
DWIDTH 11 0
BBX 9 12 1 0
BITMAP
02F900
0F5B40
280280
740180
B00000
BFF000
E55000
D00000
E00600
A00A00
796C00
1BE000
ENDCHAR
STARTCHAR uni0405
ENCODING 1029
SWIDTH 580 0
DWIDTH 9 0
BBX 9 12 0 0
BITMAP
01FE00
0B5780
1D01C0
1C0040
0E0000
07E000
00BD00
000B00
500740
B00700
396E00
0BE400
ENDCHAR
STARTCHAR uni0406
ENCODING 1030
SWIDTH 268 0
DWIDTH 4 0
BBX 4 12 0 0
BITMAP
0B
0A
0E
0D
1D
1C
2C
28
38
34
74
70
ENDCHAR
STARTCHAR uni0407
ENCODING 1031
SWIDTH 268 0
DWIDTH 4 0
BBX 6 15 0 0
BITMAP
1460
2870
0000
0B00
0A00
0E00
0D00
1D00
1C00
2C00
2800
3800
3400
7400
7000
ENDCHAR
STARTCHAR uni0408
ENCODING 1032
SWIDTH 540 0
DWIDTH 9 0
BBX 9 12 0 0
BITMAP
000340
000340
000740
000700
000B00
000A00
000E00
000D00
501D00
A02C00
75B400
1F9000
ENDCHAR
STARTCHAR uni0409
ENCODING 1033
SWIDTH 1043 0
DWIDTH 17 0
BBX 17 12 -1 0
BITMAP
003FFE0000
00755E0000
00700D0000
00A01D0000
00E01C0000
00D02FF900
01C0295B40
01C0380280
0280340280
0340740380
1E00755F00
7800BFF800
ENDCHAR
STARTCHAR uni040A
ENCODING 1034
SWIDTH 1052 0
DWIDTH 17 0
BBX 16 12 0 0
BITMAP
0B002800
0A003800
0E003400
0D007400
1D007000
1FFFFFE4
2D55A56D
2800E00A
3800D00B
3401D00E
7401D57C
7001FFE0
ENDCHAR
STARTCHAR uni040B
ENCODING 1035
SWIDTH 793 0
DWIDTH 13 0
BBX 10 12 1 0
BITMAP
7FFFC0
16D540
028000
038000
034000
07FF80
0795E0
0B0070
0B0070
0E00B0
0D00A0
1D00E0
ENDCHAR
STARTCHAR uni040C
ENCODING 1036
SWIDTH 612 0
DWIDTH 10 0
BBX 11 15 0 0
BITMAP
000B40
002800
000000
0A00B4
0A02D0
0E0B40
0D2D00
1DB400
1EE000
2EB000
283400
342C00
340E00
740B00
700380
ENDCHAR
STARTCHAR uni040D
ENCODING 1037
SWIDTH 696 0
DWIDTH 11 0
BBX 11 15 0 0
BITMAP
002C00
000900
000000
0B0038
0A00B8
0E02F4
0D07B4
1D0E70
1C2CB0
2CB4A0
29D0E0
3B80D0
3F00D0
7D01C0
7401C0
ENDCHAR
STARTCHAR uni040E
ENCODING 1038
SWIDTH 614 0
DWIDTH 10 0
BBX 10 15 1 0
BITMAP
028A00
00B800
000000
3402D0
280380
2C0B00
1D1E00
0E2C00
0A7400
0BF000
07D000
038000
074000
5E0000
B80000
ENDCHAR
STARTCHAR uni040F
ENCODING 1039
SWIDTH 696 0
DWIDTH 11 0
BBX 11 15 0 -3
BITMAP
0B0028
0A0038
0E0034
0D0074
1D0070
1C0070
2C00A0
2800A0
3800D0
3400D0
7555C0
7FFFC0
00D000
01D000
01C000
ENDCHAR
STARTCHAR uni0410
ENCODING 1040
SWIDTH 637 0
DWIDTH 10 0
BBX 10 12 -1 0
BITMAP
000B00
001F00
002B40
007680
00A280
01D2C0
0281C0
0741D0
0BFFD0
1D55E0
3800A0
740070
ENDCHAR
STARTCHAR uni0411
ENCODING 1041
SWIDTH 616 0
DWIDTH 10 0
BBX 9 12 0 0
BITMAP
0BFFC0
0E5540
0D0000
1D0000
1C0000
2FFD00
295B40
3802C0
3402C0
740380
755F00
BFF800
ENDCHAR
STARTCHAR uni0412
ENCODING 1042
SWIDTH 608 0
DWIDTH 10 0
BBX 9 12 0 0
BITMAP
0BFE00
0A5780
0D01C0
0D02C0
1C0780
1FFE00
2D5B00
280340
340340
340740
755E00
7FF400
ENDCHAR
STARTCHAR uni0413
ENCODING 1043
SWIDTH 544 0
DWIDTH 9 0
BBX 10 12 0 0
BITMAP
0BFFD0
0A5540
0E0000
0D0000
1D0000
1C0000
2C0000
280000
380000
340000
740000
700000
ENDCHAR
STARTCHAR uni0414
ENCODING 1044
SWIDTH 734 0
DWIDTH 12 0
BBX 12 15 -1 -3
BITMAP
002FFF
00395E
00740E
00700D
00B01D
00A01C
00D02C
01C028
028038
074034
1E5574
7FFFFE
B0000D
A0001D
E0001C
ENDCHAR
STARTCHAR uni0415
ENCODING 1045
SWIDTH 556 0
DWIDTH 9 0
BBX 10 12 0 0
BITMAP
0BFFD0
0A5540
0D0000
0D0000
1C0000
1FFE00
2D5400
280000
340000
340000
755400
7FFE00
ENDCHAR
STARTCHAR uni0416
ENCODING 1046
SWIDTH 885 0
DWIDTH 14 0
BBX 16 12 -1 0
BITMAP
0380B01E
02C0A02C
01D0A074
00E0E0E0
00B0D280
0075D740
003FFE00
00B6DB00
02D28740
0B4382C0
1E0341D0
780700B0
ENDCHAR
STARTCHAR uni0417
ENCODING 1047
SWIDTH 580 0
DWIDTH 9 0
BBX 9 12 0 0
BITMAP
01FE00
0B5780
1D01C0
0002C0
000740
01FD00
005E00
000740
500740
B00B00
396D00
1BE400
ENDCHAR
STARTCHAR uni0418
ENCODING 1048
SWIDTH 696 0
DWIDTH 11 0
BBX 11 12 0 0
BITMAP
0B0038
0A00B8
0E02F4
0D07B4
1D0E70
1C2CB0
2CB4A0
29D0E0
3B80D0
3F00D0
7D01C0
7401C0
ENDCHAR
STARTCHAR uni0419
ENCODING 1049
SWIDTH 696 0
DWIDTH 11 0
BBX 11 15 0 0
BITMAP
0034D0
001F80
000000
0B0038
0A00B8
0E02F4
0D07B4
1D0E70
1C2CB0
2CB4A0
29D0E0
3B80D0
3F00D0
7D01C0
7401C0
ENDCHAR
STARTCHAR uni041A
ENCODING 1050
SWIDTH 628 0
DWIDTH 10 0
BBX 11 12 0 0
BITMAP
0B00B4
0A02D0
0E0740
0D1E00
1D7800
1FE000
2DB000
283800
382D00
340E00
740740
700380
ENDCHAR
STARTCHAR uni041B
ENCODING 1051
SWIDTH 691 0
DWIDTH 11 0
BBX 12 12 -1 0
BITMAP
003FFE
00755E
00B00D
00A01D
00E01C
00D02C
01C028
01C038
028034
074074
1E0070
7800B0
ENDCHAR
STARTCHAR uni041C
ENCODING 1052
SWIDTH 851 0
DWIDTH 14 0
BBX 14 12 0 0
BITMAP
0B4002D0
0B8007D0
0F800BC0
0EC01EC0
1DD03A80
1CD07380
28A0E340
28A2C740
38734700
343B0B00
743D0A00
70280E00
ENDCHAR
STARTCHAR uni041D
ENCODING 1053
SWIDTH 696 0
DWIDTH 11 0
BBX 11 12 0 0
BITMAP
0B002C
0A0028
0E0038
0D0034
1D0074
1C0070
2FFFF0
2955A0
3800E0
3400D0
7401D0
7001C0
ENDCHAR
STARTCHAR uni041E
ENCODING 1054
SWIDTH 671 0
DWIDTH 11 0
BBX 9 12 1 0
BITMAP
02F900
0F5B40
280280
7401C0
B001C0
E001C0
D002C0
D00380
E00740
B00A00
796C00
1BE000
ENDCHAR
STARTCHAR uni041F
ENCODING 1055
SWIDTH 696 0
DWIDTH 11 0
BBX 11 12 0 0
BITMAP
0BFFF8
0A5578
0E0034
0D0074
1D0070
1C00B0
2C00A0
2800E0
3800D0
3400D0
7401C0
7001C0
ENDCHAR
STARTCHAR uni0420
ENCODING 1056
SWIDTH 616 0
DWIDTH 10 0
BBX 10 12 0 0
BITMAP
0BFE40
0A56D0
0D00A0
0D00A0
1C00E0
1C06C0
2FFE40
295000
340000
340000
740000
700000
ENDCHAR
STARTCHAR uni0421
ENCODING 1057
SWIDTH 636 0
DWIDTH 10 0
BBX 9 12 1 0
BITMAP
02F900
0E5B40
280280
740280
B00000
E00000
D00000
D00000
D00600
A00E00
796C00
1BE000
ENDCHAR
STARTCHAR uni0422
ENCODING 1058
SWIDTH 583 0
DWIDTH 9 0
BBX 9 12 1 0
BITMAP
BFFFC0
15D540
01C000
02C000
028000
038000
034000
074000
070000
0B0000
0A0000
0A0000
ENDCHAR
STARTCHAR uni0423
ENCODING 1059
SWIDTH 614 0
DWIDTH 10 0
BBX 10 12 1 0
BITMAP
3402D0
280380
2C0B00
1D1E00
0E2C00
0A7400
0BF000
07D000
038000
074000
5E0000
B80000
ENDCHAR
STARTCHAR uni0424
ENCODING 1060
SWIDTH 753 0
DWIDTH 12 0
BBX 11 13 1 -1
BITMAP
001C00
002800
06FF80
2D79E0
743434
E07028
D07038
D0A034
E0E0B0
79E6D0
1BFE00
01C000
01C000
ENDCHAR
STARTCHAR uni0425
ENCODING 1061
SWIDTH 612 0
DWIDTH 10 0
BBX 10 12 0 0
BITMAP
1D00B0
0B02D0
074780
038E00
01EC00
00F400
01F000
03B800
0B2C00
1D1D00
780B00
E00740
ENDCHAR
STARTCHAR uni0426
ENCODING 1062
SWIDTH 713 0
DWIDTH 11 0
BBX 11 15 0 -3
BITMAP
0B0028
0A0038
0E0034
0D0074
1D0070
1C00B0
2C00A0
2800E0
3800D0
3401D0
7555D0
7FFFF0
000070
0000A0
0000A0
ENDCHAR
STARTCHAR uni0427
ENCODING 1063
SWIDTH 668 0
DWIDTH 11 0
BBX 10 12 1 0
BITMAP
2800D0
3801D0
3401C0
7402C0
740280
380780
1FFF40
014340
000700
000700
000A00
000A00
ENDCHAR
STARTCHAR uni0428
ENCODING 1064
SWIDTH 917 0
DWIDTH 15 0
BBX 15 12 0 0
BITMAP
0B01C034
0A01C074
0E028070
0D0280B0
1D0340A0
1C0340E0
2C0700D0
280701D0
380A01C0
340A02C0
755E5680
7FFFFF80
ENDCHAR
STARTCHAR uni0429
ENCODING 1065
SWIDTH 944 0
DWIDTH 15 0
BBX 15 15 0 -3
BITMAP
0B01C034
0A01C074
0E028070
0D0280B0
1D0340A0
1C0340E0
2C0700D0
280701D0
380A01C0
340A02C0
755E5680
7FFFFFE0
000000D0
000000D0
000001C0
ENDCHAR
STARTCHAR uni042A
ENCODING 1066
SWIDTH 740 0
DWIDTH 12 0
BBX 10 12 1 0
BITMAP
BF8000
578000
034000
074000
070000
0BFF40
0A56D0
0E00A0
0D00B0
1D00E0
1D57C0
1FFE00
ENDCHAR
STARTCHAR uni042B
ENCODING 1067
SWIDTH 843 0
DWIDTH 14 0
BBX 13 12 0 0
BITMAP
0B0001C0
0A0002C0
0E000280
0D000380
1D000340
1FFD0740
2D578700
2802CB00
3802CA00
34038E00
755B4D00
7FF81D00
ENDCHAR
STARTCHAR uni042C
ENCODING 1068
SWIDTH 613 0
DWIDTH 10 0
BBX 9 12 0 0
BITMAP
0A0000
0E0000
0D0000
1D0000
1C0000
2FFD00
295B40
3802C0
3402C0
740380
755F00
7FF800
ENDCHAR
STARTCHAR uni042D
ENCODING 1069
SWIDTH 658 0
DWIDTH 11 0
BBX 9 12 1 0
BITMAP
06F900
1E5B00
280380
2402C0
0002C0
0002C0
03FF80
015740
900740
E00A00
796C00
1BE000
ENDCHAR
STARTCHAR uni042E
ENCODING 1070
SWIDTH 872 0
DWIDTH 14 0
BBX 14 12 0 0
BITMAP
0B01BE00
0A0B9780
0E1D01D0
0D3800D0
1D7400E0
1FF000E0
2DB000D0
287001D0
387002C0
34340740
742D6E00
700BE400
ENDCHAR
STARTCHAR uni042F
ENCODING 1071
SWIDTH 622 0
DWIDTH 10 0
BBX 10 12 0 0
BITMAP
01BFE0
0795D0
0E01D0
1D01C0
1D02C0
0E0280
07FF80
075740
0E0740
2C0700
740B00
A00A00
ENDCHAR
STARTCHAR uni0430
ENCODING 1072
SWIDTH 532 0
DWIDTH 9 0
BBX 8 9 0 0
BITMAP
06F4
1E6D
280D
000D
1BFD
391C
702C
75B8
2FAC
ENDCHAR
STARTCHAR uni0431
ENCODING 1073
SWIDTH 541 0
DWIDTH 9 0
BBX 9 12 0 0
BITMAP
000280
00AE00
079400
0D0000
1AF800
2E5E00
380B00
740700
700B00
740E00
296C00
0BE000
ENDCHAR
STARTCHAR uni0432
ENCODING 1074
SWIDTH 559 0
DWIDTH 9 0
BBX 8 9 0 0
BITMAP
1FF9
1D5B
280A
2FF8
345D
340A
700E
746D
BFE4
ENDCHAR
STARTCHAR uni0433
ENCODING 1075
SWIDTH 411 0
DWIDTH 7 0
BBX 7 9 0 0
BITMAP
1FFC
1D54
2800
2800
3800
3400
7400
7000
B000
ENDCHAR
STARTCHAR uni0434
ENCODING 1076
SWIDTH 590 0
DWIDTH 9 0
BBX 10 11 -1 -2
BITMAP
00FFD0
00E5D0
01C1C0
01C2C0
028280
034280
0B0340
1D5740
7FFFC0
B001C0
A00280
ENDCHAR
STARTCHAR uni0435
ENCODING 1077
SWIDTH 518 0
DWIDTH 8 0
BBX 8 9 0 0
BITMAP
02F4
0E5D
2C0A
340A
7FFE
7554
3400
2D6C
0BE0
ENDCHAR
STARTCHAR uni0436
ENCODING 1078
SWIDTH 747 0
DWIDTH 12 0
BBX 13 9 -1 0
BITMAP
0B074380
07470B00
028B1D00
01CA3800
00FFF000
02DEB000
0B4D3800
1D1C2C00
782C0E00
ENDCHAR
STARTCHAR uni0437
ENCODING 1079
SWIDTH 497 0
DWIDTH 8 0
BBX 8 9 0 0
BITMAP
07E4
2D6C
141D
002C
07F0
0178
5028
7574
1FD0
ENDCHAR
STARTCHAR uni0438
ENCODING 1080
SWIDTH 564 0
DWIDTH 9 0
BBX 9 9 0 0
BITMAP
1C0740
1C1F40
2C3F00
28BB00
39DA00
374E00
7E0D00
7C1D00
B41C00
ENDCHAR
STARTCHAR uni0439
ENCODING 1081
SWIDTH 564 0
DWIDTH 9 0
BBX 9 12 0 0
BITMAP
028A00
00B800
000000
1C0740
1C1F40
2C3F00
28BB00
39DA00
374E00
7E0D00
7C1D00
B41C00
ENDCHAR
STARTCHAR uni043A
ENCODING 1082
SWIDTH 528 0
DWIDTH 8 0
BBX 9 9 0 0
BITMAP
1D0B40
1C1D00
2C7400
28E000
3FC000
39D000
74A000
707400
B02C00
ENDCHAR
STARTCHAR uni043B
ENCODING 1083
SWIDTH 565 0
DWIDTH 9 0
BBX 10 9 -1 0
BITMAP
01FFD0
01D5D0
0281C0
0282C0
034280
070380
0B0340
1D0740
780700
ENDCHAR
STARTCHAR uni043C
ENCODING 1084
SWIDTH 724 0
DWIDTH 12 0
BBX 11 9 0 0
BITMAP
1E003C
1F00B8
2F41F8
2A42B4
3A8774
35CD70
74EC70
70F4A0
B0A0A0
ENDCHAR
STARTCHAR uni043D
ENCODING 1085
SWIDTH 564 0
DWIDTH 9 0
BBX 9 9 0 0
BITMAP
1D0340
1C0740
2C0700
280B00
3FFE00
355E00
740D00
701D00
B01C00
ENDCHAR
STARTCHAR uni043E
ENCODING 1086
SWIDTH 558 0
DWIDTH 9 0
BBX 8 9 0 0
BITMAP
06F8
0E5E
280B
3407
7007
700B
740E
2D6C
0BE0
ENDCHAR
STARTCHAR uni043F
ENCODING 1087
SWIDTH 564 0
DWIDTH 9 0
BBX 9 9 0 0
BITMAP
1FFF40
1D5740
2C0700
280B00
380A00
340E00
740D00
701D00
B01C00
ENDCHAR
STARTCHAR uni0440
ENCODING 1088
SWIDTH 549 0
DWIDTH 9 0
BBX 9 12 -1 -3
BITMAP
077E00
0B9780
0A02C0
0E01C0
0D02C0
1D0280
1C0740
2E5E00
29F800
380000
340000
740000
ENDCHAR
STARTCHAR uni0441
ENCODING 1089
SWIDTH 512 0
DWIDTH 8 0
BBX 8 9 0 0
BITMAP
06F4
1E5D
280A
3400
7000
7000
741C
2978
0BE0
ENDCHAR
STARTCHAR uni0442
ENCODING 1090
SWIDTH 470 0
DWIDTH 8 0
BBX 7 9 1 0
BITMAP
FFF8
5A50
0A00
0D00
0D00
1C00
1C00
2C00
2800
ENDCHAR
STARTCHAR uni0443
ENCODING 1091
SWIDTH 463 0
DWIDTH 7 0
BBX 9 12 -1 -3
BITMAP
0D0380
0E0700
0A0E00
0B1C00
072800
077000
03E000
03C000
028000
070000
5D0000
B80000
ENDCHAR
STARTCHAR uni0444
ENCODING 1092
SWIDTH 708 0
DWIDTH 11 0
BBX 11 15 0 -3
BITMAP
000D00
001D00
001C00
07FFD0
1E69B0
283834
343434
707434
707074
70B0B0
39A5D0
1FFF40
00D000
01D000
01C000
ENDCHAR
STARTCHAR uni0445
ENCODING 1093
SWIDTH 485 0
DWIDTH 8 0
BBX 8 9 0 0
BITMAP
281E
1D38
0AB0
07D0
0380
0BC0
2CD0
74B0
E034
ENDCHAR
STARTCHAR uni0446
ENCODING 1094
SWIDTH 579 0
DWIDTH 9 0
BBX 9 12 0 -3
BITMAP
1D0340
1C0740
2C0700
280B00
380A00
340E00
740D00
755D00
BFFF00
000B00
000A00
000900
ENDCHAR
STARTCHAR uni0447
ENCODING 1095
SWIDTH 532 0
DWIDTH 9 0
BBX 7 9 1 0
BITMAP
B02C
A028
E038
A074
7FF4
0070
00B0
00A0
00A0
ENDCHAR
STARTCHAR uni0448
ENCODING 1096
SWIDTH 789 0
DWIDTH 13 0
BBX 12 9 0 0
BITMAP
1D0E07
1C0D0A
2C0D0A
281C0D
381C0D
34281C
74281C
75796C
BFFFF8
ENDCHAR
STARTCHAR uni0449
ENCODING 1097
SWIDTH 807 0
DWIDTH 13 0
BBX 12 12 0 -3
BITMAP
1C0D0B
1C0D0A
281D0E
281C0D
342C1D
34281C
70381C
757568
BFFFFE
00000A
00000D
00000D
ENDCHAR
STARTCHAR uni044A
ENCODING 1098
SWIDTH 606 0
DWIDTH 10 0
BBX 9 9 0 0
BITMAP
7F8000
174000
034000
07FE00
075780
0A0280
0A0280
0E5B40
0FF900
ENDCHAR
STARTCHAR uni044B
ENCODING 1099
SWIDTH 757 0
DWIDTH 12 0
BBX 12 9 0 0
BITMAP
1D001D
1C001C
2C002C
2FE428
396C28
340D34
741D34
756870
BFE070
ENDCHAR
STARTCHAR uni044C
ENCODING 1100
SWIDTH 531 0
DWIDTH 9 0
BBX 8 9 0 0
BITMAP
1D00
1C00
2C00
2FE4
396C
340D
741D
7568
BFE0
ENDCHAR
STARTCHAR uni044D
ENCODING 1101
SWIDTH 526 0
DWIDTH 8 0
BBX 8 9 0 0
BITMAP
06E4
1D6C
240D
000D
03FD
015D
702C
79B4
1F90
ENDCHAR
STARTCHAR uni044E
ENCODING 1102
SWIDTH 796 0
DWIDTH 13 0
BBX 12 9 0 0
BITMAP
1C06F4
1C2E5D
28780A
2FF007
35B00B
34700A
70701D
702978
B00BE0
ENDCHAR
STARTCHAR uni044F
ENCODING 1103
SWIDTH 537 0
DWIDTH 9 0
BBX 9 9 -1 0
BITMAP
02FFC0
0B5680
0D0380
0E0340
07FF40
075B00
0A0B00
2C0A00
740A00
ENDCHAR
STARTCHAR uni0450
ENCODING 1104
SWIDTH 518 0
DWIDTH 8 0
BBX 8 12 0 0
BITMAP
01C0
0090
0000
02F4
0E5D
2C0A
340A
7FFE
7554
3400
2D6C
0BE0
ENDCHAR
STARTCHAR uni0451
ENCODING 1105
SWIDTH 518 0
DWIDTH 8 0
BBX 8 12 0 0
BITMAP
0205
034A
0000
02F4
0E5D
2C0A
340A
7FFE
7554
3400
2D6C
0BE0
ENDCHAR
STARTCHAR uni0452
ENCODING 1106
SWIDTH 539 0
DWIDTH 9 0
BBX 8 15 0 -3
BITMAP
0A00
7FE0
1D40
1DF8
1E5D
280A
380E
340D
341D
701C
B02C
A028
0038
0174
03D0
ENDCHAR
STARTCHAR uni0453
ENCODING 1107
SWIDTH 411 0
DWIDTH 7 0
BBX 7 12 0 0
BITMAP
0074
01D0
0000
1FFC
1D54
2800
2800
3800
3400
7400
7000
B000
ENDCHAR
STARTCHAR uni0454
ENCODING 1108
SWIDTH 526 0
DWIDTH 8 0
BBX 8 9 0 0
BITMAP
02F8
0E5E
2C07
3400
3FD0
7540
3409
2D68
0BE0
ENDCHAR
STARTCHAR uni0455
ENCODING 1109
SWIDTH 504 0
DWIDTH 8 0
BBX 8 9 0 0
BITMAP
07E4
1D6C
2809
2D00
0BE0
0078
602C
7978
1BE0
ENDCHAR
STARTCHAR uni0456
ENCODING 1110
SWIDTH 240 0
DWIDTH 4 0
BBX 4 12 0 0
BITMAP
05
0A
00
1D
1C
2C
28
38
34
74
70
B0
ENDCHAR
STARTCHAR uni0457
ENCODING 1111
SWIDTH 244 0
DWIDTH 4 0
BBX 6 12 0 0
BITMAP
2080
70D0
0000
1D00
1C00
2C00
2800
3800
3400
7400
7000
B000
ENDCHAR
STARTCHAR uni0458
ENCODING 1112
SWIDTH 236 0
DWIDTH 4 0
BBX 6 15 -2 -3
BITMAP
0050
0090
0000
01C0
01C0
0280
0380
0340
0740
0700
0B00
0A00
0E00
5D00
B800
ENDCHAR
STARTCHAR uni0459
ENCODING 1113
SWIDTH 827 0
DWIDTH 13 0
BBX 14 9 -1 0
BITMAP
01FFC000
01D6C000
02828000
0282FE40
034356C0
070340D0
0B0701C0
1D070780
780BFE00
ENDCHAR
STARTCHAR uni045A
ENCODING 1114
SWIDTH 840 0
DWIDTH 13 0
BBX 13 9 0 0
BITMAP
1C034000
1C070000
28070000
2FFFF900
395E5740
340D0340
700D0340
701D1B00
B01FF900
ENDCHAR
STARTCHAR uni045B
ENCODING 1115
SWIDTH 554 0
DWIDTH 9 0
BBX 8 12 0 0
BITMAP
0A00
3FE0
1D40
1DF8
1E5D
280A
380E
340D
340D
701C
B01C
A028
ENDCHAR
STARTCHAR uni045C
ENCODING 1116
SWIDTH 528 0
DWIDTH 8 0
BBX 9 12 0 0
BITMAP
002D00
006000
000000
1D0B40
1C1D00
2C7400
28E000
3FC000
39D000
74A000
707400
B02C00
ENDCHAR
STARTCHAR uni045D
ENCODING 1117
SWIDTH 564 0
DWIDTH 9 0
BBX 9 12 0 0
BITMAP
01D000
006000
000000
1C0740
1C1F40
2C3F00
28BB00
39DA00
374E00
7E0D00
7C1D00
B41C00
ENDCHAR
STARTCHAR uni045E
ENCODING 1118
SWIDTH 463 0
DWIDTH 7 0
BBX 9 15 -1 -3
BITMAP
00C700
007D00
000000
0D0380
0E0700
0A0E00
0B1C00
072800
077000
03E000
03C000
028000
070000
5D0000
B80000
ENDCHAR
STARTCHAR uni045F
ENCODING 1119
SWIDTH 564 0
DWIDTH 9 0
BBX 9 12 0 -3
BITMAP
1D0340
1C0740
2C0700
280B00
380A00
340E00
740D00
755D00
BFFC00
034000
070000
070000
ENDCHAR
STARTCHAR uni0460
ENCODING 1120
SWIDTH 857 0
DWIDTH 14 0
BBX 13 12 1 0
BITMAP
280A0280
280E0380
340D0340
341D0740
701C0700
702C0B00
B0280A00
A0380E00
E0340D00
E0781C00
B5FD7800
2F4BE000
ENDCHAR
STARTCHAR uni0461
ENCODING 1121
SWIDTH 752 0
DWIDTH 12 0
BBX 12 9 0 0
BITMAP
1C0D0A
2C1D0E
281C0D
382C1D
34281C
74382C
743828
39BD74
1F8BD0
ENDCHAR
STARTCHAR uni0462
ENCODING 1122
SWIDTH 613 0
DWIDTH 10 0
BBX 9 12 0 0
BITMAP
0A0000
0A0000
BFD000
1D4000
1C0000
1FFD00
295740
2802C0
3402C0
340380
755F00
7FF800
ENDCHAR
STARTCHAR uni0463
ENCODING 1123
SWIDTH 530 0
DWIDTH 9 0
BBX 8 12 0 0
BITMAP
0A00
0E00
BFE0
1D40
1C00
2C00
2FF4
396D
340D
741D
7568
BFE0
ENDCHAR
STARTCHAR uni0464
ENCODING 1124
SWIDTH 874 0
DWIDTH 14 0
BBX 14 12 0 0
BITMAP
0B01BE00
0A0B9780
0E1D01C0
0D380090
1D740000
1FFFF000
2DB55000
28B00000
38700240
34740700
742D6D00
700BE400
ENDCHAR
STARTCHAR uni0465
ENCODING 1125
SWIDTH 728 0
DWIDTH 12 0
BBX 11 9 0 0
BITMAP
1C0BE0
1C2D78
2C701C
28A004
3FFF80
35D500
74D034
70B5B0
B02F80
ENDCHAR
STARTCHAR uni0466
ENCODING 1126
SWIDTH 589 0
DWIDTH 9 0
BBX 10 12 -1 0
BITMAP
000E00
001F00
002B00
007740
00A340
01C280
028280
07FFC0
0A75C0
1D70D0
2870D0
74B0E0
ENDCHAR
STARTCHAR uni0467
ENCODING 1127
SWIDTH 522 0
DWIDTH 8 0
BBX 8 9 -1 0
BITMAP
0074
00B8
01E8
029C
070D
0FFD
1DDA
35D7
71C7
ENDCHAR
STARTCHAR uni0468
ENCODING 1128
SWIDTH 858 0
DWIDTH 14 0
BBX 13 12 0 0
BITMAP
07002800
0B007C00
0A00AC00
0E01DD00
0D028D00
1D074A00
1C0A0A00
2FFFFF00
2979E700
3875D340
34A1C340
75D2C380
ENDCHAR
STARTCHAR uni0469
ENCODING 1129
SWIDTH 737 0
DWIDTH 12 0
BBX 11 9 0 0
BITMAP
0D0280
1D07C0
1C0ED0
1C2CD0
2834A0
2FFFF0
39DA70
36CA34
774D34
ENDCHAR
STARTCHAR uni046A
ENCODING 1130
SWIDTH 831 0
DWIDTH 13 0
BBX 12 12 0 0
BITMAP
01FFFF
00E56D
00B074
0074E0
003AC0
06FFE4
1E5E5D
381D0A
341C0A
702C0A
70280E
B0280D
ENDCHAR
STARTCHAR uni046B
ENCODING 1131
SWIDTH 717 0
DWIDTH 11 0
BBX 10 9 0 0
BITMAP
03FFE0
02D6C0
01D740
00EE00
0BFF40
2D75D0
7470A0
70B0A0
A0A0E0
ENDCHAR
STARTCHAR uni046C
ENCODING 1132
SWIDTH 1098 0
DWIDTH 18 0
BBX 17 12 0 0
BITMAP
0B01FFFF40
0A00B55E00
0E00743800
0D0038B000
1D002DD000
1FFFFFF800
2D5E5E5E00
282C0E0700
38380D0700
34341D0B00
74741C0A00
70702C0A00
ENDCHAR
STARTCHAR uni046D
ENCODING 1133
SWIDTH 952 0
DWIDTH 15 0
BBX 14 9 0 0
BITMAP
1D07FFE0
1C039780
2C01CB00
2800DD00
3FFFFE40
3579B6C0
7470A0D0
70A0A0D0
B0E0D0D0
ENDCHAR
STARTCHAR uni046E
ENCODING 1134
SWIDTH 506 0
DWIDTH 8 0
BBX 9 18 -1 -3
BITMAP
003280
001E00
000000
03F900
015B40
000380
000340
001B00
02F800
006D00
000A00
000A00
000E00
016C00
2FE000
740000
740000
180000
ENDCHAR
STARTCHAR uni046F
ENCODING 1135
SWIDTH 472 0
DWIDTH 8 0
BBX 8 15 -1 -3
BITMAP
01CA
0078
0000
07F8
015E
000A
001D
03F4
016C
000D
016C
2FE0
7400
7000
1800
ENDCHAR
STARTCHAR uni0470
ENCODING 1136
SWIDTH 675 0
DWIDTH 11 0
BBX 10 12 1 0
BITMAP
347470
747070
70B0B0
B0A0A0
A0E0E0
A0D1D0
B1D2C0
79DB40
1FF900
028000
038000
034000
ENDCHAR
STARTCHAR uni0471
ENCODING 1137
SWIDTH 684 0
DWIDTH 11 0
BBX 10 13 1 -4
BITMAP
B0A1C0
A0A0D0
E0D0D0
D0D0D0
D1C0D0
D2C1C0
E28380
779E00
1FE400
034000
070000
070000
0A0000
ENDCHAR
STARTCHAR uni0472
ENCODING 1138
SWIDTH 664 0
DWIDTH 11 0
BBX 9 12 1 0
BITMAP
02F900
1E5B00
280280
700280
A002C0
FFFFC0
D55680
D00380
D00740
A00E00
797C00
1FE000
ENDCHAR
STARTCHAR uni0473
ENCODING 1139
SWIDTH 555 0
DWIDTH 9 0
BBX 8 9 0 0
BITMAP
02F8
0E5E
2407
3FFF
755B
700B
741E
2D78
0BE0
ENDCHAR
STARTCHAR uni0474
ENCODING 1140
SWIDTH 615 0
DWIDTH 10 0
BBX 10 12 1 0
BITMAP
B001E0
700390
740700
340E00
341C00
283800
287000
1CA000
1DD000
1E8000
0F4000
0E0000
ENDCHAR
STARTCHAR uni0475
ENCODING 1141
SWIDTH 491 0
DWIDTH 8 0
BBX 8 9 1 0
BITMAP
D02D
A074
A0A0
71D0
7280
3740
3A00
2D00
2800
ENDCHAR
STARTCHAR uni0476
ENCODING 1142
SWIDTH 615 0
DWIDTH 10 0
BBX 10 15 1 0
BITMAP
1EA000
077400
000000
B001E0
700390
740700
340E00
341C00
283800
287000
1CA000
1DD000
1E8000
0F4000
0E0000
ENDCHAR
STARTCHAR uni0477
ENCODING 1143
SWIDTH 491 0
DWIDTH 8 0
BBX 8 12 1 0
BITMAP
7780
19C0
0000
D02D
A074
A0A0
71D0
7280
3740
3A00
2D00
2800
ENDCHAR
STARTCHAR uni0478
ENCODING 1144
SWIDTH 1135 0
DWIDTH 18 0
BBX 18 15 1 -3
BITMAP
02F9000000
0F5B400000
2802800000
7401C701D0
B001C34280
E001C34340
D002C28A00
D003828D00
E00741E800
B00A01F400
796C00E000
1BE000D000
0000028000
00001B4000
00003D0000
ENDCHAR
STARTCHAR uni0479
ENCODING 1145
SWIDTH 1021 0
DWIDTH 16 0
BBX 17 12 0 -3
BITMAP
06F80D0380
0E5E0D0700
280B0A0E00
34070A1C00
7007073800
700B077000
740E03E000
2D6C03C000
0BE0034000
0000070000
00005D0000
0000B40000
ENDCHAR
STARTCHAR uni047A
ENCODING 1146
SWIDTH 664 0
DWIDTH 11 0
BBX 9 14 1 -1
BITMAP
007400
02F900
1EBB40
280380
7002C0
A002C0
E002C0
D00280
D00380
D00740
E00E00
7BBC00
1FE000
070000
ENDCHAR
STARTCHAR uni047B
ENCODING 1147
SWIDTH 554 0
DWIDTH 9 0
BBX 8 11 0 -1
BITMAP
0060
02F8
0EEE
2807
3407
7007
700B
740E
2BAC
0BE0
0340
ENDCHAR
STARTCHAR uni047C
ENCODING 1148
SWIDTH 854 0
DWIDTH 14 0
BBX 12 15 1 0
BITMAP
001F90
003468
000700
064918
1D001E
380007
740007
70000B
B0280A
A0280E
E0380D
D0341D
E0741C
B5FD78
2F4BE0
ENDCHAR
STARTCHAR uni047D
ENCODING 1149
SWIDTH 749 0
DWIDTH 12 0
BBX 11 12 0 0
BITMAP
002F90
003078
000700
064924
1E002C
28001C
38001C
34281C
74382C
743428
39BD74
1F8BD0
ENDCHAR
STARTCHAR uni047E
ENCODING 1150
SWIDTH 857 0
DWIDTH 14 0
BBX 13 15 1 0
BITMAP
00BFF800
00070000
00000000
280A0280
280E0380
340D0340
341D0740
701C0700
702C0B00
B0280A00
A0380E00
E0340D00
E0781C00
B5FD7800
2F4BE000
ENDCHAR
STARTCHAR uni047F
ENCODING 1151
SWIDTH 752 0
DWIDTH 12 0
BBX 12 12 0 0
BITMAP
00FFF4
000A00
000000
1C0D0A
2C1D0E
281C0D
382C1D
34281C
74382C
743828
39BD74
1F9BD0
ENDCHAR
STARTCHAR uni0480
ENCODING 1152
SWIDTH 634 0
DWIDTH 10 0
BBX 9 15 1 -3
BITMAP
02F900
0E5B40
280380
740280
B00000
A00000
E00000
D00000
D00000
E00000
790000
1F4000
070000
070000
0A0000
ENDCHAR
STARTCHAR uni0481
ENCODING 1153
SWIDTH 523 0
DWIDTH 8 0
BBX 8 12 0 -3
BITMAP
02F4
0E5D
280A
3400
7400
7000
7400
3900
0B40
0340
0700
0B00
ENDCHAR
STARTCHAR uni0482
ENCODING 1154
SWIDTH 609 0
DWIDTH 10 0
BBX 8 10 1 0
BITMAP
0007
020D
02F8
00B8
01DA
D340
6E00
2F80
7080
D000
ENDCHAR
STARTCHAR uni0483
ENCODING 1155
SWIDTH 0 0
DWIDTH 0 0
BBX 6 3 -6 9
BITMAP
0090
FFD0
C000
ENDCHAR
STARTCHAR uni0484
ENCODING 1156
SWIDTH 0 0
DWIDTH 0 0
BBX 6 2 -6 10
BITMAP
1BD0
E460
ENDCHAR
STARTCHAR uni0485
ENCODING 1157
SWIDTH 0 0
DWIDTH 0 0
BBX 2 3 -4 10
BITMAP
A0
A0
20
ENDCHAR
STARTCHAR uni0486
ENCODING 1158
SWIDTH 0 0
DWIDTH 0 0
BBX 3 2 -4 11
BITMAP
34
60
ENDCHAR
STARTCHAR uni0488
ENCODING 1160
SWIDTH 0 0
DWIDTH 0 0
BBX 15 15 -12 -3
BITMAP
0001E000
00026400
00000000
02C001E0
05500254
00000000
00000000
2C000078
55000088
00000000
00000000
1E000B40
22000880
001E0000
00220000
ENDCHAR
STARTCHAR uni0489
ENCODING 1161
SWIDTH 0 0
DWIDTH 0 0
BBX 15 15 -12 -3
BITMAP
00006000
00009000
01408000
00C000A0
00800380
00000000
00000000
68000090
04000054
00000000
00000000
07000800
19050900
000C0500
00180000
ENDCHAR
STARTCHAR uni048A
ENCODING 1162
SWIDTH 736 0
DWIDTH 12 0
BBX 11 18 0 -3
BITMAP
0030D0
001F40
000000
0B0038
0A00B8
0E02F4
0D07B4
1D0E70
1C2CB0
2CB4A0
29D0E0
3B80D0
3F00D0
7D01C0
7401E4
000074
0000B0
000090
ENDCHAR
STARTCHAR uni048B
ENCODING 1163
SWIDTH 602 0
DWIDTH 10 0
BBX 9 15 0 -3
BITMAP
028A00
00B800
000000
1C0740
1C1F40
2C3F00
28BB00
39DA00
374E00
7E0D00
7C1D00
B41E40
000340
000B00
000900
ENDCHAR
STARTCHAR uni048C
ENCODING 1164
SWIDTH 613 0
DWIDTH 10 0
BBX 9 12 0 0
BITMAP
0A0000
0A0000
BFD000
1D4000
1C0000
1FFD00
295B40
2802C0
3402C0
340380
755F00
7FF800
ENDCHAR
STARTCHAR uni048D
ENCODING 1165
SWIDTH 530 0
DWIDTH 9 0
BBX 8 14 0 0
BITMAP
0500
0B00
7FF0
1E50
0D00
1D00
1C00
2C00
2FF4
396D
340D
741D
7568
BFE0
ENDCHAR
STARTCHAR uni048E
ENCODING 1166
SWIDTH 624 0
DWIDTH 10 0
BBX 10 12 0 0
BITMAP
0BFE40
0A56D0
0D00E0
0D00A0
1C0AE0
1C07C0
2FFFC0
295080
340000
340000
740000
700000
ENDCHAR
STARTCHAR uni048F
ENCODING 1167
SWIDTH 554 0
DWIDTH 9 0
BBX 9 12 -1 -3
BITMAP
077E00
0B9780
0A02C0
0E01C0
0D02C0
1D0280
1C1B40
2E5E00
29FB00
380100
340000
740000
ENDCHAR
STARTCHAR uni0490
ENCODING 1168
SWIDTH 536 0
DWIDTH 9 0
BBX 10 14 0 0
BITMAP
0000E0
0000D0
0BFFC0
0E5540
0D0000
1D0000
1C0000
2C0000
280000
380000
340000
740000
700000
700000
ENDCHAR
STARTCHAR uni0491
ENCODING 1169
SWIDTH 437 0
DWIDTH 7 0
BBX 8 11 0 0
BITMAP
000D
001C
1FFC
1D50
2800
2800
3400
3400
7000
7000
A000
ENDCHAR
STARTCHAR uni0492
ENCODING 1170
SWIDTH 544 0
DWIDTH 9 0
BBX 10 12 0 0
BITMAP
0BFFD0
0A5540
0E0000
0D0000
1D0000
BFC000
2D4000
280000
380000
340000
740000
700000
ENDCHAR
STARTCHAR uni0493
ENCODING 1171
SWIDTH 411 0
DWIDTH 7 0
BBX 7 9 0 0
BITMAP
1FFC
1D54
2C00
2800
FF80
7500
7400
7000
B000
ENDCHAR
STARTCHAR uni0494
ENCODING 1172
SWIDTH 593 0
DWIDTH 10 0
BBX 10 14 0 -2
BITMAP
0BFFD0
0A5540
0E0000
0D0000
1D0000
1FE400
2D6E00
280B00
380740
340740
740700
700A00
006C00
00E400
ENDCHAR
STARTCHAR uni0495
ENCODING 1173
SWIDTH 492 0
DWIDTH 8 0
BBX 7 11 0 -2
BITMAP
1FFC
1D50
2800
2800
3F90
35B4
7038
7028
A034
01E0
0280
ENDCHAR
STARTCHAR uni0496
ENCODING 1174
SWIDTH 930 0
DWIDTH 15 0
BBX 16 15 -1 -3
BITMAP
0380B01E
02C0A02C
01D0A074
00E0E0E0
00B0D280
0075D740
003FFE00
00B6DB00
02D28740
0B4382C0
1E0341D0
780700BC
00000028
00000038
00000034
ENDCHAR
STARTCHAR uni0497
ENCODING 1175
SWIDTH 778 0
DWIDTH 12 0
BBX 13 12 -1 -3
BITMAP
0B074380
07470B00
028B1D00
01CA3800
00FFF000
02DEB000
0B4D3800
1D1C2C00
782C0F40
00000740
00000700
00000B00
ENDCHAR
STARTCHAR uni0498
ENCODING 1176
SWIDTH 580 0
DWIDTH 9 0
BBX 9 16 0 -4
BITMAP
01FE00
0B5780
1D01C0
0002C0
000740
01FD00
005E00
000740
500740
B00B00
396D00
1BE400
038000
034000
074000
070000
ENDCHAR
STARTCHAR uni0499
ENCODING 1177
SWIDTH 497 0
DWIDTH 8 0
BBX 8 13 0 -4
BITMAP
07E4
2D6C
141D
002C
07F0
0178
5028
7574
1FD0
0B00
0A00
0E00
0D00
ENDCHAR
STARTCHAR uni049A
ENCODING 1178
SWIDTH 684 0
DWIDTH 11 0
BBX 11 15 0 -3
BITMAP
0B00B4
0A02D0
0E0740
0D1E00
1D7800
1FE000
2DB000
283800
382D00
340E00
740740
7003E0
0000D0
0001D0
0001C0
ENDCHAR
STARTCHAR uni049B
ENCODING 1179
SWIDTH 577 0
DWIDTH 9 0
BBX 9 12 0 -3
BITMAP
1D0B40
1C1D00
2C7400
28E000
3FC000
39D000
74A000
707400
B02F00
000B00
000A00
000E00
ENDCHAR
STARTCHAR uni049C
ENCODING 1180
SWIDTH 615 0
DWIDTH 10 0
BBX 11 12 0 0
BITMAP
0A00B4
0E00E0
0E02C0
1D0740
1DDA00
2DDC00
2FF800
3AAC00
3A5D00
740E00
740740
700380
ENDCHAR
STARTCHAR uni049D
ENCODING 1181
SWIDTH 549 0
DWIDTH 9 0
BBX 9 9 0 0
BITMAP
1D0380
1C0B00
2D5D00
2AB800
3FF000
3BB400
762800
701D00
B00E00
ENDCHAR
STARTCHAR uni049E
ENCODING 1182
SWIDTH 638 0
DWIDTH 10 0
BBX 11 12 0 0
BITMAP
070078
0B01E0
7FE3C0
1E4B40
0D1D00
1D7800
1FF000
2D7400
282C00
380E00
340740
7402C0
ENDCHAR
STARTCHAR uni049F
ENCODING 1183
SWIDTH 508 0
DWIDTH 8 0
BBX 8 12 0 0
BITMAP
0B00
BFD0
1E40
0D0B
1C2D
1C74
28E0
2FC0
39D0
34A0
7074
702C
ENDCHAR
STARTCHAR uni04A0
ENCODING 1184
SWIDTH 798 0
DWIDTH 13 0
BBX 13 12 1 0
BITMAP
7FE00B40
15D02D00
00D0B400
01C2D000
01CB4000
02FE0000
029B0000
03474000
0342C000
0701D000
0700B000
0B003800
ENDCHAR
STARTCHAR uni04A1
ENCODING 1185
SWIDTH 673 0
DWIDTH 11 0
BBX 10 9 1 0
BITMAP
FF81E0
574380
074A00
072C00
0BF400
0A7800
0A1D00
0D0B00
0D0740
ENDCHAR
STARTCHAR uni04A2
ENCODING 1186
SWIDTH 731 0
DWIDTH 12 0
BBX 11 15 0 -3
BITMAP
0B002C
0A0028
0E0038
0D0034
1D0074
1C0070
2FFFF0
2955A0
3800E0
3400D0
7401D0
7001F4
000070
000070
0000A0
ENDCHAR
STARTCHAR uni04A3
ENCODING 1187
SWIDTH 592 0
DWIDTH 9 0
BBX 9 12 0 -3
BITMAP
1D0340
1C0740
2C0700
280B00
3FFE00
355E00
740D00
701D00
B01F40
000700
000700
000A00
ENDCHAR
STARTCHAR uni04A4
ENCODING 1188
SWIDTH 951 0
DWIDTH 15 0
BBX 16 12 0 0
BITMAP
0B002FFE
0A002954
0E003800
0D003400
1D007400
1C007000
2FFFF000
2955A000
3800E000
3400D000
7401D000
7001C000
ENDCHAR
STARTCHAR uni04A5
ENCODING 1189
SWIDTH 696 0
DWIDTH 11 0
BBX 11 9 0 0
BITMAP
1C03FC
1C0754
280700
280A00
3FFE00
355D00
700D00
701C00
A01C00
ENDCHAR
STARTCHAR uni04A6
ENCODING 1190
SWIDTH 998 0
DWIDTH 16 0
BBX 15 14 0 -2
BITMAP
0BFFF800
0A557800
0E003400
0D007400
1D007000
1C00BF80
2C00A5F0
2800E034
3800D028
3401D028
7401C034
7001C070
000001E0
00000B40
ENDCHAR
STARTCHAR uni04A7
ENCODING 1191
SWIDTH 848 0
DWIDTH 14 0
BBX 13 11 0 -2
BITMAP
1FFF4000
1D570000
28070000
280A0000
340BF800
340E5F00
700D0740
701C0340
A01C0700
00002D00
00002400
ENDCHAR
STARTCHAR uni04A8
ENCODING 1192
SWIDTH 723 0
DWIDTH 12 0
BBX 11 12 1 0
BITMAP
074BD0
1E39B0
387074
70A074
A0D074
E0D070
D1D0B0
D1D0E0
E0E2C0
B07B40
39BF40
1BE6D0
ENDCHAR
STARTCHAR uni04A9
ENCODING 1193
SWIDTH 589 0
DWIDTH 9 0
BBX 9 9 0 0
BITMAP
072E00
1DB740
28D280
34D280
35D340
74D700
34BD00
2DBE00
0BD640
ENDCHAR
STARTCHAR uni04AA
ENCODING 1194
SWIDTH 636 0
DWIDTH 10 0
BBX 9 16 1 -4
BITMAP
02F900
0E5B40
280280
740280
B00000
E00000
D00000
D00000
D00600
A00E00
796C00
1BE000
070000
0B0000
0A0000
0E0000
ENDCHAR
STARTCHAR uni04AB
ENCODING 1195
SWIDTH 512 0
DWIDTH 8 0
BBX 8 13 0 -4
BITMAP
06F4
1E5D
280A
3400
7000
7000
741C
2978
0BE0
0700
0B00
0A00
0E00
ENDCHAR
STARTCHAR uni04AC
ENCODING 1196
SWIDTH 583 0
DWIDTH 9 0
BBX 9 15 1 -3
BITMAP
BFFFC0
15D540
01C000
02C000
028000
038000
034000
074000
070000
0B0000
0A0000
0BC000
028000
038000
034000
ENDCHAR
STARTCHAR uni04AD
ENCODING 1197
SWIDTH 470 0
DWIDTH 8 0
BBX 7 12 1 -3
BITMAP
FFF8
5A50
0A00
0D00
0D00
1C00
1C00
2C00
2F00
0A00
0A00
0D00
ENDCHAR
STARTCHAR uni04AE
ENCODING 1198
SWIDTH 587 0
DWIDTH 9 0
BBX 9 12 1 0
BITMAP
B002C0
740740
380E00
1C2C00
0D7400
0AE000
07C000
074000
070000
070000
0A0000
0A0000
ENDCHAR
STARTCHAR uni04AF
ENCODING 1199
SWIDTH 490 0
DWIDTH 8 0
BBX 7 12 1 -3
BITMAP
E02C
A034
B0B0
70D0
32C0
3740
2E00
2D00
2C00
2800
3800
3400
ENDCHAR
STARTCHAR uni04B0
ENCODING 1200
SWIDTH 587 0
DWIDTH 9 0
BBX 9 12 1 0
BITMAP
B002C0
340740
280E00
1C2800
0D7400
0AD000
2FF000
075000
070000
0B0000
0A0000
0A0000
ENDCHAR
STARTCHAR uni04B1
ENCODING 1201
SWIDTH 490 0
DWIDTH 8 0
BBX 8 12 0 -3
BITMAP
380B
280D
282C
1C34
1C70
0DD0
0BC0
1B80
7FE0
0A00
0E00
0D00
ENDCHAR
STARTCHAR uni04B2
ENCODING 1202
SWIDTH 622 0
DWIDTH 10 0
BBX 10 15 0 -3
BITMAP
1D00B0
0B02D0
074780
038E00
01EC00
00F400
01F000
03B800
0B2C00
1D1D00
780B00
E007C0
000280
000280
000340
ENDCHAR
STARTCHAR uni04B3
ENCODING 1203
SWIDTH 509 0
DWIDTH 8 0
BBX 8 12 0 -3
BITMAP
281E
1D38
0AB0
07D0
0380
0BC0
2CD0
74B0
E03C
001C
0028
0028
ENDCHAR
STARTCHAR uni04B4
ENCODING 1204
SWIDTH 874 0
DWIDTH 14 0
BBX 12 15 1 -3
BITMAP
BFFE0A
17940E
03400D
07401D
07001C
0B002C
0A0028
0E0038
0D0034
1D0074
1D55B4
1FFFFC
000028
000028
000034
ENDCHAR
STARTCHAR uni04B5
ENCODING 1205
SWIDTH 654 0
DWIDTH 10 0
BBX 10 12 0 -3
BITMAP
7FF4D0
1750D0
0701C0
0A01C0
0A02C0
0D0280
0D0380
1D5740
1FFFC0
0001C0
000280
000280
ENDCHAR
STARTCHAR uni04B6
ENCODING 1206
SWIDTH 700 0
DWIDTH 11 0
BBX 10 15 1 -3
BITMAP
2800D0
3801D0
3401C0
7402C0
740280
380780
1FFF40
014340
000700
000700
000A00
000B80
000280
000340
000340
ENDCHAR
STARTCHAR uni04B7
ENCODING 1207
SWIDTH 561 0
DWIDTH 9 0
BBX 7 12 1 -3
BITMAP
B02C
A028
E038
A074
7FF4
0070
00B0
00A0
00B8
0028
0034
0034
ENDCHAR
STARTCHAR uni04B8
ENCODING 1208
SWIDTH 663 0
DWIDTH 11 0
BBX 10 12 1 0
BITMAP
2800D0
3801D0
3401C0
7452C0
749280
38D780
1FFF40
01C740
018700
000B00
000A00
000E00
ENDCHAR
STARTCHAR uni04B9
ENCODING 1209
SWIDTH 540 0
DWIDTH 9 0
BBX 7 9 1 0
BITMAP
701C
B12C
A328
B738
2FF4
0A74
0070
0070
00A0
ENDCHAR
STARTCHAR uni04BA
ENCODING 1210
SWIDTH 663 0
DWIDTH 11 0
BBX 9 12 0 0
BITMAP
0E0000
0D0000
1D0000
1C0000
2C0000
2EFE00
3D5780
3802C0
7402C0
700280
B00380
A00340
ENDCHAR
STARTCHAR uni04BB
ENCODING 1211
SWIDTH 539 0
DWIDTH 9 0
BBX 8 12 0 0
BITMAP
0A00
0D00
0D00
1DF8
1E5D
280A
280E
340D
340D
701C
701C
A028
ENDCHAR
STARTCHAR uni04BC
ENCODING 1212
SWIDTH 754 0
DWIDTH 12 0
BBX 11 12 1 0
BITMAP
002F80
00E5A0
028034
974034
AB0034
2FFFF4
0E0000
0D0000
0D0000
0A0000
079580
01BF40
ENDCHAR
STARTCHAR uni04BD
ENCODING 1213
SWIDTH 579 0
DWIDTH 9 0
BBX 9 9 0 0
BITMAP
01B900
039B00
8A0340
AD0280
7FFF40
2D5500
1C0000
0E5A00
06F800
ENDCHAR
STARTCHAR uni04BE
ENCODING 1214
SWIDTH 754 0
DWIDTH 12 0
BBX 11 16 1 -4
BITMAP
002F80
00E5A0
028034
974034
AB0034
2FFFF4
0E0000
0D0000
0D0000
0A0000
079580
01BF40
003400
007000
007000
00A000
ENDCHAR
STARTCHAR uni04BF
ENCODING 1215
SWIDTH 579 0
DWIDTH 9 0
BBX 9 12 0 -3
BITMAP
01B900
039B00
8A0340
AD0280
7FFF40
2D5500
1C0000
0E5A00
07F800
01C000
01C000
028000
ENDCHAR
STARTCHAR uni04C0
ENCODING 1216
SWIDTH 268 0
DWIDTH 4 0
BBX 4 12 0 0
BITMAP
0B
0A
0E
0D
1D
1C
2C
28
38
34
74
70
ENDCHAR
STARTCHAR uni04C1
ENCODING 1217
SWIDTH 885 0
DWIDTH 14 0
BBX 16 15 -1 0
BITMAP
00018A00
0000B900
00000000
0380B01E
02C0A02C
01D0A074
00E0E0E0
00B0D280
0075D740
003FFE00
00B6DB00
02D28740
0B4382C0
1E0341D0
780700B0
ENDCHAR
STARTCHAR uni04C2
ENCODING 1218
SWIDTH 747 0
DWIDTH 12 0
BBX 13 12 -1 0
BITMAP
000C7000
0007D000
00000000
0B074380
07470B00
028B1D00
01CA3800
00FFF000
02DEB000
0B4D3800
1D1C2C00
782C0E00
ENDCHAR
STARTCHAR uni04C3
ENCODING 1219
SWIDTH 615 0
DWIDTH 10 0
BBX 10 14 0 -2
BITMAP
0A00B0
0E02D0
0D0B40
1D2D00
1CB400
2FF900
295F00
380380
340280
740280
700380
700740
001E00
007400
ENDCHAR
STARTCHAR uni04C4
ENCODING 1220
SWIDTH 532 0
DWIDTH 9 0
BBX 9 11 0 -2
BITMAP
1D0B40
1C2D00
2C7400
29D000
3FE000
397C00
741D00
700D00
B01C00
00B400
019000
ENDCHAR
STARTCHAR uni04C5
ENCODING 1221
SWIDTH 731 0
DWIDTH 12 0
BBX 12 15 -1 -3
BITMAP
003FFE
00755E
00B00D
00A01D
00E01C
00D02C
01C028
01C038
028034
074074
1E0070
7800B9
00001C
000028
000020
ENDCHAR
STARTCHAR uni04C6
ENCODING 1222
SWIDTH 603 0
DWIDTH 10 0
BBX 10 12 -1 -3
BITMAP
01FFD0
01D5D0
0281C0
0282C0
034280
070380
0B0340
1D0740
780790
0000D0
0002C0
000240
ENDCHAR
STARTCHAR uni04C7
ENCODING 1223
SWIDTH 695 0
DWIDTH 11 0
BBX 11 15 0 -3
BITMAP
0B0028
0A0038
0E0034
0D0034
1D0070
1C0070
2FFFE0
2D55E0
3800D0
3400D0
7401C0
7002C0
000280
001740
003E00
ENDCHAR
STARTCHAR uni04C8
ENCODING 1224
SWIDTH 554 0
DWIDTH 9 0
BBX 9 12 0 -3
BITMAP
1C0340
1C0700
280700
280A00
3FFE00
355D00
700D00
701C00
A01C00
002800
017400
02E000
ENDCHAR
STARTCHAR uni04C9
ENCODING 1225
SWIDTH 740 0
DWIDTH 12 0
BBX 11 15 0 -3
BITMAP
0B002C
0A0028
0E0038
0D0034
1D0074
1C0070
2FFFF0
2955A0
3800E0
3400D0
7401D0
7001E4
000034
0000B0
000090
ENDCHAR
STARTCHAR uni04CA
ENCODING 1226
SWIDTH 601 0
DWIDTH 10 0
BBX 9 12 0 -3
BITMAP
1D0340
1C0740
2C0700
280B00
3FFE00
355E00
740D00
701D00
B01E40
000340
000B00
000900
ENDCHAR
STARTCHAR uni04CB
ENCODING 1227
SWIDTH 668 0
DWIDTH 11 0
BBX 10 15 1 -3
BITMAP
2800D0
3801D0
3401C0
7402C0
740280
380780
1FFF40
014340
000700
000700
000A00
003E00
007000
007000
00A000
ENDCHAR
STARTCHAR uni04CC
ENCODING 1228
SWIDTH 532 0
DWIDTH 9 0
BBX 7 12 1 -3
BITMAP
B02C
A028
E038
A074
7FF4
0070
00B0
00A0
03E0
0700
0700
0A00
ENDCHAR
STARTCHAR uni04CD
ENCODING 1229
SWIDTH 891 0
DWIDTH 14 0
BBX 14 15 0 -3
BITMAP
0B4002D0
0B8007D0
0F800BC0
0EC01EC0
1DD03A80
1CD07380
28A0E340
28A2C740
38734700
343B0B00
743D0A00
70280F80
00000280
00000340
00000600
ENDCHAR
STARTCHAR uni04CE
ENCODING 1230
SWIDTH 761 0
DWIDTH 12 0
BBX 11 12 0 -3
BITMAP
1E003C
1F00B8
2F41F8
2A42B4
3A8774
35CD70
74EC70
70F4A0
B0A0B8
00002C
000034
000060
ENDCHAR
STARTCHAR uni04CF
ENCODING 1231
SWIDTH 268 0
DWIDTH 4 0
BBX 4 12 0 0
BITMAP
0B
0A
0E
0D
1D
1C
2C
28
38
34
74
70
ENDCHAR
STARTCHAR uni04D0
ENCODING 1232
SWIDTH 637 0
DWIDTH 10 0
BBX 10 15 -1 0
BITMAP
0018A0
000B90
000000
000B00
001F00
002B40
007680
00A280
01D2C0
0281C0
0741D0
0BFFD0
1D55E0
3800A0
740070
ENDCHAR
STARTCHAR uni04D1
ENCODING 1233
SWIDTH 532 0
DWIDTH 9 0
BBX 8 12 0 0
BITMAP
028A
00B8
0000
06F4
1E6D
280D
000D
1BFD
391C
702C
75B8
2FAC
ENDCHAR
STARTCHAR uni04D2
ENCODING 1234
SWIDTH 637 0
DWIDTH 10 0
BBX 10 15 -1 0
BITMAP
001450
002860
000000
000B00
001F00
002B40
007680
00A280
01D2C0
0281C0
0741D0
0BFFD0
1D55E0
3800A0
740070
ENDCHAR
STARTCHAR uni04D3
ENCODING 1235
SWIDTH 532 0
DWIDTH 9 0
BBX 8 12 0 0
BITMAP
0145
024A
0000
06F4
1E6D
280D
000D
1BFD
391C
702C
75B8
2FAC
ENDCHAR
STARTCHAR uni04D4
ENCODING 1236
SWIDTH 911 0
DWIDTH 15 0
BBX 16 12 -1 0
BITMAP
0000BFFF
0001F954
0003B400
000A7400
002D7000
00787FF4
00F0B550
02D0A000
07FFE000
1E55D000
3C00D550
B401FFF8
ENDCHAR
STARTCHAR uni04D5
ENCODING 1237
SWIDTH 823 0
DWIDTH 13 0
BBX 13 9 0 0
BITMAP
07F4BD00
1E6F9740
281E0280
001D0280
1BFFFF80
782C0000
A02C0000
B5BE5A00
2F82F900
ENDCHAR
STARTCHAR uni04D6
ENCODING 1238
SWIDTH 556 0
DWIDTH 9 0
BBX 10 15 0 0
BITMAP
00D340
007E00
000000
0BFFD0
0A5540
0D0000
0D0000
1C0000
1FFE00
2D5400
280000
340000
340000
755400
7FFE00
ENDCHAR
STARTCHAR uni04D7
ENCODING 1239
SWIDTH 518 0
DWIDTH 8 0
BBX 8 12 0 0
BITMAP
0249
01F8
0000
02F4
0E5D
2C0A
340A
7FFE
7554
3400
2D6C
0BE0
ENDCHAR
STARTCHAR uni04D8
ENCODING 1240
SWIDTH 675 0
DWIDTH 11 0
BBX 10 12 0 0
BITMAP
02FE40
0256D0
0000E0
000070
000070
000070
3FFFF0
7400A0
7400D0
340280
1E5B00
06F800
ENDCHAR
STARTCHAR uni04D9
ENCODING 1241
SWIDTH 516 0
DWIDTH 8 0
BBX 8 9 0 0
BITMAP
0BE4
196C
000D
000A
7FFE
755D
702C
3974
1BD0
ENDCHAR
STARTCHAR uni04DA
ENCODING 1242
SWIDTH 675 0
DWIDTH 11 0
BBX 10 15 0 0
BITMAP
008140
00D240
000000
02FE40
0256D0
0000E0
000070
000070
000070
3FFFF0
7400A0
7400D0
340280
1E5B00
06F800
ENDCHAR
STARTCHAR uni04DB
ENCODING 1243
SWIDTH 516 0
DWIDTH 8 0
BBX 8 12 0 0
BITMAP
0245
034A
0000
0BE4
196C
000D
000A
7FFE
755D
702C
3974
1BD0
ENDCHAR
STARTCHAR uni04DC
ENCODING 1244
SWIDTH 885 0
DWIDTH 14 0
BBX 16 15 -1 0
BITMAP
00014500
00028600
00000000
0380B01E
02C0A02C
01D0A074
00E0E0E0
00B0D280
0075D740
003FFE00
00B6DB00
02D28740
0B4382C0
1E0341D0
780700B0
ENDCHAR
STARTCHAR uni04DD
ENCODING 1245
SWIDTH 747 0
DWIDTH 12 0
BBX 13 12 -1 0
BITMAP
00182000
001C3400
00000000
0B074380
07470B00
028B1D00
01CA3800
00FFF000
02DEB000
0B4D3800
1D1C2C00
782C0E00
ENDCHAR
STARTCHAR uni04DE
ENCODING 1246
SWIDTH 580 0
DWIDTH 9 0
BBX 9 15 0 0
BITMAP
008240
01C340
000000
01FE00
0B5780
1D01C0
0002C0
000740
01FD00
005E00
000740
500740
B00B00
396D00
1BE400
ENDCHAR
STARTCHAR uni04DF
ENCODING 1247
SWIDTH 497 0
DWIDTH 8 0
BBX 8 12 0 0
BITMAP
0208
070D
0000
07E4
2D6C
141D
002C
07F0
0178
5028
7574
1FD0
ENDCHAR
STARTCHAR uni04E0
ENCODING 1248
SWIDTH 569 0
DWIDTH 9 0
BBX 9 12 0 0
BITMAP
0BFFC0
055B40
001D00
007400
01E000
02F400
005D00
000A00
100B00
700E00
396C00
1BE000
ENDCHAR
STARTCHAR uni04E1
ENCODING 1249
SWIDTH 569 0
DWIDTH 9 0
BBX 9 12 0 -3
BITMAP
1FFF40
055E00
002C00
00B000
02D000
03E000
017800
001D00
400D00
E01C00
757800
2F9000
ENDCHAR
STARTCHAR uni04E2
ENCODING 1250
SWIDTH 696 0
DWIDTH 11 0
BBX 11 14 0 0
BITMAP
007FE0
000000
0B0038
0A00B8
0E02F4
0D07B4
1D0E70
1C2CB0
2CB4A0
29D0E0
3B80D0
3F00D0
7D01C0
7401C0
ENDCHAR
STARTCHAR uni04E3
ENCODING 1251
SWIDTH 564 0
DWIDTH 9 0
BBX 9 11 0 0
BITMAP
03FF00
000000
1C0740
1C1F40
2C3F00
28BB00
39DA00
374E00
7E0D00
7C1D00
B41C00
ENDCHAR
STARTCHAR uni04E4
ENCODING 1252
SWIDTH 696 0
DWIDTH 11 0
BBX 11 15 0 0
BITMAP
002080
0070D0
000000
0B0038
0A00B8
0E02F4
0D07B4
1D0E70
1C2CB0
2CB4A0
29D0E0
3B80D0
3F00D0
7D01C0
7401C0
ENDCHAR
STARTCHAR uni04E5
ENCODING 1253
SWIDTH 564 0
DWIDTH 9 0
BBX 9 12 0 0
BITMAP
014500
024A00
000000
1C0740
1C1F40
2C3F00
28BB00
39DA00
374E00
7E0D00
7C1D00
B41C00
ENDCHAR
STARTCHAR uni04E6
ENCODING 1254
SWIDTH 671 0
DWIDTH 11 0
BBX 9 15 1 0
BITMAP
018200
018700
000000
02F900
0F5B40
280280
7401C0
B001C0
E001C0
D002C0
D00380
E00740
B00A00
796C00
1BE000
ENDCHAR
STARTCHAR uni04E7
ENCODING 1255
SWIDTH 558 0
DWIDTH 9 0
BBX 8 12 0 0
BITMAP
0245
034A
0000
06F8
0E5E
280B
3407
7007
700B
740E
2D6C
0BE0
ENDCHAR
STARTCHAR uni04E8
ENCODING 1256
SWIDTH 664 0
DWIDTH 11 0
BBX 9 12 1 0
BITMAP
02F900
1E5B00
280280
700280
A002C0
FFFFC0
D55680
D00380
D00740
A00E00
797C00
1FE000
ENDCHAR
STARTCHAR uni04E9
ENCODING 1257
SWIDTH 555 0
DWIDTH 9 0
BBX 8 9 0 0
BITMAP
02F8
0E5E
2407
3FFF
755B
700B
741E
2D78
0BE0
ENDCHAR
STARTCHAR uni04EA
ENCODING 1258
SWIDTH 664 0
DWIDTH 11 0
BBX 9 15 1 0
BITMAP
018200
01C340
000000
02F900
1E5B00
280280
700280
A002C0
FFFFC0
D55680
D00380
D00740
A00E00
797C00
1FE000
ENDCHAR
STARTCHAR uni04EB
ENCODING 1259
SWIDTH 555 0
DWIDTH 9 0
BBX 8 12 0 0
BITMAP
0245
034A
0000
02F8
0E5E
2407
3FFF
755B
700B
741E
2D78
0BE0
ENDCHAR
STARTCHAR uni04EC
ENCODING 1260
SWIDTH 658 0
DWIDTH 11 0
BBX 9 15 1 0
BITMAP
014200
028700
000000
06F900
1E5B00
280380
2402C0
0002C0
0002C0
03FF80
015740
900740
E00A00
796C00
1BE000
ENDCHAR
STARTCHAR uni04ED
ENCODING 1261
SWIDTH 526 0
DWIDTH 8 0
BBX 8 12 0 0
BITMAP
0205
0349
0000
06E4
1D6C
240D
000D
03FD
015D
702C
79B4
1F90
ENDCHAR
STARTCHAR uni04EE
ENCODING 1262
SWIDTH 614 0
DWIDTH 10 0
BBX 10 14 1 0
BITMAP
03FF00
000000
3402D0
280380
2C0B00
1D1E00
0E2C00
0A7400
0BF000
07D000
038000
074000
5E0000
B80000
ENDCHAR
STARTCHAR uni04EF
ENCODING 1263
SWIDTH 463 0
DWIDTH 7 0
BBX 9 14 -1 -3
BITMAP
02FF40
000000
0D0380
0E0700
0A0E00
0B1C00
072800
077000
03E000
03C000
028000
070000
5D0000
B80000
ENDCHAR
STARTCHAR uni04F0
ENCODING 1264
SWIDTH 614 0
DWIDTH 10 0
BBX 10 15 1 0
BITMAP
024500
034A00
000000
3402D0
280380
2C0B00
1D1E00
0E2C00
0A7400
0BF000
07D000
038000
074000
5E0000
B80000
ENDCHAR
STARTCHAR uni04F1
ENCODING 1265
SWIDTH 463 0
DWIDTH 7 0
BBX 9 15 -1 -3
BITMAP
018200
01C340
000000
0D0380
0E0700
0A0E00
0B1C00
072800
077000
03E000
03C000
028000
070000
5D0000
B80000
ENDCHAR
STARTCHAR uni04F2
ENCODING 1266
SWIDTH 614 0
DWIDTH 10 0
BBX 10 15 1 0
BITMAP
00B780
019D00
000000
3402D0
280380
2C0B00
1D1E00
0E2C00
0A7400
0BF000
07D000
038000
074000
5E0000
B80000
ENDCHAR
STARTCHAR uni04F3
ENCODING 1267
SWIDTH 463 0
DWIDTH 7 0
BBX 10 15 -1 -3
BITMAP
007AD0
00AA00
000000
0D0380
0E0700
0A0E00
0B1C00
072800
077000
03E000
03C000
028000
070000
5D0000
B80000
ENDCHAR
STARTCHAR uni04F4
ENCODING 1268
SWIDTH 668 0
DWIDTH 11 0
BBX 10 15 1 0
BITMAP
014200
028700
000000
2800D0
3801D0
3401C0
7402C0
740280
380780
1FFF40
014340
000700
000700
000A00
000A00
ENDCHAR
STARTCHAR uni04F5
ENCODING 1269
SWIDTH 532 0
DWIDTH 9 0
BBX 7 12 1 0
BITMAP
0820
1C34
0000
B02C
A028
E038
A074
7FF4
0070
00B0
00A0
00A0
ENDCHAR
STARTCHAR uni04F6
ENCODING 1270
SWIDTH 544 0
DWIDTH 9 0
BBX 10 15 0 -3
BITMAP
0BFFD0
0A5540
0E0000
0D0000
1D0000
1C0000
2C0000
280000
380000
340000
740000
7D0000
1C0000
1C0000
280000
ENDCHAR
STARTCHAR uni04F7
ENCODING 1271
SWIDTH 411 0
DWIDTH 7 0
BBX 7 12 0 -3
BITMAP
1FFC
1D54
2800
2800
3800
3400
7400
7000
BC00
1C00
2800
3800
ENDCHAR
STARTCHAR uni04F8
ENCODING 1272
SWIDTH 843 0
DWIDTH 14 0
BBX 13 15 0 0
BITMAP
00081400
000D2400
00000000
0B0001C0
0A0002C0
0E000280
0D000380
1D000340
1FFE0740
2D578700
2802CB00
3802CA00
34038E00
755B4D00
7FF81D00
ENDCHAR
STARTCHAR uni04F9
ENCODING 1273
SWIDTH 757 0
DWIDTH 12 0
BBX 12 12 0 0
BITMAP
002080
0070D0
000000
1D001D
1C001C
2C002C
2FE428
396C28
340D34
741D34
756870
BFE070
ENDCHAR
STARTCHAR uni04FA
ENCODING 1274
SWIDTH 576 0
DWIDTH 9 0
BBX 10 15 0 -3
BITMAP
03FFE0
075540
070000
0B0000
0A0000
7FE000
1E4000
1D0000
1C0000
2C0000
280000
3F0000
0A0000
5D0000
F80000
ENDCHAR
STARTCHAR uni04FB
ENCODING 1275
SWIDTH 449 0
DWIDTH 7 0
BBX 8 12 0 -3
BITMAP
0BFE
0A54
0D00
0D00
BFD0
2D40
2800
2800
3E00
0E00
6D00
F400
ENDCHAR
STARTCHAR uni04FC
ENCODING 1276
SWIDTH 632 0
DWIDTH 10 0
BBX 10 15 0 -3
BITMAP
1D00B0
0B02D0
074780
038E00
01EC00
00F400
01F000
03B800
0B2C00
1D1D00
780B00
E007C0
0002C0
001780
002E00
ENDCHAR
STARTCHAR uni04FD
ENCODING 1277
SWIDTH 520 0
DWIDTH 8 0
BBX 8 12 0 -3
BITMAP
281E
1D38
0AB0
07D0
0380
0BC0
2CD0
74B0
E03D
001C
0078
02E0
ENDCHAR
STARTCHAR uni04FE
ENCODING 1278
SWIDTH 612 0
DWIDTH 10 0
BBX 10 12 0 0
BITMAP
0D00B0
0B02D0
074740
028E00
01E800
07FE00
02F400
07B800
0F2C00
2D1E00
780B00
E00740
ENDCHAR
STARTCHAR uni04FF
ENCODING 1279
SWIDTH 485 0
DWIDTH 8 0
BBX 9 9 -1 0
BITMAP
0A0740
034E00
02A800
0BFD00
02F400
07F400
0F3800
2D2C00
780D00
ENDCHAR
STARTCHAR uni0500
ENCODING 1280
SWIDTH 606 0
DWIDTH 10 0
BBX 10 12 0 0
BITMAP
0000A0
0000E0
0000D0
0001D0
0001C0
06FFC0
2E5680
740380
700340
700740
395B00
1BFF00
ENDCHAR
STARTCHAR uni0501
ENCODING 1281
SWIDTH 551 0
DWIDTH 9 0
BBX 9 12 0 0
BITMAP
0002C0
000280
000340
06E740
1E5F00
280B00
340A00
700E00
700D00
741D00
397C00
1BAC00
ENDCHAR
STARTCHAR uni0502
ENCODING 1282
SWIDTH 802 0
DWIDTH 13 0
BBX 13 12 0 0
BITMAP
0000A000
0000E000
0000D000
0001D000
0001C000
06FFC000
2E568740
74038340
70034740
70074B00
395B5D00
0BFFF400
ENDCHAR
STARTCHAR uni0503
ENCODING 1283
SWIDTH 840 0
DWIDTH 13 0
BBX 13 12 0 0
BITMAP
00028000
00038000
00034000
06E74000
1E5F0240
280B0340
340A0340
700E0340
700D0700
701D0A00
396E6D00
1F87E400
ENDCHAR
STARTCHAR uni0504
ENCODING 1284
SWIDTH 772 0
DWIDTH 12 0
BBX 11 12 1 0
BITMAP
BF9000
15B400
003400
003400
01A020
3F8034
16C034
00D070
00D070
00D0E0
00E6C0
007E00
ENDCHAR
STARTCHAR uni0505
ENCODING 1285
SWIDTH 631 0
DWIDTH 10 0
BBX 9 9 1 0
BITMAP
FE0000
578000
02C100
078340
FE0340
5B0340
074700
075D00
02F400
ENDCHAR
STARTCHAR uni0506
ENCODING 1286
SWIDTH 524 0
DWIDTH 8 0
BBX 6 14 1 -2
BITMAP
7F80
15E0
0070
0070
00A0
02D0
BF40
1780
01C0
01C0
02E0
01F0
00A0
0180
ENDCHAR
STARTCHAR uni0507
ENCODING 1287
SWIDTH 493 0
DWIDTH 8 0
BBX 6 11 1 -2
BITMAP
BF40
15D0
00D0
01D0
BF40
1780
0280
02D0
02E0
00D0
0180
ENDCHAR
STARTCHAR uni0508
ENCODING 1288
SWIDTH 944 0
DWIDTH 15 0
BBX 16 12 -1 0
BITMAP
003FFE00
00355D00
00701D00
00B01C00
00A02C09
00D0280D
00D0380D
01C0340D
0280741C
03407428
1B0039B0
78001F90
ENDCHAR
STARTCHAR uni0509
ENCODING 1289
SWIDTH 787 0
DWIDTH 13 0
BBX 13 9 -1 0
BITMAP
00FFD000
01D6C040
01C2C1C0
028281C0
028381C0
03434280
07034340
1E039B00
7801F800
ENDCHAR
STARTCHAR uni050A
ENCODING 1290
SWIDTH 972 0
DWIDTH 16 0
BBX 15 12 0 0
BITMAP
0B003800
0A003400
0E003400
0D007000
1D007024
1C00A034
2FFFE034
2955D034
3800D070
3401D0A0
7400E6C0
70007E40
ENDCHAR
STARTCHAR uni050B
ENCODING 1291
SWIDTH 808 0
DWIDTH 13 0
BBX 12 9 0 0
BITMAP
1C0340
1C0701
280707
280B07
3FFE07
355E07
700D0E
700A6C
A006E4
ENDCHAR
STARTCHAR uni050C
ENCODING 1292
SWIDTH 606 0
DWIDTH 10 0
BBX 8 12 1 0
BITMAP
02FE
1E55
3800
7400
B000
E005
D00A
D00A
D00A
A00D
7978
1BE0
ENDCHAR
STARTCHAR uni050D
ENCODING 1293
SWIDTH 503 0
DWIDTH 8 0
BBX 7 9 0 0
BITMAP
02F8
0E54
2800
3400
7004
701C
341C
2D78
0BE0
ENDCHAR
STARTCHAR uni050E
ENCODING 1294
SWIDTH 692 0
DWIDTH 11 0
BBX 10 12 1 0
BITMAP
BFFFC0
55D540
01C000
02C000
028180
0381D0
0341D0
0741C0
0702C0
070380
079B00
02F800
ENDCHAR
STARTCHAR uni050F
ENCODING 1295
SWIDTH 626 0
DWIDTH 10 0
BBX 8 9 1 0
BITMAP
FFFC
5750
0B05
0A07
0E07
0D0B
0D0E
0E6C
07E4
ENDCHAR
STARTCHAR uni0510
ENCODING 1296
SWIDTH 658 0
DWIDTH 11 0
BBX 9 12 1 0
BITMAP
06FE00
1E5780
3801C0
340040
2D0000
0FF000
795000
A00000
D00100
E00740
B96E00
1BE400
ENDCHAR
STARTCHAR uni0511
ENCODING 1297
SWIDTH 527 0
DWIDTH 8 0
BBX 8 9 0 0
BITMAP
0BF8
2D5D
2805
0FE0
3900
7000
B018
7978
1BE0
ENDCHAR
STARTCHAR uni0512
ENCODING 1298
SWIDTH 733 0
DWIDTH 12 0
BBX 12 15 -1 -3
BITMAP
003FFE
00755E
00B00D
00A01D
00E01C
00D02C
01C028
01C038
028034
074074
1E0070
7800BD
00001C
000068
0001E0
ENDCHAR
STARTCHAR uni0513
ENCODING 1299
SWIDTH 604 0
DWIDTH 10 0
BBX 10 12 -1 -3
BITMAP
01FFD0
01D5D0
0281C0
0282C0
034280
070380
0B0340
1D0740
7807D0
0000D0
0006C0
001E40
ENDCHAR
STARTCHAR uni1E00
ENCODING 7680
SWIDTH 637 0
DWIDTH 10 0
BBX 10 16 -1 -4
BITMAP
000B00
001F00
002B40
007680
00A280
01D2C0
0281C0
0741D0
0BFFD0
1D55E0
3800A0
740070
000000
00B000
01A400
00A000
ENDCHAR
STARTCHAR uni1E01
ENCODING 7681
SWIDTH 532 0
DWIDTH 9 0
BBX 8 13 0 -4
BITMAP
06F4
1E6D
280D
000D
1BFD
391C
702C
75B8
2FAC
0000
1E00
2600
1E00
ENDCHAR
STARTCHAR uni1E3E
ENCODING 7742
SWIDTH 851 0
DWIDTH 14 0
BBX 14 15 0 0
BITMAP
0000B400
0001D000
00000000
0B4002D0
0B8007D0
0F800BC0
0EC01EC0
1DD03A80
1CD07380
28A0E340
28A2C740
38734700
343B0B00
743D0A00
70280E00
ENDCHAR
STARTCHAR uni1E3F
ENCODING 7743
SWIDTH 854 0
DWIDTH 14 0
BBX 13 12 0 0
BITMAP
0000B000
00028000
00000000
1DF87E00
2E5F9740
280B0280
380E0280
340D0340
740D0340
701C0700
B01C0700
A0280A00
ENDCHAR
STARTCHAR Wgrave
ENCODING 7808
SWIDTH 865 0
DWIDTH 14 0
BBX 14 15 1 0
BITMAP
001D0000
000A0000
00000000
700A01D0
701E02C0
702F0380
743B0740
34730B00
34D34D00
35C35C00
36826800
3B42B400
2E02F000
2D01E000
2C01D000
ENDCHAR
STARTCHAR wgrave
ENCODING 7809
SWIDTH 733 0
DWIDTH 12 0
BBX 11 12 1 0
BITMAP
00A000
003400
000000
D07028
D0B434
A1F470
A2A4D0
A329C0
6A1A80
7D1F40
781E00
340D00
ENDCHAR
STARTCHAR Wacute
ENCODING 7810
SWIDTH 865 0
DWIDTH 14 0
BBX 14 15 1 0
BITMAP
0001D000
00074000
00000000
700A01D0
701E02C0
702F0380
743B0740
34730B00
34D34D00
35C35C00
36826800
3B42B400
2E02F000
2D01E000
2C01D000
ENDCHAR
STARTCHAR wacute
ENCODING 7811
SWIDTH 733 0
DWIDTH 12 0
BBX 11 12 1 0
BITMAP
000A00
002800
000000
D07028
D0B434
A1F470
A2A4D0
A329C0
6A1A80
7D1F40
781E00
340D00
ENDCHAR
STARTCHAR Wdieresis
ENCODING 7812
SWIDTH 865 0
DWIDTH 14 0
BBX 14 15 1 0
BITMAP
00245000
0034A000
00000000
700A01D0
701E02C0
702F0380
743B0740
34730B00
34D34D00
35C35C00
36826800
3B42B400
2E02F000
2D01E000
2C01D000
ENDCHAR
STARTCHAR wdieresis
ENCODING 7813
SWIDTH 733 0
DWIDTH 12 0
BBX 11 12 1 0
BITMAP
018200
018700
000000
D07028
D0B434
A1F470
A2A4D0
A329C0
6A1A80
7D1F40
781E00
340D00
ENDCHAR
STARTCHAR uni1EA0
ENCODING 7840
SWIDTH 637 0
DWIDTH 10 0
BBX 10 15 -1 -3
BITMAP
000B00
001F00
002B40
007680
00A280
01D2C0
0281C0
0741D0
0BFFD0
1D55E0
3800A0
740070
000000
00A000
005000
ENDCHAR
STARTCHAR uni1EA1
ENCODING 7841
SWIDTH 532 0
DWIDTH 9 0
BBX 8 12 0 -3
BITMAP
06F4
1E6D
280D
000D
1BFD
391C
702C
75B8
2FAC
0000
0D00
0800
ENDCHAR
STARTCHAR uni1EA2
ENCODING 7842
SWIDTH 637 0
DWIDTH 10 0
BBX 10 16 -1 0
BITMAP
000280
0001D0
000340
000000
000B00
001F00
002B40
007680
00A280
01D2C0
0281C0
0741D0
0BFFD0
1D55E0
3800A0
740070
ENDCHAR
STARTCHAR uni1EA3
ENCODING 7843
SWIDTH 532 0
DWIDTH 9 0
BBX 8 13 0 0
BITMAP
0028
001D
0034
0000
06F4
1E6D
280D
000D
1BFD
391C
702C
75B8
2FAC
ENDCHAR
STARTCHAR uni1EA4
ENCODING 7844
SWIDTH 637 0
DWIDTH 10 0
BBX 13 16 -1 0
BITMAP
00000740
000B8900
0028A000
00000000
000B0000
001F0000
002B4000
00768000
00A28000
01D2C000
0281C000
0741D000
0BFFD000
1D55E000
3800A000
74007000
ENDCHAR
STARTCHAR uni1EA5
ENCODING 7845
SWIDTH 532 0
DWIDTH 9 0
BBX 11 13 0 0
BITMAP
000074
00B890
028A00
000000
06F400
1E6D00
280D00
000D00
1BFD00
391C00
702C00
75B800
2FAC00
ENDCHAR
STARTCHAR uni1EA6
ENCODING 7846
SWIDTH 637 0
DWIDTH 10 0
BBX 10 17 -1 0
BITMAP
02C000
008000
000B80
0028A0
000000
000B00
001F00
002B40
007680
00A280
01D2C0
0281C0
0741D0
0BFFD0
1D55E0
3800A0
740070
ENDCHAR
STARTCHAR uni1EA7
ENCODING 7847
SWIDTH 532 0
DWIDTH 9 0
BBX 8 14 0 0
BITMAP
2800
0800
00B8
028A
0000
06F4
1E6D
280D
000D
1BFD
391C
702C
75B8
2FAC
ENDCHAR
STARTCHAR uni1EA8
ENCODING 7848
SWIDTH 637 0
DWIDTH 10 0
BBX 12 18 -1 0
BITMAP
00000D
000006
000018
000B80
0028A0
000000
000B00
001F00
002B40
007680
00A280
01D2C0
0281C0
0741D0
0BFFD0
1D55E0
3800A0
740070
ENDCHAR
STARTCHAR uni1EA9
ENCODING 7849
SWIDTH 532 0
DWIDTH 9 0
BBX 10 15 0 0
BITMAP
0000D0
0000A0
000180
01B800
074A00
000000
06F400
1E6D00
280D00
000D00
1BFD00
391C00
702C00
75B800
2FAC00
ENDCHAR
STARTCHAR uni1EAA
ENCODING 7850
SWIDTH 637 0
DWIDTH 10 0
BBX 10 18 -1 0
BITMAP
000A20
0009D0
000000
000B80
0028A0
000000
000B00
001F00
002B40
007680
00A280
01D2C0
0281C0
0741D0
0BFFD0
1D55E0
3800A0
740070
ENDCHAR
STARTCHAR uni1EAB
ENCODING 7851
SWIDTH 532 0
DWIDTH 9 0
BBX 8 15 0 0
BITMAP
00A2
019D
0000
00B8
0749
0000
06F4
1E6D
280D
000D
1BFD
391C
702C
75B8
2FAC
ENDCHAR
STARTCHAR uni1EAC
ENCODING 7852
SWIDTH 637 0
DWIDTH 10 0
BBX 10 18 -1 -3
BITMAP
001B80
0038A0
000000
000B00
001F00
002B40
007680
00A280
01D2C0
0281C0
0741D0
0BFFD0
1D55E0
3800A0
740070
000000
00A000
005000
ENDCHAR
STARTCHAR uni1EAD
ENCODING 7853
SWIDTH 532 0
DWIDTH 9 0
BBX 8 15 0 -3
BITMAP
01B8
038E
0000
06F4
1E6D
280D
000D
1BFD
391C
702C
75B8
2FAC
0000
0D00
0800
ENDCHAR
STARTCHAR uni1EAE
ENCODING 7854
SWIDTH 637 0
DWIDTH 10 0
BBX 10 18 -1 0
BITMAP
0000D0
000140
000000
0028A0
000B90
000000
000B00
001F00
002B40
007680
00A280
01D2C0
0281C0
0741D0
0BFFD0
1D55E0
3800A0
740070
ENDCHAR
STARTCHAR uni1EAF
ENCODING 7855
SWIDTH 532 0
DWIDTH 9 0
BBX 8 15 0 0
BITMAP
000C
0014
0000
028A
00B8
0000
06F4
1E6D
280D
000D
1BFD
391C
702C
75B8
2FAC
ENDCHAR
STARTCHAR uni1EB0
ENCODING 7856
SWIDTH 637 0
DWIDTH 10 0
BBX 10 17 -1 0
BITMAP
000600
000200
0028A0
000B90
000000
000B00
001F00
002B40
007680
00A280
01D2C0
0281C0
0741D0
0BFFD0
1D55E0
3800A0
740070
ENDCHAR
STARTCHAR uni1EB1
ENCODING 7857
SWIDTH 532 0
DWIDTH 9 0
BBX 8 14 0 0
BITMAP
0060
0020
028A
00B8
0000
06F4
1E6D
280D
000D
1BFD
391C
702C
75B8
2FAC
ENDCHAR
STARTCHAR uni1EB2
ENCODING 7858
SWIDTH 637 0
DWIDTH 10 0
BBX 10 18 -1 0
BITMAP
000290
000090
000240
0028A0
000B80
000000
000B00
001F00
002B40
007680
00A280
01D2C0
0281C0
0741D0
0BFFD0
1D55E0
3800A0
740070
ENDCHAR
STARTCHAR uni1EB3
ENCODING 7859
SWIDTH 532 0
DWIDTH 9 0
BBX 8 15 0 0
BITMAP
0028
0019
0034
028A
00B8
0000
06F4
1E6D
280D
000D
1BFD
391C
702C
75B8
2FAC
ENDCHAR
STARTCHAR uni1EB4
ENCODING 7860
SWIDTH 637 0
DWIDTH 10 0
BBX 10 18 -1 0
BITMAP
000A20
0009E0
000000
0018A0
000B80
000000
000B00
001F00
002B40
007680
00A280
01D2C0
0281C0
0741D0
0BFFD0
1D55E0
3800A0
740070
ENDCHAR
STARTCHAR uni1EB5
ENCODING 7861
SWIDTH 532 0
DWIDTH 9 0
BBX 8 15 0 0
BITMAP
00A2
019E
0000
028A
00B8
0000
06F4
1E6D
280D
000D
1BFD
391C
702C
75B8
2FAC
ENDCHAR
STARTCHAR uni1EB6
ENCODING 7862
SWIDTH 637 0
DWIDTH 10 0
BBX 10 18 -1 -3
BITMAP
0018A0
000B90
000000
000B00
001F00
002B40
007680
00A280
01D2C0
0281C0
0741D0
0BFFD0
1D55E0
3800A0
740070
000000
00A000
005000
ENDCHAR
STARTCHAR uni1EB7
ENCODING 7863
SWIDTH 532 0
DWIDTH 9 0
BBX 8 15 0 -3
BITMAP
028A
00B8
0000
06F4
1E6D
280D
000D
1BFD
391C
702C
75B8
2FAC
0000
0D00
0800
ENDCHAR
STARTCHAR uni1EB8
ENCODING 7864
SWIDTH 556 0
DWIDTH 9 0
BBX 10 15 0 -3
BITMAP
0BFFD0
0A5540
0D0000
0D0000
1C0000
1FFE00
2D5400
280000
340000
340000
755400
7FFE00
000000
034000
020000
ENDCHAR
STARTCHAR uni1EB9
ENCODING 7865
SWIDTH 518 0
DWIDTH 8 0
BBX 8 12 0 -3
BITMAP
02F4
0E5D
2C0A
340A
7FFE
7554
3400
2D6C
0BE0
0000
0600
0500
ENDCHAR
STARTCHAR uni1EBA
ENCODING 7866
SWIDTH 556 0
DWIDTH 9 0
BBX 10 16 0 0
BITMAP
000E00
000700
001900
000000
0BFFD0
0A5540
0D0000
0D0000
1C0000
1FFE00
2D5400
280000
340000
340000
755400
7FFE00
ENDCHAR
STARTCHAR uni1EBB
ENCODING 7867
SWIDTH 518 0
DWIDTH 8 0
BBX 8 13 0 0
BITMAP
0038
001C
0074
0000
02F4
0E5D
2C0A
340A
7FFE
7554
3400
2D6C
0BE0
ENDCHAR
STARTCHAR uni1EBC
ENCODING 7868
SWIDTH 556 0
DWIDTH 9 0
BBX 10 16 0 0
BITMAP
000040
00F580
028B40
000000
0BFFD0
0A5540
0D0000
0D0000
1C0000
1FFE00
2D5400
280000
340000
340000
755400
7FFE00
ENDCHAR
STARTCHAR uni1EBD
ENCODING 7869
SWIDTH 518 0
DWIDTH 8 0
BBX 8 13 0 0
BITMAP
0001
03D7
062D
0000
02F4
0E5D
2C0A
340A
7FFE
7554
3400
2D6C
0BE0
ENDCHAR
STARTCHAR uni1EBE
ENCODING 7870
SWIDTH 556 0
DWIDTH 9 0
BBX 11 16 0 0
BITMAP
00002C
007D70
01D740
000000
0BFFD0
0A5540
0D0000
0D0000
1C0000
1FFE00
2D5400
280000
340000
340000
755400
7FFE00
ENDCHAR
STARTCHAR uni1EBF
ENCODING 7871
SWIDTH 518 0
DWIDTH 8 0
BBX 10 13 0 0
BITMAP
0000B0
01B9D0
078D00
000000
02F400
0E5D00
2C0A00
340A00
7FFE00
755400
340000
2D6C00
0BE000
ENDCHAR
STARTCHAR uni1EC0
ENCODING 7872
SWIDTH 556 0
DWIDTH 9 0
BBX 10 17 0 0
BITMAP
0D0000
060000
007D00
01D740
000000
0BFFD0
0A5540
0D0000
0D0000
1C0000
1FFE00
2D5400
280000
340000
340000
755400
7FFE00
ENDCHAR
STARTCHAR uni1EC1
ENCODING 7873
SWIDTH 518 0
DWIDTH 8 0
BBX 8 14 0 0
BITMAP
2800
1800
01B8
074D
0000
02F4
0E5D
2C0A
340A
7FFE
7554
3400
2D6C
0BE0
ENDCHAR
STARTCHAR uni1EC2
ENCODING 7874
SWIDTH 556 0
DWIDTH 9 0
BBX 11 18 0 0
BITMAP
000060
000024
0000A0
007E00
01D240
000000
0BFFD0
0A5540
0D0000
0D0000
1C0000
1FFE00
2D5400
280000
340000
340000
755400
7FFE00
ENDCHAR
STARTCHAR uni1EC3
ENCODING 7875
SWIDTH 518 0
DWIDTH 8 0
BBX 10 15 0 0
BITMAP
000190
000090
000280
01F800
074900
000000
02F400
0E5D00
2C0A00
340A00
7FFE00
755400
340000
2D6C00
0BE000
ENDCHAR
STARTCHAR uni1EC4
ENCODING 7876
SWIDTH 556 0
DWIDTH 9 0
BBX 10 18 0 0
BITMAP
003540
005B00
000000
007D00
01D240
000000
0BFFD0
0A5540
0D0000
0D0000
1C0000
1FFE00
2D5400
280000
340000
340000
755400
7FFE00
ENDCHAR
STARTCHAR uni1EC5
ENCODING 7877
SWIDTH 518 0
DWIDTH 8 0
BBX 8 15 0 0
BITMAP
00D5
015C
0000
01B4
0749
0000
02F4
0E5D
2C0A
340A
7FFE
7554
3400
2D6C
0BE0
ENDCHAR
STARTCHAR uni1EC6
ENCODING 7878
SWIDTH 556 0
DWIDTH 9 0
BBX 10 18 0 -3
BITMAP
006E00
01E740
000000
0BFFD0
0A5540
0D0000
0D0000
1C0000
1FFE00
2D5400
280000
340000
340000
755400
7FFE00
000000
034000
020000
ENDCHAR
STARTCHAR uni1EC7
ENCODING 7879
SWIDTH 518 0
DWIDTH 8 0
BBX 8 15 0 -3
BITMAP
01B8
079D
0000
02F4
0E5D
2C0A
340A
7FFE
7554
3400
2D6C
0BE0
0000
0600
0500
ENDCHAR
STARTCHAR uni1EC8
ENCODING 7880
SWIDTH 268 0
DWIDTH 4 0
BBX 6 16 0 0
BITMAP
0280
01D0
0340
0000
0B00
0A00
0E00
0D00
1D00
1C00
2C00
2800
3800
3400
7400
7000
ENDCHAR
STARTCHAR uni1EC9
ENCODING 7881
SWIDTH 244 0
DWIDTH 4 0
BBX 5 13 0 0
BITMAP
0740
0280
0A00
0000
1D00
1C00
2C00
2800
3800
3400
7400
7000
B000
ENDCHAR
STARTCHAR uni1ECA
ENCODING 7882
SWIDTH 268 0
DWIDTH 4 0
BBX 4 15 0 -3
BITMAP
0B
0A
0E
0D
1D
1C
2C
28
38
34
74
70
00
A0
50
ENDCHAR
STARTCHAR uni1ECB
ENCODING 7883
SWIDTH 240 0
DWIDTH 4 0
BBX 4 15 0 -3
BITMAP
05
0A
00
1D
1C
2C
28
38
34
74
70
B0
00
D0
90
ENDCHAR
STARTCHAR uni1ECC
ENCODING 7884
SWIDTH 671 0
DWIDTH 11 0
BBX 9 15 1 -3
BITMAP
02F900
0F5B40
280280
7401C0
B001C0
E001C0
D002C0
D00380
E00740
B00A00
796C00
1BE000
000000
060000
050000
ENDCHAR
STARTCHAR uni1ECD
ENCODING 7885
SWIDTH 558 0
DWIDTH 9 0
BBX 8 12 0 -3
BITMAP
06F8
0E5E
280B
3407
7007
700B
740E
2D6C
0BE0
0000
0700
0600
ENDCHAR
STARTCHAR uni1ECE
ENCODING 7886
SWIDTH 671 0
DWIDTH 11 0
BBX 9 16 1 0
BITMAP
001D00
000A00
002800
000000
02F900
0F5B40
280280
7401C0
B001C0
E001C0
D002C0
D00380
E00740
B00A00
796C00
1BE000
ENDCHAR
STARTCHAR uni1ECF
ENCODING 7887
SWIDTH 558 0
DWIDTH 9 0
BBX 8 13 0 0
BITMAP
0038
001C
0074
0000
06F8
0E5E
280B
3407
7007
700B
740E
2D6C
0BE0
ENDCHAR
STARTCHAR uni1ED0
ENCODING 7888
SWIDTH 671 0
DWIDTH 11 0
BBX 11 16 1 0
BITMAP
000038
007DA0
02D600
000000
02F900
0F5B40
280280
7401C0
B001C0
E001C0
D002C0
D00380
E00740
B00A00
796C00
1BE000
ENDCHAR
STARTCHAR uni1ED1
ENCODING 7889
SWIDTH 558 0
DWIDTH 9 0
BBX 11 13 0 0
BITMAP
000074
01B9D0
078900
000000
06F800
0E5E00
280B00
340700
700700
700B00
740E00
2D6C00
0BE000
ENDCHAR
STARTCHAR uni1ED2
ENCODING 7890
SWIDTH 671 0
DWIDTH 11 0
BBX 9 17 1 0
BITMAP
1C0000
090000
00BD00
02D600
000000
02F900
0F5B40
280280
7401C0
B001C0
E001C0
D002C0
D00380
E00740
B00A00
796C00
1BE000
ENDCHAR
STARTCHAR uni1ED3
ENCODING 7891
SWIDTH 558 0
DWIDTH 9 0
BBX 8 14 0 0
BITMAP
2800
1800
01B8
0789
0000
06F8
0E5E
280B
3407
7007
700B
740E
2D6C
0BE0
ENDCHAR
STARTCHAR uni1ED4
ENCODING 7892
SWIDTH 671 0
DWIDTH 11 0
BBX 10 18 1 0
BITMAP
0000A0
000070
0000D0
00BD00
028600
000000
02F900
0F5B40
280280
7401C0
B001C0
E001C0
D002C0
D00380
E00740
B00A00
796C00
1BE000
ENDCHAR
STARTCHAR uni1ED5
ENCODING 7893
SWIDTH 558 0
DWIDTH 9 0
BBX 10 15 0 0
BITMAP
0001D0
000090
000280
01F800
074900
000000
06F800
0E5E00
280B00
340700
700700
700B00
740E00
2D6C00
0BE000
ENDCHAR
STARTCHAR uni1ED6
ENCODING 7894
SWIDTH 671 0
DWIDTH 11 0
BBX 9 18 1 0
BITMAP
007600
008A00
000000
00B800
028600
000000
02F900
0F5B40
280280
7401C0
B001C0
E001C0
D002C0
D00380
E00740
B00A00
796C00
1BE000
ENDCHAR
STARTCHAR uni1ED7
ENCODING 7895
SWIDTH 558 0
DWIDTH 9 0
BBX 8 15 0 0
BITMAP
00E6
015D
0000
01B4
0749
0000
06F8
0E5E
280B
3407
7007
700B
740E
2D6C
0BE0
ENDCHAR
STARTCHAR uni1ED8
ENCODING 7896
SWIDTH 671 0
DWIDTH 11 0
BBX 9 18 1 -3
BITMAP
00BD00
02DB00
000000
02F900
0F5B40
280280
7401C0
B001C0
E001C0
D002C0
D00380
E00740
B00A00
796C00
1BE000
000000
060000
050000
ENDCHAR
STARTCHAR uni1ED9
ENCODING 7897
SWIDTH 558 0
DWIDTH 9 0
BBX 8 15 0 -3
BITMAP
01B8
039D
0000
06F8
0E5E
280B
3407
7007
700B
740E
2D6C
0BE0
0000
0700
0600
ENDCHAR
STARTCHAR uni1EDA
ENCODING 7898
SWIDTH 670 0
DWIDTH 11 0
BBX 11 15 1 0
BITMAP
000E00
002800
00001C
02F928
1E5BE0
380380
7002C0
A002C0
E002C0
D00280
D00340
D00700
A00E00
797800
1BE000
ENDCHAR
STARTCHAR uni1EDB
ENCODING 7899
SWIDTH 559 0
DWIDTH 9 0
BBX 10 12 0 0
BITMAP
001E00
007400
000060
02F8A0
0E5F80
280700
340700
700700
700B00
740D00
297800
0BE000
ENDCHAR
STARTCHAR uni1EDC
ENCODING 7900
SWIDTH 670 0
DWIDTH 11 0
BBX 11 15 1 0
BITMAP
00E000
007000
00001C
02F928
1E5BE0
380380
7002C0
A002C0
E002C0
D00280
D00340
D00700
A00E00
797800
1BE000
ENDCHAR
STARTCHAR uni1EDD
ENCODING 7901
SWIDTH 559 0
DWIDTH 9 0
BBX 10 12 0 0
BITMAP
01D000
006000
000060
02F8A0
0E5F80
280700
340700
700700
700B00
740D00
297800
0BE000
ENDCHAR
STARTCHAR uni1EDE
ENCODING 7902
SWIDTH 670 0
DWIDTH 11 0
BBX 11 16 1 0
BITMAP
002D00
000A00
002800
00001C
02F928
1E5BE0
380380
7002C0
A002C0
E002C0
D00280
D00340
D00700
A00E00
797800
1BE000
ENDCHAR
STARTCHAR uni1EDF
ENCODING 7903
SWIDTH 559 0
DWIDTH 9 0
BBX 10 13 0 0
BITMAP
002800
001D00
003400
000060
02F8A0
0E5F80
280700
340700
700700
700B00
740D00
297800
0BE000
ENDCHAR
STARTCHAR uni1EE0
ENCODING 7904
SWIDTH 670 0
DWIDTH 11 0
BBX 11 15 1 0
BITMAP
01E640
035E00
00001C
02F928
1E5BE0
380380
7002C0
A002C0
E002C0
D00280
D00340
D00700
A00E00
797800
1BE000
ENDCHAR
STARTCHAR uni1EE1
ENCODING 7905
SWIDTH 559 0
DWIDTH 9 0
BBX 10 12 0 0
BITMAP
02E700
061E00
000060
02F8A0
0E5F80
280700
340700
700700
700B00
740D00
297800
0BE000
ENDCHAR
STARTCHAR uni1EE2
ENCODING 7906
SWIDTH 670 0
DWIDTH 11 0
BBX 11 16 1 -3
BITMAP
00001C
02F928
1E5BE0
380380
7002C0
A002C0
E002C0
D00280
D00340
D00700
A00E00
797800
1BE000
000000
0A0000
050000
ENDCHAR
STARTCHAR uni1EE3
ENCODING 7907
SWIDTH 559 0
DWIDTH 9 0
BBX 10 13 0 -3
BITMAP
000060
02F8A0
0E5F80
280700
340700
700700
700B00
740D00
297800
0BE000
000000
060000
050000
ENDCHAR
STARTCHAR uni1EE4
ENCODING 7908
SWIDTH 633 0
DWIDTH 10 0
BBX 10 15 1 -3
BITMAP
3801D0
3401C0
3402C0
700280
700380
A00340
A00740
D00700
D00A00
E00D00
B97800
1FE000
000000
090000
050000
ENDCHAR
STARTCHAR uni1EE5
ENCODING 7909
SWIDTH 539 0
DWIDTH 9 0
BBX 7 12 1 -3
BITMAP
701C
701C
A028
A028
D034
D034
D074
E5F0
7EB0
0000
3400
2000
ENDCHAR
STARTCHAR uni1EE6
ENCODING 7910
SWIDTH 633 0
DWIDTH 10 0
BBX 10 16 1 0
BITMAP
002800
001D00
003400
000000
3801D0
3401C0
3402C0
700280
700380
A00340
A00740
D00700
D00A00
E00D00
B97800
1FE000
ENDCHAR
STARTCHAR uni1EE7
ENCODING 7911
SWIDTH 539 0
DWIDTH 9 0
BBX 7 13 1 0
BITMAP
00E0
0070
01D0
0000
701C
701C
A028
A028
D034
D034
D074
E5F0
7EB0
ENDCHAR
STARTCHAR uni1EE8
ENCODING 7912
SWIDTH 679 0
DWIDTH 11 0
BBX 12 15 1 0
BITMAP
000E00
002800
000001
2801D7
3801DA
3402F8
740280
700380
B00340
A00740
E00700
D00B00
E00E00
797C00
1FE000
ENDCHAR
STARTCHAR uni1EE9
ENCODING 7913
SWIDTH 604 0
DWIDTH 10 0
BBX 10 12 1 0
BITMAP
007400
01D000
000050
701D90
701F40
A02C00
A02800
D03800
D03400
D07400
E5F000
7EB000
ENDCHAR
STARTCHAR uni1EEA
ENCODING 7914
SWIDTH 679 0
DWIDTH 11 0
BBX 12 15 1 0
BITMAP
00E000
007000
000001
2801D7
3801DA
3402F8
740280
700380
B00340
A00740
E00700
D00B00
E00E00
797C00
1FE000
ENDCHAR
STARTCHAR uni1EEB
ENCODING 7915
SWIDTH 604 0
DWIDTH 10 0
BBX 10 12 1 0
BITMAP
074000
018000
000050
701D90
701F40
A02C00
A02800
D03800
D03400
D07400
E5F000
7EB000
ENDCHAR
STARTCHAR uni1EEC
ENCODING 7916
SWIDTH 679 0
DWIDTH 11 0
BBX 12 16 1 0
BITMAP
002900
000900
002800
000001
2801D7
3801DA
3402F8
740280
700380
B00340
A00740
E00700
D00B00
E00E00
797C00
1FE000
ENDCHAR
STARTCHAR uni1EED
ENCODING 7917
SWIDTH 604 0
DWIDTH 10 0
BBX 10 13 1 0
BITMAP
00E000
007000
00D000
000050
701D90
701F40
A02C00
A02800
D03800
D03400
D07400
E5F000
7EB000
ENDCHAR
STARTCHAR uni1EEE
ENCODING 7918
SWIDTH 679 0
DWIDTH 11 0
BBX 12 15 1 0
BITMAP
01E640
035E00
000001
2801D7
3801DA
3402F8
740280
700380
B00340
A00740
E00700
D00B00
E00E00
797C00
1FE000
ENDCHAR
STARTCHAR uni1EEF
ENCODING 7919
SWIDTH 604 0
DWIDTH 10 0
BBX 10 12 1 0
BITMAP
0B9C00
18B400
000050
701D90
701F40
A02C00
A02800
D03800
D03400
D07400
E5F000
7EB000
ENDCHAR
STARTCHAR uni1EF0
ENCODING 7920
SWIDTH 679 0
DWIDTH 11 0
BBX 12 16 1 -3
BITMAP
000001
2801D7
3801DA
3402F8
740280
700380
B00340
A00740
E00700
D00B00
E00E00
797C00
1FE000
000000
0A0000
050000
ENDCHAR
STARTCHAR uni1EF1
ENCODING 7921
SWIDTH 604 0
DWIDTH 10 0
BBX 10 13 1 -3
BITMAP
000050
701D90
701F40
A02C00
A02800
D03800
D03400
D07400
E5F000
7EB000
000000
280000
140000
ENDCHAR
STARTCHAR Ygrave
ENCODING 7922
SWIDTH 587 0
DWIDTH 9 0
BBX 9 15 1 0
BITMAP
02C000
009000
000000
B002C0
740740
380E00
1C2C00
0D7400
0AE000
07C000
074000
070000
070000
0A0000
0A0000
ENDCHAR
STARTCHAR ygrave
ENCODING 7923
SWIDTH 463 0
DWIDTH 7 0
BBX 9 15 -1 -3
BITMAP
00A000
002400
000000
0D0380
0E0700
0A0E00
0B1C00
072800
077000
03E000
03C000
028000
070000
5D0000
B80000
ENDCHAR
STARTCHAR uni1EF4
ENCODING 7924
SWIDTH 587 0
DWIDTH 9 0
BBX 9 15 1 -3
BITMAP
B002C0
740740
380E00
1C2C00
0D7400
0AE000
07C000
074000
070000
070000
0A0000
0A0000
000000
1C0000
080000
ENDCHAR
STARTCHAR uni1EF5
ENCODING 7925
SWIDTH 463 0
DWIDTH 7 0
BBX 9 13 -1 -4
BITMAP
0D0380
0E0700
0A0E00
0B1C00
072800
077000
03E000
03C000
028000
070000
5D0000
B8A000
005000
ENDCHAR
STARTCHAR uni1EF6
ENCODING 7926
SWIDTH 587 0
DWIDTH 9 0
BBX 9 16 1 0
BITMAP
003800
001C00
006000
000000
B002C0
740740
380E00
1C2C00
0D7400
0AE000
07C000
074000
070000
070000
0A0000
0A0000
ENDCHAR
STARTCHAR uni1EF7
ENCODING 7927
SWIDTH 463 0
DWIDTH 7 0
BBX 9 16 -1 -3
BITMAP
001D00
000A00
002800
000000
0D0380
0E0700
0A0E00
0B1C00
072800
077000
03E000
03C000
028000
070000
5D0000
B80000
ENDCHAR
STARTCHAR uni1EF8
ENCODING 7928
SWIDTH 587 0
DWIDTH 9 0
BBX 9 16 1 0
BITMAP
000100
03D600
0A2D00
000000
B002C0
740740
380E00
1C2C00
0D7400
0AE000
07C000
074000
070000
070000
0A0000
0A0000
ENDCHAR
STARTCHAR uni1EF9
ENCODING 7929
SWIDTH 463 0
DWIDTH 7 0
BBX 9 15 -1 -3
BITMAP
01F680
025E00
000000
0D0380
0E0700
0A0E00
0B1C00
072800
077000
03E000
03C000
028000
070000
5D0000
B80000
ENDCHAR
STARTCHAR uni1F4D
ENCODING 8013
SWIDTH 706 0
DWIDTH 11 0
BBX 14 12 -3 0
BITMAP
71C1BE00
73479780
261D01D0
002800D0
003400E0
007400E0
007000D0
007001D0
007002C0
00340740
002D6E00
000BE400
ENDCHAR
STARTCHAR uni2000
ENCODING 8192
SWIDTH 499 0
DWIDTH 8 0
BBX 1 1 0 0
BITMAP
00
ENDCHAR
STARTCHAR uni2001
ENCODING 8193
SWIDTH 994 0
DWIDTH 16 0
BBX 1 1 0 0
BITMAP
00
ENDCHAR
STARTCHAR uni2002
ENCODING 8194
SWIDTH 499 0
DWIDTH 8 0
BBX 1 1 0 0
BITMAP
00
ENDCHAR
STARTCHAR uni2003
ENCODING 8195
SWIDTH 994 0
DWIDTH 16 0
BBX 1 1 0 0
BITMAP
00
ENDCHAR
STARTCHAR uni2004
ENCODING 8196
SWIDTH 334 0
DWIDTH 5 0
BBX 1 1 0 0
BITMAP
00
ENDCHAR
STARTCHAR uni2005
ENCODING 8197
SWIDTH 251 0
DWIDTH 4 0
BBX 1 1 0 0
BITMAP
00
ENDCHAR
STARTCHAR uni2006
ENCODING 8198
SWIDTH 169 0
DWIDTH 3 0
BBX 1 1 0 0
BITMAP
00
ENDCHAR
STARTCHAR uni2007
ENCODING 8199
SWIDTH 549 0
DWIDTH 9 0
BBX 1 1 0 0
BITMAP
00
ENDCHAR
STARTCHAR uni2008
ENCODING 8200
SWIDTH 270 0
DWIDTH 4 0
BBX 1 1 0 0
BITMAP
00
ENDCHAR
STARTCHAR uni2009
ENCODING 8201
SWIDTH 202 0
DWIDTH 3 0
BBX 1 1 0 0
BITMAP
00
ENDCHAR
STARTCHAR uni200A
ENCODING 8202
SWIDTH 104 0
DWIDTH 2 0
BBX 1 1 0 0
BITMAP
00
ENDCHAR
STARTCHAR uni200B
ENCODING 8203
SWIDTH 0 0
DWIDTH 0 0
BBX 1 1 0 0
BITMAP
00
ENDCHAR
STARTCHAR uni2010
ENCODING 8208
SWIDTH 271 0
DWIDTH 4 0
BBX 4 2 0 3
BITMAP
BF
15
ENDCHAR
STARTCHAR uni2011
ENCODING 8209
SWIDTH 271 0
DWIDTH 4 0
BBX 4 2 0 3
BITMAP
BF
15
ENDCHAR
STARTCHAR endash
ENCODING 8211
SWIDTH 641 0
DWIDTH 10 0
BBX 8 2 1 4
BITMAP
BFFF
1555
ENDCHAR
STARTCHAR emdash
ENCODING 8212
SWIDTH 762 0
DWIDTH 12 0
BBX 11 2 1 4
BITMAP
BFFFF8
155550
ENDCHAR
STARTCHAR uni2015
ENCODING 8213
SWIDTH 762 0
DWIDTH 12 0
BBX 11 2 1 4
BITMAP
BFFFF8
155550
ENDCHAR
STARTCHAR underscoredbl
ENCODING 8215
SWIDTH 446 0
DWIDTH 7 0
BBX 7 4 -1 -4
BITMAP
BFFC
5554
FFF8
5550
ENDCHAR
STARTCHAR quoteleft
ENCODING 8216
SWIDTH 198 0
DWIDTH 3 0
BBX 3 4 1 8
BITMAP
18
38
70
B0
ENDCHAR
STARTCHAR quoteright
ENCODING 8217
SWIDTH 198 0
DWIDTH 3 0
BBX 3 4 1 8
BITMAP
28
34
70
90
ENDCHAR
STARTCHAR quotesinglbase
ENCODING 8218
SWIDTH 197 0
DWIDTH 3 0
BBX 3 4 -1 -2
BITMAP
14
28
74
90
ENDCHAR
STARTCHAR quotereversed
ENCODING 8219
SWIDTH 198 0
DWIDTH 3 0
BBX 3 4 1 8
BITMAP
74
70
30
24
ENDCHAR
STARTCHAR quotedblleft
ENCODING 8220
SWIDTH 347 0
DWIDTH 6 0
BBX 6 4 1 8
BITMAP
1890
39C0
7380
B340
ENDCHAR
STARTCHAR quotedblright
ENCODING 8221
SWIDTH 351 0
DWIDTH 6 0
BBX 5 4 1 8
BITMAP
29C0
3AC0
7780
9600
ENDCHAR
STARTCHAR quotedblbase
ENCODING 8222
SWIDTH 338 0
DWIDTH 5 0
BBX 5 4 -1 -2
BITMAP
29C0
2AC0
7740
A600
ENDCHAR
STARTCHAR dagger
ENCODING 8224
SWIDTH 539 0
DWIDTH 9 0
BBX 8 12 1 0
BITMAP
01C0
0280
0280
FFFE
5754
0740
0700
0B00
0A00
0A00
0D00
0D00
ENDCHAR
STARTCHAR daggerdbl
ENCODING 8225
SWIDTH 557 0
DWIDTH 9 0
BBX 9 15 0 -3
BITMAP
007000
00B000
00A000
2FFF80
15E500
00D000
01C000
01C000
02C000
028000
579400
FFFE00
034000
070000
070000
ENDCHAR
STARTCHAR bullet
ENCODING 8226
SWIDTH 331 0
DWIDTH 5 0
BBX 4 4 1 4
BITMAP
78
BD
BC
14
ENDCHAR
STARTCHAR twodotenleader
ENCODING 8229
SWIDTH 461 0
DWIDTH 7 0
BBX 6 2 0 0
BITMAP
6090
70D0
ENDCHAR
STARTCHAR ellipsis
ENCODING 8230
SWIDTH 653 0
DWIDTH 10 0
BBX 9 2 0 0
BITMAP
609240
70D340
ENDCHAR
STARTCHAR uni2027
ENCODING 8231
SWIDTH 186 0
DWIDTH 3 0
BBX 3 2 0 4
BITMAP
74
20
ENDCHAR
STARTCHAR perthousand
ENCODING 8240
SWIDTH 934 0
DWIDTH 15 0
BBX 13 12 1 0
BITMAP
2E400000
61800000
91824000
A2860000
2E1C0000
00340000
00900000
029B9F40
0634A180
1C3091C0
2031E280
001F6E00
ENDCHAR
STARTCHAR minute
ENCODING 8242
SWIDTH 173 0
DWIDTH 3 0
BBX 2 4 1 8
BITMAP
30
60
60
90
ENDCHAR
STARTCHAR second
ENCODING 8243
SWIDTH 314 0
DWIDTH 5 0
BBX 5 4 1 8
BITMAP
3240
3300
6200
6600
ENDCHAR
STARTCHAR guilsinglleft
ENCODING 8249
SWIDTH 295 0
DWIDTH 5 0
BBX 4 6 1 1
BITMAP
0D
34
A0
D0
60
24
ENDCHAR
STARTCHAR guilsinglright
ENCODING 8250
SWIDTH 295 0
DWIDTH 5 0
BBX 4 6 0 1
BITMAP
24
0C
0A
0E
28
A0
ENDCHAR
STARTCHAR exclamdbl
ENCODING 8252
SWIDTH 508 0
DWIDTH 8 0
BBX 8 12 0 0
BITMAP
0A0B
0A0A
0D0E
0D0D
1C0D
1C1C
281C
2828
2428
0000
2020
7070
ENDCHAR
STARTCHAR fraction
ENCODING 8260
SWIDTH 445 0
DWIDTH 7 0
BBX 8 9 0 1
BITMAP
0009
0018
0070
00C0
0340
0900
2800
6000
8000
ENDCHAR
STARTCHAR uni2074
ENCODING 8308
SWIDTH 360 0
DWIDTH 6 0
BBX 5 6 1 6
BITMAP
0380
0B40
2740
A300
FF80
0A00
ENDCHAR
STARTCHAR uni207F
ENCODING 8319
SWIDTH 414 0
DWIDTH 7 0
BBX 6 7 1 5
BITMAP
3780
39D0
70D0
60D0
A0D0
A1C0
D1C0
ENDCHAR
STARTCHAR franc
ENCODING 8355
SWIDTH 541 0
DWIDTH 9 0
BBX 11 12 -1 0
BITMAP
02FFF4
029550
034000
034000
070000
07FF80
0A5500
0A0000
0D0000
7FE000
1D4000
1C0000
ENDCHAR
STARTCHAR lira
ENCODING 8356
SWIDTH 568 0
DWIDTH 9 0
BBX 9 12 0 0
BITMAP
00BE00
02D780
0742C0
0B0000
0A0000
3FF400
0D0000
7FF000
1D0000
1C0000
795500
FFFE00
ENDCHAR
STARTCHAR uni20A6
ENCODING 8358
SWIDTH 772 0
DWIDTH 12 0
BBX 13 12 0 0
BITMAP
03800D00
03C00D00
07D01D00
07A01C00
0B702C00
7FFFFF40
1E6D7900
BFFFFF00
5D5BB500
1C03F000
2802E000
3800E000
ENDCHAR
STARTCHAR peseta
ENCODING 8359
SWIDTH 800 0
DWIDTH 13 0
BBX 13 12 0 0
BITMAP
0BF80000
0A5B1C00
0D072C00
0D07FF40
1C073800
1C1D3400
2FF87400
29007000
3400B000
3400A000
7000B400
70007C00
ENDCHAR
STARTCHAR uni20A8
ENCODING 8360
SWIDTH 1030 0
DWIDTH 17 0
BBX 16 12 0 0
BITMAP
0BFE0000
0A57C000
0D01D000
0D00D2F8
1D01DE5D
1C079C06
2FFD0E40
296C06E4
381D002C
340E340D
740B296C
70074BE0
ENDCHAR
STARTCHAR uni20A9
ENCODING 8361
SWIDTH 722 0
DWIDTH 12 0
BBX 12 12 0 0
BITMAP
1C0E07
1C1E0A
1C2E0D
1C3A1C
7FFFFE
1DAA74
1CDA70
BFFFFD
5E9AD4
0F4B80
0F0B40
0E0B00
ENDCHAR
STARTCHAR uni20AA
ENCODING 8362
SWIDTH 752 0
DWIDTH 12 0
BBX 12 9 0 0
BITMAP
1FF90D
2D5A0D
28071C
38E71C
34DB2C
75DA28
71C034
B2D5B0
A2FFD0
ENDCHAR
STARTCHAR dong
ENCODING 8363
SWIDTH 566 0
DWIDTH 9 0
BBX 10 15 0 -3
BITMAP
0002C0
002FF0
000790
06E740
1E5F00
280B00
340A00
700E00
700D00
741D00
397C00
1BAC00
000000
FFFC00
555400
ENDCHAR
STARTCHAR Euro
ENCODING 8364
SWIDTH 549 0
DWIDTH 9 0
BBX 9 12 0 0
BITMAP
002FC0
00E540
02C000
034000
070000
3FF800
0A0000
7FF400
0D0000
0E0000
0B5400
01FD00
ENDCHAR
STARTCHAR uni20B1
ENCODING 8369
SWIDTH 714 0
DWIDTH 11 0
BBX 12 12 0 0
BITMAP
07FF80
0755E0
3FFFFF
1A5574
7FFFFE
1E56E4
1FFF80
1D5400
2C0000
280000
380000
340000
ENDCHAR
STARTCHAR uni20B9
ENCODING 8377
SWIDTH 505 0
DWIDTH 8 0
BBX 9 12 0 0
BITMAP
1FFF80
05B900
002800
3FFF40
157900
01B400
7FD000
380000
1D0000
0B0000
078000
02D000
ENDCHAR
STARTCHAR uni20BA
ENCODING 8378
SWIDTH 544 0
DWIDTH 9 0
BBX 8 12 0 0
BITMAP
0380
03A4
07E0
3F40
6B60
0BD0
7E07
9D0B
0D0E
1C2C
1DB4
2F90
ENDCHAR
STARTCHAR uni20BC
ENCODING 8380
SWIDTH 645 0
DWIDTH 10 0
BBX 9 9 0 0
BITMAP
003400
007400
02FD00
0EBB40
28A280
74A1C0
A0D1C0
E0D1C0
D1C280
ENDCHAR
STARTCHAR uni20BD
ENCODING 8381
SWIDTH 648 0
DWIDTH 10 0
BBX 11 12 0 0
BITMAP
03FF80
0755E0
070074
0B0074
0A0070
0E01E0
BFFF80
5D5000
FFD000
694000
280000
380000
ENDCHAR
STARTCHAR uni2105
ENCODING 8453
SWIDTH 720 0
DWIDTH 12 0
BBX 10 12 1 0
BITMAP
1F4000
35C000
600140
728700
2E0C00
003400
009000
029B80
063490
1C3090
2431C0
001F40
ENDCHAR
STARTCHAR uni2113
ENCODING 8467
SWIDTH 466 0
DWIDTH 7 0
BBX 8 12 0 0
BITMAP
00B8
01DD
028D
035D
0768
07B4
0BD0
7E00
1E00
0A00
0B40
0280
ENDCHAR
STARTCHAR uni2116
ENCODING 8470
SWIDTH 1002 0
DWIDTH 16 0
BBX 16 12 0 0
BITMAP
0B00A1B8
0F40A34A
0F80D706
1EC0D60A
1CD1C75D
2CA1C2F4
28728000
38368FF8
342B4000
741F4000
700F0000
700B0000
ENDCHAR
STARTCHAR trademark
ENCODING 8482
SWIDTH 611 0
DWIDTH 10 0
BBX 8 4 2 8
BITMAP
FA49
225C
52A8
8698
ENDCHAR
STARTCHAR uni03A9.dup2
ENCODING 8486
SWIDTH 649 0
DWIDTH 10 0
BBX 10 12 0 0
BITMAP
00BE00
079780
0E00D0
1C00E0
2800E0
3800E0
3400D0
3401C0
340280
280700
5E2E00
FF3F80
ENDCHAR
STARTCHAR estimated
ENCODING 8494
SWIDTH 622 0
DWIDTH 10 0
BBX 8 9 1 0
BITMAP
06F4
1D19
740A
B40B
FFFF
F000
A000
6414
1BE0
ENDCHAR
STARTCHAR oneeighth
ENCODING 8539
SWIDTH 750 0
DWIDTH 12 0
BBX 10 12 1 0
BITMAP
190000
6D0000
0C0200
1C0900
182800
286000
01CBD0
035DA0
090FC0
282890
2034D0
001F80
ENDCHAR
STARTCHAR threeeighths
ENCODING 8540
SWIDTH 833 0
DWIDTH 13 0
BBX 11 12 1 0
BITMAP
1F8000
25C000
0F4050
0281C0
928300
7E0D00
0025F8
00A35C
0182F4
070628
090A28
0002E0
ENDCHAR
STARTCHAR fiveeighths
ENCODING 8541
SWIDTH 830 0
DWIDTH 13 0
BBX 11 12 1 0
BITMAP
2FC000
300000
7F0090
128280
924600
7E1C00
0036F8
00935C
0282F4
060A28
080A28
0006E0
ENDCHAR
STARTCHAR seveneighths
ENCODING 8542
SWIDTH 782 0
DWIDTH 13 0
BBX 11 12 1 0
BITMAP
7FD000
01C000
034140
0A0700
180C00
743400
0096E0
028A34
0607E0
1C0D70
241C70
000BD0
ENDCHAR
STARTCHAR partialdiff
ENCODING 8706
SWIDTH 557 0
DWIDTH 9 0
BBX 9 12 0 0
BITMAP
06F800
055E00
000700
000340
06F740
1E5F40
380740
740700
700A00
740D00
297800
0BE000
ENDCHAR
STARTCHAR uni0394.dup3
ENCODING 8710
SWIDTH 688 0
DWIDTH 11 0
BBX 11 12 -1 0
BITMAP
000740
000B80
001E80
0039C0
0070D0
00D0D0
02C0A0
0340A0
0B0070
1D0074
2D5574
7FFFF8
ENDCHAR
STARTCHAR product
ENCODING 8719
SWIDTH 678 0
DWIDTH 11 0
BBX 11 14 0 -2
BITMAP
0BFFF4
0E5574
0D0074
1D0070
1C00B0
1C00A0
2800A0
2800D0
3400D0
3401C0
7401C0
7002C0
B00280
A00380
ENDCHAR
STARTCHAR summation
ENCODING 8721
SWIDTH 572 0
DWIDTH 9 0
BBX 11 14 -1 -2
BITMAP
07FFF8
075550
02C000
00E000
007400
002800
000D00
001D00
007400
01D000
074000
1E0000
795540
BFFFC0
ENDCHAR
STARTCHAR minus
ENCODING 8722
SWIDTH 559 0
DWIDTH 9 0
BBX 7 2 1 4
BITMAP
BFF8
1550
ENDCHAR
STARTCHAR radical
ENCODING 8730
SWIDTH 583 0
DWIDTH 9 0
BBX 10 12 0 0
BITMAP
0000B0
0000D0
0002C0
000340
000A00
000D00
7D2800
1D3400
0AA000
0BD000
078000
034000
ENDCHAR
STARTCHAR infinity
ENCODING 8734
SWIDTH 1002 0
DWIDTH 16 0
BBX 15 9 0 0
BITMAP
02F80BE0
0E5E2978
2C07A01C
3403C01C
7402801C
7007802C
340AC034
2D68B5A0
0BE02F80
ENDCHAR
STARTCHAR integral
ENCODING 8747
SWIDTH 252 0
DWIDTH 4 0
BBX 8 15 -2 -3
BITMAP
002F
00B5
00E0
00D0
01C0
01C0
02C0
0280
0380
0340
0740
0700
0B00
1E00
B800
ENDCHAR
STARTCHAR approxequal
ENCODING 8776
SWIDTH 551 0
DWIDTH 9 0
BBX 9 6 0 2
BITMAP
1F9140
25BF00
001400
2E4500
A6FD00
001000
ENDCHAR
STARTCHAR notequal
ENCODING 8800
SWIDTH 537 0
DWIDTH 9 0
BBX 7 8 1 1
BITMAP
0014
0070
7FFC
1654
0A00
FFF4
7550
9000
ENDCHAR
STARTCHAR lessequal
ENCODING 8804
SWIDTH 498 0
DWIDTH 8 0
BBX 9 10 -1 -1
BITMAP
000640
007E00
0B9000
1E4000
01F800
001900
000000
000000
7FFC00
155400
ENDCHAR
STARTCHAR greaterequal
ENCODING 8805
SWIDTH 512 0
DWIDTH 8 0
BBX 8 10 0 -1
BITMAP
1900
0BD0
006D
006D
1B90
7400
0000
0000
BFF8
1550
ENDCHAR
STARTCHAR lozenge
ENCODING 9674
SWIDTH 493 0
DWIDTH 8 0
BBX 8 12 0 0
BITMAP
00A0
02F0
0774
0E28
2C1C
740D
701D
3428
2870
1DD0
0F80
0B00
ENDCHAR
STARTCHAR uniEE01
ENCODING 60929
SWIDTH 283 0
DWIDTH 5 0
BBX 3 9 1 1
BITMAP
18
28
00
00
00
00
00
90
90
ENDCHAR
STARTCHAR uniEE02
ENCODING 60930
SWIDTH 314 0
DWIDTH 5 0
BBX 4 4 1 5
BITMAP
97
96
DA
C9
ENDCHAR
STARTCHAR uniF6C3
ENCODING 63171
SWIDTH 249 0
DWIDTH 4 0
BBX 2 3 0 -1
BITMAP
70
A0
80
ENDCHAR
STARTCHAR uniFB01
ENCODING 64257
SWIDTH 541 0
DWIDTH 9 0
BBX 8 12 0 0
BITMAP
01FE
0795
0A00
7FD7
1D0A
1D0A
1C0D
2C0D
281C
381C
3428
7428
ENDCHAR
STARTCHAR uniFB02
ENCODING 64258
SWIDTH 555 0
DWIDTH 9 0
BBX 8 12 1 0
BITMAP
06F9
1E5E
2C0D
FF4D
381C
341C
7428
7028
7034
A074
A070
D0B0
ENDCHAR
STARTCHAR uniFB03
ENCODING 64259
SWIDTH 833 0
DWIDTH 13 0
BBX 12 12 1 0
BITMAP
06E2F9
1E4B59
2C0D00
FFFFCA
382C0D
342C0D
74281C
70381C
703428
A07428
A07034
D0B034
ENDCHAR
STARTCHAR uniFB04
ENCODING 64260
SWIDTH 833 0
DWIDTH 13 0
BBX 12 12 1 0
BITMAP
06E2FE
1E4B5B
2C0D07
FFFFCA
382C0E
342C0D
74281C
70381C
B03428
A07428
A07034
D0B034
ENDCHAR
STARTCHAR uniFEFF
ENCODING 65279
SWIDTH 0 0
DWIDTH 0 0
BBX 1 1 0 0
BITMAP
00
ENDCHAR
STARTCHAR uniFFFC
ENCODING 65532
SWIDTH 999 0
DWIDTH 16 0
BBX 18 15 -1 -3
BITMAP
07CF3DF7D0
0600000090
0500000040
0000000000
08000000C0
0CB8F80880
0189F41800
194A592540
14B6F5E100
0000000100
2000000200
3000000100
0000000500
6000000900
B9E79F7C00
ENDCHAR
STARTCHAR uniFFFD
ENCODING 65533
SWIDTH 1025 0
DWIDTH 16 0
BBX 15 15 1 -2
BITMAP
00060000
001F8000
007FE000
01FFF800
07FFFE00
1FE07F80
7FC61FE0
FFFF1FF4
7FFC7FE0
1FF4FF80
07FFFE00
01F4F800
007FE000
001F8000
00060000
ENDCHAR
STARTCHAR .notdef
ENCODING -1
SWIDTH 448 0
DWIDTH 7 0
BBX 7 12 0 0
BITMAP
7FF4
5014
5414
5444
5544
5204
5204
5544
5444
5414
5014
7FF4
ENDCHAR
STARTCHAR glyph369
ENCODING -1
SWIDTH 383 0
DWIDTH 6 0
BBX 5 3 2 9
BITMAP
D340
DA00
5800
ENDCHAR
STARTCHAR uni2009.locl
ENCODING -1
SWIDTH 125 0
DWIDTH 2 0
BBX 1 1 0 0
BITMAP
00
ENDCHAR
STARTCHAR f_f.dlig
ENCODING -1
SWIDTH 604 0
DWIDTH 10 0
BBX 10 12 1 0
BITMAP
06E6E0
1E5E50
2C1C00
FFFF80
382800
342800
743400
703400
707000
A07000
A0A000
D0A000
ENDCHAR
STARTCHAR longs_t.dlig
ENCODING -1
SWIDTH 602 0
DWIDTH 10 0
BBX 9 12 1 0
BITMAP
07F900
1E5D00
2C1C00
F8FF40
382800
342800
743400
703400
707000
A07000
A07400
D02D00
ENDCHAR
STARTCHAR s_t.dlig
ENCODING -1
SWIDTH 805 0
DWIDTH 13 0
BBX 13 12 0 0
BITMAP
0002F800
000E5D00
000D0D00
06FDBFC0
1E6D1D00
28091C00
2D002800
07E02800
00783800
60283400
75743900
1FD01E00
ENDCHAR
STARTCHAR two.dnom
ENCODING -1
SWIDTH 360 0
DWIDTH 6 0
BBX 5 6 0 0
BITMAP
2F40
7280
0280
1E00
7400
FF40
ENDCHAR
STARTCHAR one.dnom
ENCODING -1
SWIDTH 360 0
DWIDTH 6 0
BBX 3 6 1 0
BITMAP
68
F8
28
24
34
30
ENDCHAR
STARTCHAR zero.dnom
ENCODING -1
SWIDTH 360 0
DWIDTH 6 0
BBX 5 6 0 0
BITMAP
1F40
7180
A1C0
A180
A280
2E00
ENDCHAR
STARTCHAR nine.c2sc
ENCODING -1
SWIDTH 497 0
DWIDTH 8 0
BBX 6 9 1 0
BITMAP
1F80
75A0
E070
D070
A5F0
6EA0
01D0
1B80
B900
ENDCHAR
STARTCHAR eight.c2sc
ENCODING -1
SWIDTH 497 0
DWIDTH 8 0
BBX 8 9 0 0
BITMAP
06E4
1E6C
281D
1C2C
0FF0
3974
B028
7574
2FD0
ENDCHAR
STARTCHAR seven.c2sc
ENCODING -1
SWIDTH 497 0
DWIDTH 8 0
BBX 7 9 1 0
BITMAP
BFFC
5574
00A0
01D0
0340
0A00
1C00
3400
A000
ENDCHAR
STARTCHAR six.c2sc
ENCODING -1
SWIDTH 496 0
DWIDTH 8 0
BBX 7 9 0 0
BITMAP
01B8
0B90
1D00
3AE0
3D78
701C
7028
3974
1BD0
ENDCHAR
STARTCHAR five.c2sc
ENCODING -1
SWIDTH 497 0
DWIDTH 8 0
BBX 8 9 0 0
BITMAP
0BFE
0E54
1C00
2FE0
1978
001C
602C
3974
1BD0
ENDCHAR
STARTCHAR four.c2sc
ENCODING -1
SWIDTH 497 0
DWIDTH 8 0
BBX 8 9 0 0
BITMAP
003C
00B8
02B8
0A34
2C74
7574
FFFD
00A0
00E0
ENDCHAR
STARTCHAR three.c2sc
ENCODING -1
SWIDTH 497 0
DWIDTH 8 0
BBX 8 9 0 0
BITMAP
07E4
2D6C
141D
0028
07E0
0174
5028
B5B4
2F90
ENDCHAR
STARTCHAR two.c2sc
ENCODING -1
SWIDTH 497 0
DWIDTH 8 0
BBX 8 9 0 0
BITMAP
07E4
2D6C
341D
002C
00B4
02D0
1E00
7950
FFF8
ENDCHAR
STARTCHAR one.c2sc
ENCODING -1
SWIDTH 497 0
DWIDTH 8 0
BBX 5 9 1 0
BITMAP
1680
7B80
0340
0740
0700
0B00
0A00
0E00
0D00
ENDCHAR
STARTCHAR zero.c2sc
ENCODING -1
SWIDTH 497 0
DWIDTH 8 0
BBX 8 9 0 0
BITMAP
07E4
1D6C
281D
341D
701C
701C
7028
39B0
1F90
ENDCHAR
STARTCHAR Z.c2sc
ENCODING -1
SWIDTH 506 0
DWIDTH 8 0
BBX 9 9 -1 0
BITMAP
0BFFC0
015740
001E00
003800
00E000
028000
0B0000
2D5500
7FFE00
ENDCHAR
STARTCHAR Y.c2sc
ENCODING -1
SWIDTH 510 0
DWIDTH 8 0
BBX 8 9 1 0
BITMAP
E01D
B038
34B0
29D0
1F80
0E00
0D00
1D00
1C00
ENDCHAR
STARTCHAR X.c2sc
ENCODING -1
SWIDTH 529 0
DWIDTH 8 0
BBX 10 9 -1 0
BITMAP
0B01D0
034780
02CE00
00FC00
00B400
02F800
076C00
1D0E00
780B00
ENDCHAR
STARTCHAR W.c2sc
ENCODING -1
SWIDTH 742 0
DWIDTH 12 0
BBX 11 9 1 0
BITMAP
90341C
A0B428
A0E834
A198A0
A358D0
661DC0
6D0E80
7C0F00
740E00
ENDCHAR
STARTCHAR V.c2sc
ENCODING -1
SWIDTH 538 0
DWIDTH 9 0
BBX 8 9 1 0
BITMAP
D00B
A01D
B028
7074
34A0
35C0
2B80
1F00
1D00
ENDCHAR
STARTCHAR U.c2sc
ENCODING -1
SWIDTH 548 0
DWIDTH 9 0
BBX 9 9 0 0
BITMAP
1C0280
2C0340
280740
340700
340B00
700A00
700D00
396C00
1BE000
ENDCHAR
STARTCHAR T.c2sc
ENCODING -1
SWIDTH 507 0
DWIDTH 8 0
BBX 8 9 1 0
BITMAP
FFFD
5754
0700
0B00
0A00
0E00
0D00
1D00
1C00
ENDCHAR
STARTCHAR S.c2sc
ENCODING -1
SWIDTH 504 0
DWIDTH 8 0
BBX 8 9 0 0
BITMAP
06F4
1D5D
280A
2D00
07E0
006C
A01C
7578
1FE0
ENDCHAR
STARTCHAR R.c2sc
ENCODING -1
SWIDTH 524 0
DWIDTH 8 0
BBX 8 9 0 0
BITMAP
1FF8
1D5E
280B
281E
3FF8
35B0
7034
B028
A01C
ENDCHAR
STARTCHAR Q.c2sc
ENCODING -1
SWIDTH 578 0
DWIDTH 9 0
BBX 9 11 0 -2
BITMAP
02F800
0E5B00
280340
340340
700340
700740
740A00
296D00
0BF400
002D00
000400
ENDCHAR
STARTCHAR P.c2sc
ENCODING -1
SWIDTH 533 0
DWIDTH 9 0
BBX 9 9 0 0
BITMAP
1FF900
1D5B00
280740
280B00
3FF800
354000
700000
B00000
A00000
ENDCHAR
STARTCHAR O.c2sc
ENCODING -1
SWIDTH 578 0
DWIDTH 9 0
BBX 9 9 0 0
BITMAP
02F900
0E5B00
280340
340340
700340
700740
340B00
2D6D00
0BE400
ENDCHAR
STARTCHAR N.c2sc
ENCODING -1
SWIDTH 597 0
DWIDTH 10 0
BBX 9 9 0 0
BITMAP
1D01C0
1F01C0
2F4280
29C280
34D340
347740
703B00
B01F00
A00E00
ENDCHAR
STARTCHAR M.c2sc
ENCODING -1
SWIDTH 733 0
DWIDTH 12 0
BBX 12 9 0 0
BITMAP
1E002D
1F007C
2B40EC
2A42A8
368768
35CA34
70EC74
B0F470
A0B0B0
ENDCHAR
STARTCHAR L.c2sc
ENCODING -1
SWIDTH 454 0
DWIDTH 7 0
BBX 6 9 0 0
BITMAP
1C00
1C00
2800
2800
3400
3400
7000
B550
BFF0
ENDCHAR
STARTCHAR K.c2sc
ENCODING -1
SWIDTH 529 0
DWIDTH 8 0
BBX 9 9 0 0
BITMAP
1C0740
1C2D00
28B400
2AD000
3FC000
39D000
70B000
B03800
A01D00
ENDCHAR
STARTCHAR J.c2sc
ENCODING -1
SWIDTH 466 0
DWIDTH 7 0
BBX 7 9 0 0
BITMAP
001C
001C
0028
0028
0034
0074
9070
A5E0
2F80
ENDCHAR
STARTCHAR I.c2sc
ENCODING -1
SWIDTH 235 0
DWIDTH 4 0
BBX 4 9 0 0
BITMAP
1D
1C
2C
28
38
34
74
70
B0
ENDCHAR
STARTCHAR H.c2sc
ENCODING -1
SWIDTH 597 0
DWIDTH 10 0
BBX 9 9 0 0
BITMAP
1C01C0
1C01C0
280280
280280
3FFF40
355740
700700
B00B00
A00A00
ENDCHAR
STARTCHAR G.c2sc
ENCODING -1
SWIDTH 571 0
DWIDTH 9 0
BBX 9 9 0 0
BITMAP
02F900
0E5B00
2C0240
340000
747F00
700B00
340B00
2D5E00
0BF800
ENDCHAR
STARTCHAR F.c2sc
ENCODING -1
SWIDTH 464 0
DWIDTH 7 0
BBX 8 9 0 0
BITMAP
1FFE
1D54
2800
2800
3FF4
3550
7000
B000
A000
ENDCHAR
STARTCHAR dollar.c2sc
ENCODING -1
SWIDTH 504 0
DWIDTH 8 0
BBX 8 13 0 -2
BITMAP
0060
00A0
06F8
1D5E
2806
2D00
07E0
006C
A01C
7468
2FE0
0700
0600
ENDCHAR
STARTCHAR sterling.c2sc
ENCODING -1
SWIDTH 514 0
DWIDTH 8 0
BBX 8 9 0 0
BITMAP
02F8
0B5D
0D0E
1C00
BFF0
2800
2800
7554
FFFC
ENDCHAR
STARTCHAR yen.c2sc
ENCODING -1
SWIDTH 444 0
DWIDTH 7 0
BBX 8 9 0 0
BITMAP
340D
2828
1C60
0D80
7FF0
0B00
BFF0
0A00
0D00
ENDCHAR
STARTCHAR Gamma.c2sc
ENCODING -1
SWIDTH 451 0
DWIDTH 7 0
BBX 8 9 0 0
BITMAP
1FFE
1D54
2800
2800
3400
3400
7000
B000
A000
ENDCHAR
STARTCHAR uni0394.c2sc
ENCODING -1
SWIDTH 538 0
DWIDTH 9 0
BBX 9 9 -1 0
BITMAP
003800
007C00
00DD00
028D00
034A00
0A0B00
1C0700
295740
7FFF80
ENDCHAR
STARTCHAR Theta.c2sc
ENCODING -1
SWIDTH 578 0
DWIDTH 9 0
BBX 9 9 0 0
BITMAP
02F900
0F5B00
2C0340
340380
37FB80
755740
340B00
2D6D00
0BE400
ENDCHAR
STARTCHAR Lambda.c2sc
ENCODING -1
SWIDTH 538 0
DWIDTH 9 0
BBX 9 9 -1 0
BITMAP
003800
007C00
00DD00
028D00
034A00
0A0B00
1C0700
280740
700380
ENDCHAR
STARTCHAR Xi.c2sc
ENCODING -1
SWIDTH 433 0
DWIDTH 7 0
BBX 8 9 -1 0
BITMAP
0FFF
0555
0000
0000
0FFC
0550
0000
1550
7FF8
ENDCHAR
STARTCHAR Pi.c2sc
ENCODING -1
SWIDTH 587 0
DWIDTH 9 0
BBX 9 9 0 0
BITMAP
1FFFC0
1D5680
280280
280340
340340
340700
700B00
B00A00
A00E00
ENDCHAR
STARTCHAR Sigma.c2sc
ENCODING -1
SWIDTH 481 0
DWIDTH 8 0
BBX 9 9 -1 0
BITMAP
0FFF80
0B5500
038000
02D000
01E000
038000
0F0000
2D5400
7FFE00
ENDCHAR
STARTCHAR Phi.c2sc
ENCODING -1
SWIDTH 660 0
DWIDTH 11 0
BBX 10 9 0 0
BITMAP
002800
06FE40
1E7AD0
3874A0
7470A0
34A0E0
2DE780
0BF900
00D000
ENDCHAR
STARTCHAR Psi.c2sc
ENCODING -1
SWIDTH 622 0
DWIDTH 10 0
BBX 9 9 1 0
BITMAP
B0D2C0
A1C280
E1C340
D28340
A28B00
77AD00
2FF400
074000
070000
ENDCHAR
STARTCHAR uni03A9.c2sc
ENCODING -1
SWIDTH 604 0
DWIDTH 10 0
BBX 9 9 0 0
BITMAP
02F900
0F5B40
2C0280
380280
340280
340340
340B00
2D2D00
BE7F00
ENDCHAR
STARTCHAR uni0402.c2sc
ENCODING -1
SWIDTH 665 0
DWIDTH 11 0
BBX 9 9 1 0
BITMAP
FFFC00
5B5000
0A0000
0FFE00
0E5740
1D0280
1C0380
2C1B40
283900
ENDCHAR
STARTCHAR uni0404.c2sc
ENCODING -1
SWIDTH 548 0
DWIDTH 9 0
BBX 9 9 0 0
BITMAP
02F800
0E5B00
280340
340000
7FE000
754000
700A00
296C00
0BE000
ENDCHAR
STARTCHAR uni0409.c2sc
ENCODING -1
SWIDTH 884 0
DWIDTH 14 0
BBX 15 9 -1 0
BITMAP
00FFF000
01D5A000
02C0D000
0280FF90
0341D5B0
0341C074
07028070
1E0295E0
7803FF40
ENDCHAR
STARTCHAR uni040A.c2sc
ENCODING -1
SWIDTH 891 0
DWIDTH 14 0
BBX 14 9 0 0
BITMAP
1C01C000
1C028000
28038000
2FFFFE40
355756C0
300700D0
700B01D0
B00A5780
A00FFE00
ENDCHAR
STARTCHAR uni040B.c2sc
ENCODING -1
SWIDTH 666 0
DWIDTH 11 0
BBX 9 9 1 0
BITMAP
FFFC00
5B5000
0A0000
0FFE00
0E5740
1D0280
1C0280
2C0340
280340
ENDCHAR
STARTCHAR uni040F.c2sc
ENCODING -1
SWIDTH 586 0
DWIDTH 9 0
BBX 9 12 0 -3
BITMAP
1C01C0
1C0280
280280
280340
340340
340700
700B00
B55A00
BFFE00
034000
034000
070000
ENDCHAR
STARTCHAR uni0411.c2sc
ENCODING -1
SWIDTH 532 0
DWIDTH 9 0
BBX 8 9 0 0
BITMAP
1FFE
1D54
2800
2FF4
356D
340D
700D
7568
BFE0
ENDCHAR
STARTCHAR uni0414.c2sc
ENCODING -1
SWIDTH 628 0
DWIDTH 10 0
BBX 10 12 -1 -3
BITMAP
00BFF0
00E5B0
01D0A0
01C0A0
0280D0
0341D0
0B01C0
1D56D0
7FFFE0
B000A0
A000D0
E000D0
ENDCHAR
STARTCHAR uni0416.c2sc
ENCODING -1
SWIDTH 737 0
DWIDTH 12 0
BBX 13 9 -1 0
BITMAP
07034780
03870E00
02CB2C00
01DA7400
00FFE000
02DDB000
0B5D7400
1D1C2C00
782C1D00
ENDCHAR
STARTCHAR uni0417.c2sc
ENCODING -1
SWIDTH 519 0
DWIDTH 8 0
BBX 8 9 0 0
BITMAP
07F8
2D5D
140A
001D
03F4
0168
501C
B578
2FE0
ENDCHAR
STARTCHAR uni0418.c2sc
ENCODING -1
SWIDTH 601 0
DWIDTH 10 0
BBX 10 9 0 0
BITMAP
1C02D0
1C07C0
281E80
283680
34D340
368340
7A0700
780700
B00A00
ENDCHAR
STARTCHAR uni041A.c2sc
ENCODING -1
SWIDTH 526 0
DWIDTH 8 0
BBX 9 9 0 0
BITMAP
1C0B40
1C1D00
287400
29D000
3F8000
36C000
70E000
B07400
A02C00
ENDCHAR
STARTCHAR uni041B.c2sc
ENCODING -1
SWIDTH 581 0
DWIDTH 9 0
BBX 10 9 -1 0
BITMAP
00FFF0
01D5A0
02C0E0
0280D0
0341C0
0341C0
070280
1D0280
780340
ENDCHAR
STARTCHAR uni0423.c2sc
ENCODING -1
SWIDTH 504 0
DWIDTH 8 0
BBX 9 9 0 0
BITMAP
280740
2C0E00
1D1C00
0D3800
0AB000
07D000
078000
1B0000
790000
ENDCHAR
STARTCHAR uni0426.c2sc
ENCODING -1
SWIDTH 629 0
DWIDTH 10 0
BBX 9 12 0 -3
BITMAP
1C01C0
1C0280
280280
280340
340340
340700
700B00
B55A40
BFFFC0
000280
000340
000340
ENDCHAR
STARTCHAR uni0427.c2sc
ENCODING -1
SWIDTH 540 0
DWIDTH 9 0
BBX 8 9 1 0
BITMAP
A00D
D01C
D02C
E078
7FF8
0034
0074
0070
00B0
ENDCHAR
STARTCHAR uni0428.c2sc
ENCODING -1
SWIDTH 770 0
DWIDTH 12 0
BBX 12 9 0 0
BITMAP
1C0E0B
1C0D0A
281C0E
281C0D
34281D
34281C
70342C
B57568
BFFFF4
ENDCHAR
STARTCHAR uni0429.c2sc
ENCODING -1
SWIDTH 813 0
DWIDTH 13 0
BBX 12 12 0 -3
BITMAP
1C0E0B
1C0D0A
281C0E
281C0D
34281D
34281C
70342C
B57569
BFFFFE
00000A
00000D
00000D
ENDCHAR
STARTCHAR uni042A.c2sc
ENCODING -1
SWIDTH 625 0
DWIDTH 10 0
BBX 9 9 0 0
BITMAP
7F8000
174000
034000
07FE00
0757C0
0A01C0
0A01C0
0E5740
0FF900
ENDCHAR
STARTCHAR uni042B.c2sc
ENCODING -1
SWIDTH 725 0
DWIDTH 12 0
BBX 12 9 0 0
BITMAP
1C001D
1C001C
280028
2FF428
356D34
340D34
700D70
756870
BFE0A0
ENDCHAR
STARTCHAR uni042C.c2sc
ENCODING -1
SWIDTH 526 0
DWIDTH 8 0
BBX 8 9 0 0
BITMAP
1C00
1C00
2800
2FF4
356D
340D
700D
7568
BFE0
ENDCHAR
STARTCHAR uni042D.c2sc
ENCODING -1
SWIDTH 548 0
DWIDTH 9 0
BBX 8 9 0 0
BITMAP
06F8
1D5E
380B
0007
02FF
015A
A00D
7578
1BE0
ENDCHAR
STARTCHAR uni042E.c2sc
ENCODING -1
SWIDTH 788 0
DWIDTH 13 0
BBX 12 9 0 0
BITMAP
1C07F4
1C2D6D
28740A
28A00A
3FD00A
35D00E
70E01D
B07578
A01FD0
ENDCHAR
STARTCHAR uni042F.c2sc
ENCODING -1
SWIDTH 553 0
DWIDTH 9 0
BBX 9 9 0 0
BITMAP
06FF40
1E5740
2C0700
2C0B00
0BFE00
0A5E00
1C0D00
741D00
E01C00
ENDCHAR
STARTCHAR uni0492.c2sc
ENCODING -1
SWIDTH 498 0
DWIDTH 8 0
BBX 9 9 0 0
BITMAP
0BFF40
0A5500
0E0000
0D0000
FFC000
6D0000
2C0000
280000
340000
ENDCHAR
STARTCHAR uni0496.c2sc
ENCODING -1
SWIDTH 766 0
DWIDTH 12 0
BBX 13 12 -1 -3
BITMAP
07034780
03870E00
02CB2C00
01DA7400
00FFE000
02DDB000
0B5D7400
1D1C2D00
782C1F40
00000700
00000700
00000A00
ENDCHAR
STARTCHAR uni049A.c2sc
ENCODING -1
SWIDTH 547 0
DWIDTH 9 0
BBX 9 12 0 -3
BITMAP
1C0B40
1C1D00
287400
29D000
3F8000
36C000
70E000
B07400
A02E00
000900
000D00
000D00
ENDCHAR
STARTCHAR uni049C.c2sc
ENCODING -1
SWIDTH 615 0
DWIDTH 10 0
BBX 10 9 0 0
BITMAP
1C01E0
1C0380
294E00
2A6800
3FF000
3B7400
762C00
B00E00
A00740
ENDCHAR
STARTCHAR uni04A0.c2sc
ENCODING -1
SWIDTH 637 0
DWIDTH 10 0
BBX 9 9 1 0
BITMAP
FF02C0
5A0B00
0E2C00
0DB400
1FD000
1DE000
2C7400
282C00
380E00
ENDCHAR
STARTCHAR uni04A8.c2sc
ENCODING -1
SWIDTH 703 0
DWIDTH 11 0
BBX 10 9 1 0
BITMAP
0B2F40
39B6C0
B0D0D0
D1C0D0
D2C0D0
D1C1C0
E1C340
B9AA40
1FFF80
ENDCHAR
STARTCHAR uni04B0.c2sc
ENCODING -1
SWIDTH 534 0
DWIDTH 9 0
BBX 8 9 1 0
BITMAP
E01D
B038
34B0
29D0
1F80
BFD0
1E40
1D00
1C00
ENDCHAR
STARTCHAR uni04B2.c2sc
ENCODING -1
SWIDTH 569 0
DWIDTH 9 0
BBX 10 12 -1 -3
BITMAP
0B01D0
034780
02CE00
00F800
00B400
02F800
076C00
1E0E40
780BC0
000280
000280
000340
ENDCHAR
STARTCHAR uni04B4.c2sc
ENCODING -1
SWIDTH 778 0
DWIDTH 12 0
BBX 10 12 1 -3
BITMAP
FFFCB0
5B50A0
0A00E0
0E00D0
0D01D0
1D01C0
1C02C0
2D5690
2FFFE0
0000A0
0000D0
0000D0
ENDCHAR
STARTCHAR uni04B8.c2sc
ENCODING -1
SWIDTH 540 0
DWIDTH 9 0
BBX 8 9 1 0
BITMAP
A00D
D01C
D62C
EA78
7FF8
0934
0874
0070
00B0
ENDCHAR
STARTCHAR uni04BA.c2sc
ENCODING -1
SWIDTH 540 0
DWIDTH 9 0
BBX 8 9 0 0
BITMAP
1C00
1C00
2800
2FF8
395D
340A
700A
B00E
A00D
ENDCHAR
STARTCHAR uni04BC.c2sc
ENCODING -1
SWIDTH 703 0
DWIDTH 11 0
BBX 11 9 0 0
BITMAP
002F90
00E5B0
52C038
774028
2FFFF8
075550
070000
03D580
00BF40
ENDCHAR
STARTCHAR uni04D8.c2sc
ENCODING -1
SWIDTH 585 0
DWIDTH 9 0
BBX 9 9 0 0
BITMAP
06F900
065B00
000380
000280
7FFF80
755740
700B00
396D00
0BE400
ENDCHAR
STARTCHAR uni04E0.c2sc
ENCODING -1
SWIDTH 519 0
DWIDTH 8 0
BBX 8 9 0 0
BITMAP
1FFE
056D
01E0
03D0
0178
001C
501C
B578
2FD0
ENDCHAR
STARTCHAR uni04E8.c2sc
ENCODING -1
SWIDTH 578 0
DWIDTH 9 0
BBX 9 9 0 0
BITMAP
02F900
0E5B00
2C0340
340280
3FFF80
755740
340B00
2D6D00
0BE400
ENDCHAR
STARTCHAR lira.c2sc
ENCODING -1
SWIDTH 514 0
DWIDTH 8 0
BBX 8 9 0 0
BITMAP
02F8
0B5D
0D0E
1C00
BFF0
2C00
FFE0
7554
FFFC
ENDCHAR
STARTCHAR Euro.c2sc
ENCODING -1
SWIDTH 476 0
DWIDTH 8 0
BBX 8 9 0 0
BITMAP
01BE
0795
0E00
7FF4
1C00
BFF0
1C00
1E50
06F4
ENDCHAR
STARTCHAR uni2116.c2sc
ENCODING -1
SWIDTH 991 0
DWIDTH 16 0
BBX 16 9 0 0
BITMAP
1D01C2F4
1F01CA5C
2F428D0D
29C28D0C
34D34E28
347747E0
703B0000
B01F1FF0
A00E0000
ENDCHAR
STARTCHAR uni20BD.c2sc
ENCODING -1
SWIDTH 570 0
DWIDTH 9 0
BBX 9 9 0 0
BITMAP
0BFE00
0A5780
0D0280
1D0740
BFFE00
6D4000
FF8000
790000
340000
ENDCHAR
STARTCHAR three.dnom
ENCODING -1
SWIDTH 360 0
DWIDTH 6 0
BBX 5 6 0 0
BITMAP
2F40
6280
1F00
0240
9340
7E00
ENDCHAR
STARTCHAR four.dnom
ENCODING -1
SWIDTH 360 0
DWIDTH 6 0
BBX 5 6 0 0
BITMAP
0380
0B80
2B40
6340
FF80
0600
ENDCHAR
STARTCHAR five.dnom
ENCODING -1
SWIDTH 360 0
DWIDTH 6 0
BBX 5 6 0 0
BITMAP
2FC0
3000
7F40
1280
9280
7E00
ENDCHAR
STARTCHAR six.dnom
ENCODING -1
SWIDTH 360 0
DWIDTH 6 0
BBX 5 6 0 0
BITMAP
0B40
3800
7F40
A280
A280
2E00
ENDCHAR
STARTCHAR seven.dnom
ENCODING -1
SWIDTH 360 0
DWIDTH 6 0
BBX 6 6 0 0
BITMAP
7FD0
0180
0700
0900
2800
7000
ENDCHAR
STARTCHAR eight.dnom
ENCODING -1
SWIDTH 360 0
DWIDTH 6 0
BBX 5 6 0 0
BITMAP
2F40
7680
3F00
A240
9240
7E00
ENDCHAR
STARTCHAR nine.dnom
ENCODING -1
SWIDTH 360 0
DWIDTH 6 0
BBX 5 6 0 0
BITMAP
2F40
7280
6280
2F80
0740
3900
ENDCHAR
STARTCHAR glyph550
ENCODING -1
SWIDTH 439 0
DWIDTH 7 0
BBX 5 2 1 4
BITMAP
BFC0
1540
ENDCHAR
STARTCHAR glyph551
ENCODING -1
SWIDTH 333 0
DWIDTH 5 0
BBX 4 6 2 9
BITMAP
0A
18
00
74
98
B4
ENDCHAR
STARTCHAR E.c2sc
ENCODING -1
SWIDTH 477 0
DWIDTH 8 0
BBX 8 9 0 0
BITMAP
1FFE
1D54
2800
2800
3FF8
3550
7000
B550
BFF4
ENDCHAR
STARTCHAR g.ss01
ENCODING -1
SWIDTH 517 0
DWIDTH 8 0
BBX 10 12 -1 -3
BITMAP
01FFD0
0B5B40
0E0340
0D0340
0B5E00
07F800
1D0000
1FF800
355A00
A00B00
B56D00
2FE400
ENDCHAR
STARTCHAR alpha.ss02
ENCODING -1
SWIDTH 582 0
DWIDTH 9 0
BBX 9 9 0 0
BITMAP
06E1C0
1E6A80
280F40
340B00
700A00
700E00
701E00
397A00
1B8A00
ENDCHAR
STARTCHAR R.ss03
ENCODING -1
SWIDTH 646 0
DWIDTH 10 0
BBX 10 12 0 0
BITMAP
0BFE40
0A56D0
0E00E0
0D00E0
1D00D0
1C0680
2FFE00
2D5B40
380380
340380
740340
700380
ENDCHAR
STARTCHAR K.ss04
ENCODING -1
SWIDTH 628 0
DWIDTH 10 0
BBX 11 12 0 0
BITMAP
0B00B4
0A02D0
0E0740
0D1E00
1D7800
1FE000
2DB000
283800
382D00
340E00
740740
700380
ENDCHAR
STARTCHAR k.ss04
ENCODING -1
SWIDTH 499 0
DWIDTH 8 0
BBX 8 12 0 0
BITMAP
0A00
0E00
0D00
1D0E
1C2C
2C74
29D0
3F80
36C0
70E0
7074
A028
ENDCHAR
STARTCHAR K.ss05
ENCODING -1
SWIDTH 640 0
DWIDTH 10 0
BBX 10 12 0 0
BITMAP
0B00B0
0A02C0
0E0F00
0D3C00
1DF000
1FC000
2EC000
29E000
387400
342C00
740E00
700740
ENDCHAR
STARTCHAR k.ss05
ENCODING -1
SWIDTH 497 0
DWIDTH 8 0
BBX 8 12 0 0
BITMAP
0A00
0E00
0D00
1D1E
1C78
29E0
2B80
3F00
3B40
76C0
70E0
A074
ENDCHAR
STARTCHAR D.c2sc
ENCODING -1
SWIDTH 550 0
DWIDTH 9 0
BBX 8 9 0 0
BITMAP
1FE4
1D6D
280A
2807
3407
340A
701D
B578
BF90
ENDCHAR
STARTCHAR C.c2sc
ENCODING -1
SWIDTH 548 0
DWIDTH 9 0
BBX 9 9 0 0
BITMAP
02F900
0E5B00
280340
340000
740000
700000
740A00
296C00
0BE400
ENDCHAR
STARTCHAR B.c2sc
ENCODING -1
SWIDTH 527 0
DWIDTH 8 0
BBX 8 9 0 0
BITMAP
1FF8
1D5E
280A
281D
3FF4
342C
701D
B56C
BFE0
ENDCHAR
STARTCHAR A.c2sc
ENCODING -1
SWIDTH 552 0
DWIDTH 9 0
BBX 9 9 -1 0
BITMAP
002C00
007C00
00ED00
02CA00
034A00
0B0700
1FFF40
395740
700280
ENDCHAR
STARTCHAR glyph564
ENCODING -1
SWIDTH 246 0
DWIDTH 4 0
BBX 2 3 2 9
BITMAP
20
A0
D0
ENDCHAR
STARTCHAR glyph565
ENCODING -1
SWIDTH 446 0
DWIDTH 7 0
BBX 5 4 2 10
BITMAP
1800
0800
9280
6E00
ENDCHAR
STARTCHAR glyph566
ENCODING -1
SWIDTH 0 0
DWIDTH 0 0
BBX 5 5 -6 9
BITMAP
0340
0A00
0000
7980
9740
ENDCHAR
STARTCHAR glyph567
ENCODING -1
SWIDTH 481 0
DWIDTH 8 0
BBX 8 3 2 10
BITMAP
001D
2F28
A280
ENDCHAR
STARTCHAR glyph568
ENCODING -1
SWIDTH 483 0
DWIDTH 8 0
BBX 7 4 0 10
BITMAP
7000
2400
02E0
0A28
ENDCHAR
STARTCHAR glyph569
ENCODING -1
SWIDTH 496 0
DWIDTH 8 0
BBX 7 5 2 10
BITMAP
0034
0018
0034
2F00
A180
ENDCHAR
STARTCHAR glyph570
ENCODING -1
SWIDTH 484 0
DWIDTH 8 0
BBX 5 5 2 10
BITMAP
2880
2380
0000
2E00
A180
ENDCHAR
STARTCHAR uni0490.c2sc
ENCODING -1
SWIDTH 451 0
DWIDTH 7 0
BBX 8 12 0 0
BITMAP
0005
000B
000A
1FFE
1D54
2800
2800
3400
3400
7000
B000
A000
ENDCHAR
STARTCHAR glyph572
ENCODING -1
SWIDTH 443 0
DWIDTH 7 0
BBX 5 5 2 10
BITMAP
0300
0900
0000
9280
6E00
ENDCHAR
STARTCHAR glyph573
ENCODING -1
SWIDTH 443 0
DWIDTH 7 0
BBX 5 5 2 10
BITMAP
0A00
0740
0D00
9240
7E00
ENDCHAR
STARTCHAR zero.numr
ENCODING -1
SWIDTH 360 0
DWIDTH 6 0
BBX 5 6 1 6
BITMAP
2F40
7280
A180
9280
A340
7E00
ENDCHAR
STARTCHAR four.numr
ENCODING -1
SWIDTH 360 0
DWIDTH 6 0
BBX 5 6 1 6
BITMAP
0380
0B40
2740
A300
FF80
0A00
ENDCHAR
STARTCHAR five.numr
ENCODING -1
SWIDTH 360 0
DWIDTH 6 0
BBX 5 6 1 6
BITMAP
2FC0
3000
7E00
1280
9240
7E00
ENDCHAR
STARTCHAR six.numr
ENCODING -1
SWIDTH 360 0
DWIDTH 6 0
BBX 5 6 1 6
BITMAP
0B40
3400
BF40
A280
A280
6E00
ENDCHAR
STARTCHAR seven.numr
ENCODING -1
SWIDTH 360 0
DWIDTH 6 0
BBX 6 6 1 6
BITMAP
7FD0
0280
0700
0D00
2800
7000
ENDCHAR
STARTCHAR eight.numr
ENCODING -1
SWIDTH 360 0
DWIDTH 6 0
BBX 5 6 1 6
BITMAP
2F40
7280
3F00
A240
D340
7E00
ENDCHAR
STARTCHAR nine.numr
ENCODING -1
SWIDTH 360 0
DWIDTH 6 0
BBX 5 6 1 6
BITMAP
2E00
6280
A280
7F80
0700
7900
ENDCHAR
STARTCHAR C.ss06
ENCODING -1
SWIDTH 672 0
DWIDTH 11 0
BBX 10 12 1 0
BITMAP
01BE00
0B5780
2C01D0
3400D0
700000
A00000
E00000
E00000
A00240
700740
3D6D00
0BE400
ENDCHAR
STARTCHAR G.ss06
ENCODING -1
SWIDTH 693 0
DWIDTH 11 0
BBX 10 12 1 0
BITMAP
01BE00
0B5780
2C01D0
340090
B00000
A00000
E03FC0
E016C0
A00280
700380
2D5B40
0BF800
ENDCHAR
STARTCHAR D.ss06
ENCODING -1
SWIDTH 680 0
DWIDTH 11 0
BBX 10 12 0 0
BITMAP
0BFE00
0A5780
0E00E0
0D00B0
1D0070
1C0070
2C00B0
2800E0
3801D0
340780
756E00
7FE400
ENDCHAR
STARTCHAR O.ss06
ENCODING -1
SWIDTH 717 0
DWIDTH 11 0
BBX 10 12 1 0
BITMAP
01BE00
0B9780
2D01D0
3400E0
7000A0
A000A0
E000E0
E001D0
A002C0
740740
2D6E00
0BE400
ENDCHAR
STARTCHAR Q.ss06
ENCODING -1
SWIDTH 718 0
DWIDTH 12 0
BBX 10 14 1 -2
BITMAP
01BE00
0B9780
2D01D0
3400E0
7000A0
A000A0
E000E0
E001D0
A002C0
700740
2D6D00
0BF800
002E00
000500
ENDCHAR
STARTCHAR one.oldstyle.pnum
ENCODING -1
SWIDTH 469 0
DWIDTH 8 0
BBX 5 9 1 0
BITMAP
0180
1FC0
7A80
0280
0340
0340
0700
0B00
0A00
ENDCHAR
STARTCHAR two.oldstyle.pnum
ENCODING -1
SWIDTH 551 0
DWIDTH 9 0
BBX 8 9 0 0
BITMAP
02F8
0E5E
2C0B
000E
0028
01E0
0B40
2D54
7FFD
ENDCHAR
STARTCHAR three.oldstyle.pnum
ENCODING -1
SWIDTH 531 0
DWIDTH 9 0
BBX 9 12 -1 -3
BITMAP
0BFFC0
015740
001D00
007400
01F800
001E00
000B00
000B00
000A00
001D00
95B800
6F9000
ENDCHAR
STARTCHAR four.oldstyle.pnum
ENCODING -1
SWIDTH 587 0
DWIDTH 9 0
BBX 10 12 -1 -3
BITMAP
0002D0
000BC0
001E80
007680
01D340
038340
0A0700
2D5B40
7FFFD0
000A00
000D00
000D00
ENDCHAR
STARTCHAR five.oldstyle.pnum
ENCODING -1
SWIDTH 540 0
DWIDTH 9 0
BBX 9 12 0 -3
BITMAP
0BFF40
0E5500
1C0000
180000
2BE000
397C00
101C00
001D00
001C00
003800
95F000
6F8000
ENDCHAR
STARTCHAR seven.oldstyle.pnum
ENCODING -1
SWIDTH 511 0
DWIDTH 8 0
BBX 9 12 0 -3
BITMAP
2FFF40
055B00
000D00
002800
007400
00A000
01C000
034000
0B0000
1D0000
280000
700000
ENDCHAR
STARTCHAR glyph592
ENCODING -1
SWIDTH 446 0
DWIDTH 7 0
BBX 5 5 2 10
BITMAP
3880
5740
0000
A240
7E00
ENDCHAR
STARTCHAR glyph593
ENCODING -1
SWIDTH 194 0
DWIDTH 3 0
BBX 3 4 -1 -3
BITMAP
38
34
70
70
ENDCHAR
STARTCHAR OE.c2sc
ENCODING -1
SWIDTH 810 0
DWIDTH 13 0
BBX 14 9 0 0
BITMAP
02FFFFD0
0F579540
2C034000
34070000
740BFF00
740A5400
340E0000
2D5D5500
0BFFFF00
ENDCHAR
STARTCHAR nine.oldstyle.pnum
ENCODING -1
SWIDTH 577 0
DWIDTH 9 0
BBX 9 12 0 -3
BITMAP
02F800
0B5A00
1C0700
280340
380740
280700
1D5F00
0BEE00
001D00
002800
15F000
7F8000
ENDCHAR
STARTCHAR glyph596
ENCODING -1
SWIDTH 245 0
DWIDTH 4 0
BBX 4 4 -2 -3
BITMAP
07
0B
5E
B8
ENDCHAR
STARTCHAR three.oldstyle
ENCODING -1
SWIDTH 549 0
DWIDTH 9 0
BBX 10 12 -1 -3
BITMAP
07FFD0
015780
000E00
007400
00F800
001F00
000740
000740
000700
000E00
657C00
6FE000
ENDCHAR
STARTCHAR five.oldstyle
ENCODING -1
SWIDTH 549 0
DWIDTH 9 0
BBX 9 12 0 -3
BITMAP
07FF80
0A5500
0D0000
1C0000
2FE400
397C00
101D00
000D00
001D00
002C00
95B400
6F8000
ENDCHAR
STARTCHAR four.oldstyle
ENCODING -1
SWIDTH 549 0
DWIDTH 9 0
BBX 9 12 -1 -3
BITMAP
0003C0
000B80
002F80
00B340
01D340
074700
0D0B00
395A40
7FFFC0
000D00
000D00
001C00
ENDCHAR
STARTCHAR two.oldstyle
ENCODING -1
SWIDTH 549 0
DWIDTH 9 0
BBX 8 9 0 0
BITMAP
02F8
0E5E
280A
100D
0078
01E0
0B40
2D54
BFFD
ENDCHAR
STARTCHAR seven.oldstyle
ENCODING -1
SWIDTH 549 0
DWIDTH 9 0
BBX 8 12 1 -3
BITMAP
7FFE
155D
0028
0070
00E0
01C0
0340
0A00
1D00
2800
7000
D000
ENDCHAR
STARTCHAR zero.oldstyle
ENCODING -1
SWIDTH 549 0
DWIDTH 9 0
BBX 9 9 0 0
BITMAP
06F800
1E5E00
380740
700340
B00340
A00700
700A00
396C00
1BE000
ENDCHAR
STARTCHAR six.oldstyle
ENCODING -1
SWIDTH 549 0
DWIDTH 9 0
BBX 7 12 1 0
BITMAP
01B4
0B90
1D00
3400
7BE0
B974
E028
D028
D028
E034
75E0
2F80
ENDCHAR
STARTCHAR nine.oldstyle
ENCODING -1
SWIDTH 549 0
DWIDTH 9 0
BBX 8 12 0 -3
BITMAP
06F8
0E5E
280B
3407
7407
340A
2D6E
0BED
001C
0038
55E0
7F40
ENDCHAR
STARTCHAR eight.oldstyle
ENCODING -1
SWIDTH 549 0
DWIDTH 9 0
BBX 9 12 0 0
BITMAP
01F900
0B5B00
0D0340
0D0740
0E1A00
07F800
1D6C00
340E00
700A00
700D00
397800
0BE000
ENDCHAR
STARTCHAR one.oldstyle
ENCODING -1
SWIDTH 549 0
DWIDTH 9 0
BBX 5 9 2 0
BITMAP
0280
2F80
BB40
4340
0700
0B00
0A00
0D00
0D00
ENDCHAR
STARTCHAR glyph607
ENCODING -1
SWIDTH 250 0
DWIDTH 4 0
BBX 6 12 -2 -3
BITMAP
00D0
01C0
01C0
0280
0280
0340
0340
0700
0700
0A00
5D00
B800
ENDCHAR
STARTCHAR glyph608
ENCODING -1
SWIDTH 249 0
DWIDTH 4 0
BBX 6 12 -2 -3
BITMAP
00D0
01C0
01C0
0280
0280
0340
0340
0700
0700
0A00
5D00
B800
ENDCHAR
STARTCHAR glyph609
ENCODING -1
SWIDTH 245 0
DWIDTH 4 0
BBX 4 9 0 0
BITMAP
1D
1C
2C
28
38
34
74
70
B0
ENDCHAR
STARTCHAR glyph610
ENCODING -1
SWIDTH 245 0
DWIDTH 4 0
BBX 5 12 -1 -3
BITMAP
0740
0700
0B00
0A00
0E00
0D00
1D00
1C00
2C00
2400
D000
B400
ENDCHAR
STARTCHAR glyph611
ENCODING -1
SWIDTH 245 0
DWIDTH 4 0
BBX 4 9 0 0
BITMAP
1D
1C
2C
28
38
34
74
70
B0
ENDCHAR
STARTCHAR germandbls.sc
ENCODING -1
SWIDTH 527 0
DWIDTH 8 0
BBX 8 9 0 0
BITMAP
06F4
0E6D
2C28
28A0
35E4
345D
700D
B56C
A7E0
ENDCHAR
STARTCHAR zero.oldstyle.pnum
ENCODING -1
SWIDTH 611 0
DWIDTH 10 0
BBX 8 9 1 0
BITMAP
0BF4
2D6D
700A
E00A
D00A
D00E
E01D
B578
2F90
ENDCHAR
STARTCHAR seven.pnum
ENCODING -1
SWIDTH 504 0
DWIDTH 8 0
BBX 8 12 1 0
BITMAP
7FFD
155C
0028
0070
00D0
02C0
0340
0A00
1D00
2800
7000
E000
ENDCHAR
STARTCHAR b.ss06
ENCODING -1
SWIDTH 549 0
DWIDTH 9 0
BBX 8 12 0 0
BITMAP
0A00
0D00
0D00
1DF8
1E5E
2807
2807
3407
340A
740D
797C
A7E0
ENDCHAR
STARTCHAR c.ss06
ENCODING -1
SWIDTH 513 0
DWIDTH 8 0
BBX 8 9 0 0
BITMAP
02F8
0E5D
280A
3400
7400
7000
740D
2978
0BE0
ENDCHAR
STARTCHAR d.ss06
ENCODING -1
SWIDTH 559 0
DWIDTH 9 0
BBX 9 12 0 0
BITMAP
0001C0
000280
000380
06F740
1E5F40
280700
340B00
700A00
700E00
740D00
397D00
1B9C00
ENDCHAR
STARTCHAR g.ss06
ENCODING -1
SWIDTH 556 0
DWIDTH 9 0
BBX 9 12 0 -3
BITMAP
06F740
1E5F00
280700
340A00
700A00
700D00
740D00
397C00
1BAC00
002800
65B000
6F9000
ENDCHAR
STARTCHAR o.ss06
ENCODING -1
SWIDTH 564 0
DWIDTH 9 0
BBX 9 9 0 0
BITMAP
02F800
1E5E00
280700
740740
700700
700B00
740E00
296C00
0BE000
ENDCHAR
STARTCHAR p.ss06
ENCODING -1
SWIDTH 556 0
DWIDTH 9 0
BBX 9 12 -1 -3
BITMAP
077E00
0B9780
0A02C0
0E01C0
0D01C0
1D0280
1C0340
2E5F00
29F800
380000
340000
740000
ENDCHAR
STARTCHAR q.ss06
ENCODING -1
SWIDTH 563 0
DWIDTH 9 0
BBX 9 12 0 -3
BITMAP
06F740
1E5F00
280700
340A00
700A00
700D00
740D00
397C00
1BAC00
002800
002800
003400
ENDCHAR
STARTCHAR e.ss07
ENCODING -1
SWIDTH 518 0
DWIDTH 8 0
BBX 8 9 0 0
BITMAP
02F4
0E5D
2C0A
340A
7FFE
7554
3400
2D54
0BE4
ENDCHAR
STARTCHAR g.ss07
ENCODING -1
SWIDTH 549 0
DWIDTH 9 0
BBX 9 12 0 -3
BITMAP
06E740
1E5F00
280B00
340A00
700E00
700D00
741D00
397C00
1BAC00
003800
65B000
6F8000
ENDCHAR
STARTCHAR one.pnum
ENCODING -1
SWIDTH 425 0
DWIDTH 7 0
BBX 5 12 1 0
BITMAP
0180
1F80
B680
0340
0340
0700
0700
0A00
0A00
0D00
0D00
1D00
ENDCHAR
STARTCHAR ampersand.c2sc
ENCODING -1
SWIDTH 591 0
DWIDTH 9 0
BBX 8 9 0 0
BITMAP
06E0
0E78
0D34
0AE0
0B82
39D7
B07E
757C
2F9A
ENDCHAR
STARTCHAR Lslash.c2sc
ENCODING -1
SWIDTH 454 0
DWIDTH 7 0
BBX 6 9 0 0
BITMAP
1C00
1C00
2800
2A80
B900
7400
7000
B550
BFF0
ENDCHAR
STARTCHAR AE.c2sc
ENCODING -1
SWIDTH 759 0
DWIDTH 12 0
BBX 13 9 -1 0
BITMAP
000BFFC0
001F9500
00378000
00B34000
01D3FE00
07875400
0FFF0000
2D5B5400
740BFE00
ENDCHAR
STARTCHAR Thorn.c2sc
ENCODING -1
SWIDTH 486 0
DWIDTH 8 0
BBX 7 9 0 0
BITMAP
1C00
1C00
2FE4
296C
341C
346C
7FE0
B500
A000
ENDCHAR
STARTCHAR Oslash.c2sc
ENCODING -1
SWIDTH 578 0
DWIDTH 9 0
BBX 9 11 0 -1
BITMAP
000040
02FA80
0E5B00
281F40
347340
70D340
724740
7A0A00
3D6D00
6BE400
400000
ENDCHAR
STARTCHAR Hbar.c2sc
ENCODING -1
SWIDTH 597 0
DWIDTH 10 0
BBX 10 9 0 0
BITMAP
1C01C0
7FFFE0
295680
380380
3FFF40
755740
700700
B00B00
A00A00
ENDCHAR
STARTCHAR Eng.c2sc
ENCODING -1
SWIDTH 597 0
DWIDTH 10 0
BBX 9 12 0 -3
BITMAP
1D01C0
1F01C0
2F4280
29C280
34D340
347740
703B00
B01F00
A00E00
000E00
006D00
00F400
ENDCHAR
STARTCHAR Dcroat.c2sc
ENCODING -1
SWIDTH 550 0
DWIDTH 9 0
BBX 9 9 -1 0
BITMAP
07F900
075B40
0A0280
0A01C0
BFD1C0
1D4280
1C0740
2D5E00
2FE400
ENDCHAR
STARTCHAR Eth.c2sc
ENCODING -1
SWIDTH 550 0
DWIDTH 9 0
BBX 9 9 -1 0
BITMAP
07F900
075B40
0A0280
0A01C0
BFD1C0
1D4280
1C0740
2D5E00
2FE400
ENDCHAR
STARTCHAR Tbar.c2sc
ENCODING -1
SWIDTH 507 0
DWIDTH 8 0
BBX 8 9 1 0
BITMAP
FFFD
5754
0700
7FE0
1F40
0E00
0D00
1D00
1C00
ENDCHAR
STARTCHAR Agrave.c2sc
ENCODING -1
SWIDTH 552 0
DWIDTH 9 0
BBX 9 12 -1 0
BITMAP
007400
001800
000000
002C00
007C00
00ED00
02CA00
034A00
0B0700
1FFF40
395740
700280
ENDCHAR
STARTCHAR Aacute.c2sc
ENCODING -1
SWIDTH 552 0
DWIDTH 9 0
BBX 9 12 -1 0
BITMAP
000780
000D00
000000
002C00
007C00
00ED00
02CA00
034A00
0B0700
1FFF40
395740
700280
ENDCHAR
STARTCHAR Acircumflex.c2sc
ENCODING -1
SWIDTH 552 0
DWIDTH 9 0
BBX 9 12 -1 0
BITMAP
006E00
00E280
000000
002C00
007C00
00ED00
02CA00
034A00
0B0700
1FFF40
395740
700280
ENDCHAR
STARTCHAR Atilde.c2sc
ENCODING -1
SWIDTH 552 0
DWIDTH 9 0
BBX 9 12 -1 0
BITMAP
00B9C0
01C780
000000
002C00
007C00
00ED00
02CA00
034A00
0B0700
1FFF40
395740
700280
ENDCHAR
STARTCHAR Adieresis.c2sc
ENCODING -1
SWIDTH 552 0
DWIDTH 9 0
BBX 9 12 -1 0
BITMAP
005140
009280
000000
002C00
007C00
00ED00
02CA00
034A00
0B0700
1FFF40
395740
700280
ENDCHAR
STARTCHAR Aring.c2sc
ENCODING -1
SWIDTH 552 0
DWIDTH 9 0
BBX 9 14 -1 0
BITMAP
001E00
002200
002200
001E00
000000
002C00
007C00
00ED00
02CA00
034A00
0B0700
1FFF40
395740
700280
ENDCHAR
STARTCHAR Aringacute.c2sc
ENCODING -1
SWIDTH 552 0
DWIDTH 9 0
BBX 9 15 -1 0
BITMAP
000280
000600
000000
002D00
002600
002D00
002C00
007C00
00ED00
02CA00
034A00
0B0700
1FFF40
395740
700280
ENDCHAR
STARTCHAR Ccedilla.c2sc
ENCODING -1
SWIDTH 548 0
DWIDTH 9 0
BBX 9 12 0 -3
BITMAP
02F900
0E5B00
280340
340000
740000
700000
740A00
296C00
0BE400
034000
01C000
0B4000
ENDCHAR
STARTCHAR Egrave.c2sc
ENCODING -1
SWIDTH 477 0
DWIDTH 8 0
BBX 8 12 0 0
BITMAP
02C0
0090
0000
1FFE
1D54
2800
2800
3FF8
3550
7000
B550
BFF4
ENDCHAR
STARTCHAR Eacute.c2sc
ENCODING -1
SWIDTH 477 0
DWIDTH 8 0
BBX 8 12 0 0
BITMAP
002D
0060
0000
1FFE
1D54
2800
2800
3FF8
3550
7000
B550
BFF4
ENDCHAR
STARTCHAR Ecircumflex.c2sc
ENCODING -1
SWIDTH 477 0
DWIDTH 8 0
BBX 8 12 0 0
BITMAP
01B8
079D
0000
1FFE
1D54
2800
2800
3FF8
3550
7000
B550
BFF4
ENDCHAR
STARTCHAR Edieresis.c2sc
ENCODING -1
SWIDTH 477 0
DWIDTH 8 0
BBX 8 12 0 0
BITMAP
0205
074D
0000
1FFE
1D54
2800
2800
3FF8
3550
7000
B550
BFF4
ENDCHAR
STARTCHAR Igrave.c2sc
ENCODING -1
SWIDTH 235 0
DWIDTH 4 0
BBX 4 12 0 0
BITMAP
28
09
00
1D
1C
2C
28
38
34
74
70
B0
ENDCHAR
STARTCHAR Iacute.c2sc
ENCODING -1
SWIDTH 235 0
DWIDTH 4 0
BBX 5 12 0 0
BITMAP
02C0
0A00
0000
1D00
1C00
2C00
2800
3800
3400
7400
7000
B000
ENDCHAR
STARTCHAR Icircumflex.c2sc
ENCODING -1
SWIDTH 235 0
DWIDTH 4 0
BBX 5 12 0 0
BITMAP
1F40
75C0
0000
1D00
1C00
2C00
2800
3800
3400
7400
7000
B000
ENDCHAR
STARTCHAR Idieresis.c2sc
ENCODING -1
SWIDTH 235 0
DWIDTH 4 0
BBX 6 12 0 0
BITMAP
2080
70D0
0000
1D00
1C00
2C00
2800
3800
3400
7400
7000
B000
ENDCHAR
STARTCHAR Ntilde.c2sc
ENCODING -1
SWIDTH 597 0
DWIDTH 10 0
BBX 9 12 0 0
BITMAP
01E640
035E00
000000
1D01C0
1F01C0
2F4280
29C280
34D340
347740
703B00
B01F00
A00E00
ENDCHAR
STARTCHAR Ograve.c2sc
ENCODING -1
SWIDTH 578 0
DWIDTH 9 0
BBX 9 12 0 0
BITMAP
00E000
006000
000000
02F900
0E5B00
280340
340340
700340
700740
340B00
2D6D00
0BE400
ENDCHAR
STARTCHAR Oacute.c2sc
ENCODING -1
SWIDTH 578 0
DWIDTH 9 0
BBX 9 12 0 0
BITMAP
001E00
002800
000000
02F900
0E5B00
280340
340340
700340
700740
340B00
2D6D00
0BE400
ENDCHAR
STARTCHAR Ocircumflex.c2sc
ENCODING -1
SWIDTH 578 0
DWIDTH 9 0
BBX 9 12 0 0
BITMAP
00B900
02DB00
000000
02F900
0E5B00
280340
340340
700340
700740
340B00
2D6D00
0BE400
ENDCHAR
STARTCHAR Otilde.c2sc
ENCODING -1
SWIDTH 578 0
DWIDTH 9 0
BBX 9 12 0 0
BITMAP
02E640
031E00
000000
02F900
0E5B00
280340
340340
700340
700740
340B00
2D6D00
0BE400
ENDCHAR
STARTCHAR Odieresis.c2sc
ENCODING -1
SWIDTH 578 0
DWIDTH 9 0
BBX 9 12 0 0
BITMAP
014200
028700
000000
02F900
0E5B00
280340
340340
700340
700740
340B00
2D6D00
0BE400
ENDCHAR
STARTCHAR Ugrave.c2sc
ENCODING -1
SWIDTH 548 0
DWIDTH 9 0
BBX 9 12 0 0
BITMAP
01D000
006000
000000
1C0280
2C0340
280740
340700
340B00
700A00
700D00
396C00
1BE000
ENDCHAR
STARTCHAR Uacute.c2sc
ENCODING -1
SWIDTH 548 0
DWIDTH 9 0
BBX 9 12 0 0
BITMAP
001D00
007400
000000
1C0280
2C0340
280740
340700
340B00
700A00
700D00
396C00
1BE000
ENDCHAR
STARTCHAR Ucircumflex.c2sc
ENCODING -1
SWIDTH 548 0
DWIDTH 9 0
BBX 9 12 0 0
BITMAP
01B800
038E00
000000
1C0280
2C0340
280740
340700
340B00
700A00
700D00
396C00
1BE000
ENDCHAR
STARTCHAR Udieresis.c2sc
ENCODING -1
SWIDTH 548 0
DWIDTH 9 0
BBX 9 12 0 0
BITMAP
014500
024A00
000000
1C0280
2C0340
280740
340700
340B00
700A00
700D00
396C00
1BE000
ENDCHAR
STARTCHAR Yacute.c2sc
ENCODING -1
SWIDTH 510 0
DWIDTH 8 0
BBX 8 12 1 0
BITMAP
00B4
0180
0000
E01D
B038
34B0
29D0
1F80
0E00
0D00
1D00
1C00
ENDCHAR
STARTCHAR Amacron.c2sc
ENCODING -1
SWIDTH 552 0
DWIDTH 9 0
BBX 9 11 -1 0
BITMAP
00FFC0
000000
002C00
007C00
00ED00
02CA00
034A00
0B0700
1FFF40
395740
700280
ENDCHAR
STARTCHAR Abreve.c2sc
ENCODING -1
SWIDTH 552 0
DWIDTH 9 0
BBX 9 12 -1 0
BITMAP
00A280
002E00
000000
002C00
007C00
00ED00
02CA00
034A00
0B0700
1FFF40
395740
700280
ENDCHAR
STARTCHAR Aogonek.c2sc
ENCODING -1
SWIDTH 552 0
DWIDTH 9 0
BBX 9 12 -1 -3
BITMAP
002C00
007C00
00ED00
02CA00
034A00
0B0700
1FFF40
395740
700280
000A00
001D00
000F00
ENDCHAR
STARTCHAR Cacute.c2sc
ENCODING -1
SWIDTH 548 0
DWIDTH 9 0
BBX 9 12 0 0
BITMAP
001E00
003400
000000
02F900
0E5B00
280340
340000
740000
700000
740A00
296C00
0BE400
ENDCHAR
STARTCHAR Ccircumflex.c2sc
ENCODING -1
SWIDTH 548 0
DWIDTH 9 0
BBX 9 12 0 0
BITMAP
01B800
038A00
000000
02F900
0E5B00
280340
340000
740000
700000
740A00
296C00
0BE400
ENDCHAR
STARTCHAR Cdotaccent.c2sc
ENCODING -1
SWIDTH 548 0
DWIDTH 9 0
BBX 9 12 0 0
BITMAP
002000
003400
000000
02F900
0E5B00
280340
340000
740000
700000
740A00
296C00
0BE400
ENDCHAR
STARTCHAR Ccaron.c2sc
ENCODING -1
SWIDTH 548 0
DWIDTH 9 0
BBX 9 12 0 0
BITMAP
01CA00
007400
000000
02F900
0E5B00
280340
340000
740000
700000
740A00
296C00
0BE400
ENDCHAR
STARTCHAR Dcaron.c2sc
ENCODING -1
SWIDTH 550 0
DWIDTH 9 0
BBX 8 12 0 0
BITMAP
0358
00E0
0000
1FE4
1D6D
280A
2807
3407
340A
701D
B578
BF90
ENDCHAR
STARTCHAR Emacron.c2sc
ENCODING -1
SWIDTH 477 0
DWIDTH 8 0
BBX 8 11 0 0
BITMAP
07FE
0000
1FFE
1D54
2800
2800
3FF8
3550
7000
B550
BFF4
ENDCHAR
STARTCHAR Ebreve.c2sc
ENCODING -1
SWIDTH 477 0
DWIDTH 8 0
BBX 8 12 0 0
BITMAP
034D
01F8
0000
1FFE
1D54
2800
2800
3FF8
3550
7000
B550
BFF4
ENDCHAR
STARTCHAR Edotaccent.c2sc
ENCODING -1
SWIDTH 477 0
DWIDTH 8 0
BBX 8 12 0 0
BITMAP
0050
00A0
0000
1FFE
1D54
2800
2800
3FF8
3550
7000
B550
BFF4
ENDCHAR
STARTCHAR Eogonek.c2sc
ENCODING -1
SWIDTH 477 0
DWIDTH 8 0
BBX 8 12 0 -3
BITMAP
1FFE
1D54
2800
2800
3FF8
3550
7000
B550
BFF4
01D0
0380
02D0
ENDCHAR
STARTCHAR Ecaron.c2sc
ENCODING -1
SWIDTH 477 0
DWIDTH 8 0
BBX 8 12 0 0
BITMAP
029D
00B4
0000
1FFE
1D54
2800
2800
3FF8
3550
7000
B550
BFF4
ENDCHAR
STARTCHAR Gcircumflex.c2sc
ENCODING -1
SWIDTH 571 0
DWIDTH 9 0
BBX 9 12 0 0
BITMAP
01B800
038A00
000000
02F900
0E5B00
2C0240
340000
747F00
700B00
340B00
2D5E00
0BF800
ENDCHAR
STARTCHAR Gbreve.c2sc
ENCODING -1
SWIDTH 571 0
DWIDTH 9 0
BBX 9 12 0 0
BITMAP
028A00
00B900
000000
02F900
0E5B00
2C0240
340000
747F00
700B00
340B00
2D5E00
0BF800
ENDCHAR
STARTCHAR Gdotaccent.c2sc
ENCODING -1
SWIDTH 571 0
DWIDTH 9 0
BBX 9 12 0 0
BITMAP
002000
007400
000000
02F900
0E5B00
2C0240
340000
747F00
700B00
340B00
2D5E00
0BF800
ENDCHAR
STARTCHAR uni0122.c2sc
ENCODING -1
SWIDTH 571 0
DWIDTH 9 0
BBX 9 13 0 -4
BITMAP
02F900
0E5B00
2C0240
340000
747F00
700B00
340B00
2D5E00
0BF800
000000
070000
0A0000
090000
ENDCHAR
STARTCHAR Hcircumflex.c2sc
ENCODING -1
SWIDTH 597 0
DWIDTH 10 0
BBX 9 12 0 0
BITMAP
00BD00
02DB00
000000
1C01C0
1C01C0
280280
280280
3FFF40
355740
700700
B00B00
A00A00
ENDCHAR
STARTCHAR Itilde.c2sc
ENCODING -1
SWIDTH 235 0
DWIDTH 4 0
BBX 6 12 0 0
BITMAP
7DA0
96C0
0000
1D00
1C00
2C00
2800
3800
3400
7400
7000
B000
ENDCHAR
STARTCHAR Imacron.c2sc
ENCODING -1
SWIDTH 235 0
DWIDTH 4 0
BBX 6 11 0 0
BITMAP
BFE0
0000
1D00
1C00
2C00
2800
3800
3400
7400
7000
B000
ENDCHAR
STARTCHAR Ibreve.c2sc
ENCODING -1
SWIDTH 235 0
DWIDTH 4 0
BBX 6 12 0 0
BITMAP
31D0
1F40
0000
1D00
1C00
2C00
2800
3800
3400
7400
7000
B000
ENDCHAR
STARTCHAR Iogonek.c2sc
ENCODING -1
SWIDTH 235 0
DWIDTH 4 0
BBX 5 12 -1 -3
BITMAP
0740
0700
0B00
0A00
0E00
0D00
1D00
1C00
2C00
2400
D000
B400
ENDCHAR
STARTCHAR Idotaccent.c2sc
ENCODING -1
SWIDTH 235 0
DWIDTH 4 0
BBX 4 12 0 0
BITMAP
05
0A
00
1D
1C
2C
28
38
34
74
70
B0
ENDCHAR
STARTCHAR Jcircumflex.c2sc
ENCODING -1
SWIDTH 466 0
DWIDTH 7 0
BBX 9 12 0 0
BITMAP
002E40
00B680
000000
001C00
001C00
002800
002800
003400
007400
907000
A5E000
2F8000
ENDCHAR
STARTCHAR uni0136.c2sc
ENCODING -1
SWIDTH 529 0
DWIDTH 8 0
BBX 9 13 0 -4
BITMAP
1C0740
1C2D00
28B400
2AD000
3FC000
39D000
70B000
B03800
A01D00
000000
0A0000
0D0000
180000
ENDCHAR
STARTCHAR Lacute.c2sc
ENCODING -1
SWIDTH 454 0
DWIDTH 7 0
BBX 6 12 0 0
BITMAP
0280
0A00
0000
1C00
1C00
2800
2800
3400
3400
7000
B550
BFF0
ENDCHAR
STARTCHAR uni013B.c2sc
ENCODING -1
SWIDTH 454 0
DWIDTH 7 0
BBX 6 13 0 -4
BITMAP
1C00
1C00
2800
2800
3400
3400
7000
B550
BFF0
0000
0A00
0D00
1800
ENDCHAR
STARTCHAR Lcaron.c2sc
ENCODING -1
SWIDTH 454 0
DWIDTH 7 0
BBX 7 9 0 0
BITMAP
1C74
1CB0
2890
2800
3400
3400
7000
B550
BFF0
ENDCHAR
STARTCHAR Ldot.c2sc
ENCODING -1
SWIDTH 454 0
DWIDTH 7 0
BBX 6 9 0 0
BITMAP
1C00
1C00
2800
2890
34D0
3400
7000
B550
BFF0
ENDCHAR
STARTCHAR Nacute.c2sc
ENCODING -1
SWIDTH 597 0
DWIDTH 10 0
BBX 9 12 0 0
BITMAP
000A00
002800
000000
1D01C0
1F01C0
2F4280
29C280
34D340
347740
703B00
B01F00
A00E00
ENDCHAR
STARTCHAR uni0145.c2sc
ENCODING -1
SWIDTH 597 0
DWIDTH 10 0
BBX 9 13 0 -4
BITMAP
1D01C0
1F01C0
2F4280
29C280
34D340
347740
703B00
B01F00
A00E00
000000
034000
070000
090000
ENDCHAR
STARTCHAR Ncaron.c2sc
ENCODING -1
SWIDTH 597 0
DWIDTH 10 0
BBX 9 12 0 0
BITMAP
00D600
007800
000000
1D01C0
1F01C0
2F4280
29C280
34D340
347740
703B00
B01F00
A00E00
ENDCHAR
STARTCHAR Omacron.c2sc
ENCODING -1
SWIDTH 578 0
DWIDTH 9 0
BBX 9 11 0 0
BITMAP
02FF40
000000
02F900
0E5B00
280340
340340
700340
700740
340B00
2D6D00
0BE400
ENDCHAR
STARTCHAR Obreve.c2sc
ENCODING -1
SWIDTH 578 0
DWIDTH 9 0
BBX 9 12 0 0
BITMAP
018700
00BD00
000000
02F900
0E5B00
280340
340340
700340
700740
340B00
2D6D00
0BE400
ENDCHAR
STARTCHAR Ohungarumlaut.c2sc
ENCODING -1
SWIDTH 578 0
DWIDTH 9 0
BBX 9 12 0 0
BITMAP
007680
00DA00
000000
02F900
0E5B00
280340
340340
700340
700740
340B00
2D6D00
0BE400
ENDCHAR
STARTCHAR Racute.c2sc
ENCODING -1
SWIDTH 524 0
DWIDTH 8 0
BBX 8 12 0 0
BITMAP
002D
00A0
0000
1FF8
1D5E
280B
281E
3FF8
35B0
7034
B028
A01C
ENDCHAR
STARTCHAR uni0156.c2sc
ENCODING -1
SWIDTH 524 0
DWIDTH 8 0
BBX 8 13 0 -4
BITMAP
1FF8
1D5E
280B
281E
3FF8
35B0
7034
B028
A01C
0000
0A00
0D00
1800
ENDCHAR
STARTCHAR Rcaron.c2sc
ENCODING -1
SWIDTH 524 0
DWIDTH 8 0
BBX 8 12 0 0
BITMAP
025D
00A0
0000
1FF8
1D5E
280B
281E
3FF8
35B0
7034
B028
A01C
ENDCHAR
STARTCHAR Sacute.c2sc
ENCODING -1
SWIDTH 504 0
DWIDTH 8 0
BBX 8 12 0 0
BITMAP
002D
0074
0000
06F4
1D5D
280A
2D00
07E0
006C
A01C
7578
1FE0
ENDCHAR
STARTCHAR Scircumflex.c2sc
ENCODING -1
SWIDTH 504 0
DWIDTH 8 0
BBX 8 12 0 0
BITMAP
01B8
079D
0000
06F4
1D5D
280A
2D00
07E0
006C
A01C
7578
1FE0
ENDCHAR
STARTCHAR Scedilla.c2sc
ENCODING -1
SWIDTH 504 0
DWIDTH 8 0
BBX 8 12 0 -3
BITMAP
06F4
1D5D
280A
2D00
07E0
006C
A01C
7578
1FE0
0740
0280
0A40
ENDCHAR
STARTCHAR Scaron.c2sc
ENCODING -1
SWIDTH 504 0
DWIDTH 8 0
BBX 8 12 0 0
BITMAP
029D
00B4
0000
06F4
1D5D
280A
2D00
07E0
006C
A01C
7578
1FE0
ENDCHAR
STARTCHAR uni021A.c2sc
ENCODING -1
SWIDTH 507 0
DWIDTH 8 0
BBX 8 13 1 -4
BITMAP
FFFD
5754
0700
0B00
0A00
0E00
0D00
1D00
1C00
0000
2800
3400
6000
ENDCHAR
STARTCHAR Tcaron.c2sc
ENCODING -1
SWIDTH 507 0
DWIDTH 8 0
BBX 8 12 1 0
BITMAP
0A74
02C0
0000
FFFD
5754
0700
0B00
0A00
0E00
0D00
1D00
1C00
ENDCHAR
STARTCHAR uni0162.c2sc
ENCODING -1
SWIDTH 507 0
DWIDTH 8 0
BBX 8 12 1 -3
BITMAP
FFFD
5754
0700
0B00
0A00
0E00
0D00
1D00
1C00
1C00
0900
3800
ENDCHAR
STARTCHAR Utilde.c2sc
ENCODING -1
SWIDTH 548 0
DWIDTH 9 0
BBX 9 12 0 0
BITMAP
02E700
062E00
000000
1C0280
2C0340
280740
340700
340B00
700A00
700D00
396C00
1BE000
ENDCHAR
STARTCHAR Umacron.c2sc
ENCODING -1
SWIDTH 548 0
DWIDTH 9 0
BBX 9 11 0 0
BITMAP
03FF00
000000
1C0280
2C0340
280740
340700
340B00
700A00
700D00
396C00
1BE000
ENDCHAR
STARTCHAR Ubreve.c2sc
ENCODING -1
SWIDTH 548 0
DWIDTH 9 0
BBX 9 12 0 0
BITMAP
028A00
00B800
000000
1C0280
2C0340
280740
340700
340B00
700A00
700D00
396C00
1BE000
ENDCHAR
STARTCHAR Uring.c2sc
ENCODING -1
SWIDTH 548 0
DWIDTH 9 0
BBX 9 14 0 0
BITMAP
007800
008800
008800
00B400
000000
1C0280
2C0340
280740
340700
340B00
700A00
700D00
396C00
1BE000
ENDCHAR
STARTCHAR Uhungarumlaut.c2sc
ENCODING -1
SWIDTH 548 0
DWIDTH 9 0
BBX 9 12 0 0
BITMAP
00B780
01DD00
000000
1C0280
2C0340
280740
340700
340B00
700A00
700D00
396C00
1BE000
ENDCHAR
STARTCHAR Uogonek.c2sc
ENCODING -1
SWIDTH 548 0
DWIDTH 9 0
BBX 9 12 0 -3
BITMAP
1C0280
2C0340
280740
340700
340B00
700A00
700D00
396C00
1BE000
034000
074000
03C000
ENDCHAR
STARTCHAR Wcircumflex.c2sc
ENCODING -1
SWIDTH 742 0
DWIDTH 12 0
BBX 11 12 1 0
BITMAP
007D00
01D740
000000
90341C
A0B428
A0E834
A198A0
A358D0
661DC0
6D0E80
7C0F00
740E00
ENDCHAR
STARTCHAR Ycircumflex.c2sc
ENCODING -1
SWIDTH 510 0
DWIDTH 8 0
BBX 8 12 1 0
BITMAP
06D0
1D74
0000
E01D
B038
34B0
29D0
1F80
0E00
0D00
1D00
1C00
ENDCHAR
STARTCHAR Ydieresis.c2sc
ENCODING -1
SWIDTH 510 0
DWIDTH 8 0
BBX 8 12 1 0
BITMAP
0814
1D34
0000
E01D
B038
34B0
29D0
1F80
0E00
0D00
1D00
1C00
ENDCHAR
STARTCHAR Zacute.c2sc
ENCODING -1
SWIDTH 506 0
DWIDTH 8 0
BBX 9 12 -1 0
BITMAP
000B40
001800
000000
0BFFC0
015740
001E00
003800
00E000
028000
0B0000
2D5500
7FFE00
ENDCHAR
STARTCHAR Zdotaccent.c2sc
ENCODING -1
SWIDTH 506 0
DWIDTH 8 0
BBX 9 12 -1 0
BITMAP
001400
002800
000000
0BFFC0
015740
001E00
003800
00E000
028000
0B0000
2D5500
7FFE00
ENDCHAR
STARTCHAR Zcaron.c2sc
ENCODING -1
SWIDTH 506 0
DWIDTH 8 0
BBX 9 12 -1 0
BITMAP
00A740
002C00
000000
0BFFC0
015740
001E00
003800
00E000
028000
0B0000
2D5500
7FFE00
ENDCHAR
STARTCHAR two.pnum
ENCODING -1
SWIDTH 549 0
DWIDTH 9 0
BBX 8 12 0 0
BITMAP
02F8
0E5B
1C07
1407
000A
001D
0074
01D0
0740
1D00
7954
BFFE
ENDCHAR
STARTCHAR three.pnum
ENCODING -1
SWIDTH 549 0
DWIDTH 9 0
BBX 8 12 0 0
BITMAP
02F8
0A5A
1C07
0007
001D
02F4
016C
000D
000D
701D
3978
1BE0
ENDCHAR
STARTCHAR four.pnum
ENCODING -1
SWIDTH 549 0
DWIDTH 9 0
BBX 8 12 0 0
BITMAP
000F
002E
007E
01DD
038D
0A1C
1C1C
7428
BFFF
5579
0034
0070
ENDCHAR
STARTCHAR five.pnum
ENCODING -1
SWIDTH 549 0
DWIDTH 9 0
BBX 8 12 1 0
BITMAP
0FFE
1D55
1C00
2800
3BE0
39B4
0028
001C
4028
D038
B5B0
2F80
ENDCHAR
STARTCHAR six.pnum
ENCODING -1
SWIDTH 559 0
DWIDTH 9 0
BBX 7 12 1 0
BITMAP
01B8
0790
1D00
3800
7BE0
B978
A02C
E01C
E02C
A038
75B0
1F90
ENDCHAR
STARTCHAR eight.pnum
ENCODING -1
SWIDTH 569 0
DWIDTH 9 0
BBX 9 12 0 0
BITMAP
01B900
075B00
0E0340
0D0340
0A0A00
07F800
1E5D00
380A00
740A00
340E00
296C00
0BE000
ENDCHAR
STARTCHAR nine.pnum
ENCODING -1
SWIDTH 559 0
DWIDTH 9 0
BBX 7 12 1 0
BITMAP
0BE0
2D78
701C
A01C
A01C
A02C
79B8
2FA8
0070
00E0
1B80
7900
ENDCHAR
STARTCHAR zero.pnum
ENCODING -1
SWIDTH 569 0
DWIDTH 9 0
BBX 8 12 1 0
BITMAP
07E4
1D6C
340D
700D
B00D
A00D
A01C
D01C
D028
E034
B5A0
2F80
ENDCHAR
STARTCHAR G_acutecomb.ccmp
ENCODING -1
SWIDTH 665 0
DWIDTH 11 0
BBX 9 15 1 0
BITMAP
001E00
002400
000000
02F900
0E5B40
280280
740180
B00000
A00000
E07F80
D01740
E00740
B00700
396E00
1BE400
ENDCHAR
STARTCHAR g_acutecomb.ccmp
ENCODING -1
SWIDTH 549 0
DWIDTH 9 0
BBX 9 15 0 -3
BITMAP
001D00
007400
000000
06E740
1E5F00
280B00
340A00
700E00
700D00
741D00
397C00
1FAC00
002800
A5B000
2F9000
ENDCHAR
STARTCHAR N_gravecomb.ccmp
ENCODING -1
SWIDTH 696 0
DWIDTH 11 0
BBX 11 15 0 0
BITMAP
002800
000900
000000
0B002C
0B8028
0FC038
0ED034
1DA074
1C7470
2C38B0
281CA0
380EE0
340BD0
7403D0
7002C0
ENDCHAR
STARTCHAR n_gravecomb.ccmp
ENCODING -1
SWIDTH 540 0
DWIDTH 9 0
BBX 8 12 0 0
BITMAP
01D0
00A0
0000
1DF8
2E5D
280A
380E
340D
740D
701C
B01C
A028
ENDCHAR
STARTCHAR A_uni030F.ccmp
ENCODING -1
SWIDTH 637 0
DWIDTH 10 0
BBX 10 15 -1 0
BITMAP
00B740
002A80
000000
000B00
001F00
002B40
007680
00A280
01D2C0
0281C0
0741D0
0BFFD0
1D55E0
3800A0
740070
ENDCHAR
STARTCHAR a_uni030F.ccmp
ENCODING -1
SWIDTH 532 0
DWIDTH 9 0
BBX 8 12 0 0
BITMAP
0BB4
02A8
0000
06F4
1E6D
280D
000D
1BFD
391C
702C
75B8
2FAC
ENDCHAR
STARTCHAR E_uni030F.ccmp
ENCODING -1
SWIDTH 556 0
DWIDTH 9 0
BBX 10 15 0 0
BITMAP
07AC00
01D900
000000
0BFFD0
0A5540
0D0000
0D0000
1C0000
1FFE00
2D5400
280000
340000
340000
755400
7FFE00
ENDCHAR
STARTCHAR e_uni030F.ccmp
ENCODING -1
SWIDTH 518 0
DWIDTH 8 0
BBX 8 12 0 0
BITMAP
1EB0
0764
0000
02F4
0E5D
2C0A
340A
7FFE
7554
3400
2D6C
0BE0
ENDCHAR
STARTCHAR I_uni030F.ccmp
ENCODING -1
SWIDTH 268 0
DWIDTH 4 0
BBX 5 15 0 0
BITMAP
B740
2A80
0000
0B00
0A00
0E00
0D00
1D00
1C00
2C00
2800
3800
3400
7400
7000
ENDCHAR
STARTCHAR dotlessi_uni030F.ccmp
ENCODING -1
SWIDTH 244 0
DWIDTH 4 0
BBX 5 12 -1 0
BITMAP
7B80
1DC0
0000
0740
0700
0B00
0A00
0E00
0D00
1D00
1C00
2C00
ENDCHAR
STARTCHAR O_uni030F.ccmp
ENCODING -1
SWIDTH 671 0
DWIDTH 11 0
BBX 9 15 1 0
BITMAP
0B7800
029800
000000
02F900
0F5B40
280280
7401C0
B001C0
E001C0
D002C0
D00380
E00740
B00A00
796C00
1BE000
ENDCHAR
STARTCHAR o_uni030F.ccmp
ENCODING -1
SWIDTH 558 0
DWIDTH 9 0
BBX 8 12 0 0
BITMAP
0EB0
0364
0000
06F8
0E5E
280B
3407
7007
700B
740E
2D6C
0BE0
ENDCHAR
STARTCHAR R_uni030F.ccmp
ENCODING -1
SWIDTH 602 0
DWIDTH 10 0
BBX 10 15 0 0
BITMAP
07A800
01DD00
000000
0BFE00
0A57C0
0D01D0
0D00D0
1D01C0
1C0780
2FFD00
296C00
381D00
340E00
740B00
700740
ENDCHAR
STARTCHAR r_uni030F.ccmp
ENCODING -1
SWIDTH 333 0
DWIDTH 5 0
BBX 6 12 0 0
BITMAP
7AC0
1D90
0000
1DE0
2E50
2C00
3800
3400
7400
7000
B000
A000
ENDCHAR
STARTCHAR U_uni030F.ccmp
ENCODING -1
SWIDTH 633 0
DWIDTH 10 0
BBX 10 15 1 0
BITMAP
0B7400
02A800
000000
3801D0
3401C0
3402C0
700280
700380
A00340
A00740
D00700
D00A00
E00D00
B97800
1FE000
ENDCHAR
STARTCHAR u_uni030F.ccmp
ENCODING -1
SWIDTH 539 0
DWIDTH 9 0
BBX 7 12 1 0
BITMAP
3AC0
0D90
0000
701C
701C
A028
A028
D034
D034
D074
E5F0
7EB0
ENDCHAR
STARTCHAR Upsilon1_acutecomb.ccmp
ENCODING -1
SWIDTH 569 0
DWIDTH 9 0
BBX 13 13 -2 0
BITMAP
28000000
35E00B40
60B01D00
00343400
0028B000
002DD000
001E8000
000F0000
000E0000
000D0000
001D0000
001C0000
002C0000
ENDCHAR
STARTCHAR B_dotbelowcomb.ccmp
ENCODING -1
SWIDTH 608 0
DWIDTH 10 0
BBX 9 15 0 -3
BITMAP
0BFE00
0A5780
0D01C0
0D02C0
1C0780
1FFE00
2D5B00
280340
340340
340740
755E00
7FF400
000000
070000
020000
ENDCHAR
STARTCHAR b_dotbelowcomb.ccmp
ENCODING -1
SWIDTH 549 0
DWIDTH 9 0
BBX 8 15 0 -3
BITMAP
0A00
0D00
0D00
1DF8
1E5E
280B
2807
340B
340A
740D
7978
A7E0
0000
0700
0600
ENDCHAR
STARTCHAR D_dotbelowcomb.ccmp
ENCODING -1
SWIDTH 641 0
DWIDTH 10 0
BBX 10 15 0 -3
BITMAP
0BF900
0A5B80
0D01C0
0D00D0
1C00E0
1C00D0
2C00D0
2801C0
380280
340740
756D00
7FE400
000000
070000
020000
ENDCHAR
STARTCHAR d_dotbelowcomb.ccmp
ENCODING -1
SWIDTH 551 0
DWIDTH 9 0
BBX 9 15 0 -3
BITMAP
0002C0
000280
000340
06E740
1E5F00
280B00
340A00
700E00
700D00
741D00
397C00
1BAC00
000000
074000
020000
ENDCHAR
STARTCHAR D_uniF6C3.ccmp
ENCODING -1
SWIDTH 641 0
DWIDTH 10 0
BBX 10 16 0 -4
BITMAP
0BF900
0A5B80
0D01C0
0D00D0
1C00E0
1C00D0
2C00D0
2801C0
380280
340740
756D00
7FE400
000000
034000
070000
090000
ENDCHAR
STARTCHAR d_uniF6C3.ccmp
ENCODING -1
SWIDTH 551 0
DWIDTH 9 0
BBX 9 16 0 -4
BITMAP
0002C0
000280
000340
06E740
1E5F00
280B00
340A00
700E00
700D00
741D00
397C00
1BAC00
000000
034000
070000
090000
ENDCHAR
STARTCHAR H_dotbelowcomb.ccmp
ENCODING -1
SWIDTH 696 0
DWIDTH 11 0
BBX 11 15 0 -3
BITMAP
0B002C
0A0028
0E0038
0D0034
1D0074
1C0070
2FFFF0
2955A0
3800E0
3400D0
7401D0
7001C0
000000
01C000
018000
ENDCHAR
STARTCHAR h_dotbelowcomb.ccmp
ENCODING -1
SWIDTH 539 0
DWIDTH 9 0
BBX 8 15 0 -3
BITMAP
0A00
0D00
0D00
1DF8
1E5D
280A
280E
340D
340D
701C
701C
A028
0000
0700
0600
ENDCHAR
STARTCHAR K_acutecomb.ccmp
ENCODING -1
SWIDTH 612 0
DWIDTH 10 0
BBX 11 15 0 0
BITMAP
000B40
002800
000000
0A00B4
0A02D0
0E0B40
0D2D00
1DB400
1EE000
2EB000
283400
342C00
340E00
740B00
700380
ENDCHAR
STARTCHAR k_acutecomb.ccmp
ENCODING -1
SWIDTH 496 0
DWIDTH 8 0
BBX 8 15 0 0
BITMAP
001E
0024
0000
0A00
0D00
0D00
1C1E
1C38
28E0
2B80
3E80
35D0
70A0
7074
A028
ENDCHAR
STARTCHAR K_dotbelowcomb.ccmp
ENCODING -1
SWIDTH 612 0
DWIDTH 10 0
BBX 11 14 0 -2
BITMAP
0A00B4
0A02D0
0E0B40
0D2D00
1DB400
1EE000
2EB000
283400
342C00
340E00
740B00
700380
028000
014000
ENDCHAR
STARTCHAR k_dotbelowcomb.ccmp
ENCODING -1
SWIDTH 496 0
DWIDTH 8 0
BBX 8 14 0 -2
BITMAP
0A00
0D00
0D00
1C1E
1C38
28E0
2B80
3E80
35D0
70A0
7074
A028
0A00
0500
ENDCHAR
STARTCHAR L_dotbelowcomb.ccmp
ENCODING -1
SWIDTH 526 0
DWIDTH 8 0
BBX 8 15 0 -3
BITMAP
0B00
0A00
0E00
0D00
1D00
1C00
2C00
2800
3800
3400
7554
7FFD
0000
0340
0200
ENDCHAR
STARTCHAR l_dotbelowcomb.ccmp
ENCODING -1
SWIDTH 240 0
DWIDTH 4 0
BBX 4 15 0 -3
BITMAP
0A
0A
0D
0D
1C
2C
28
38
34
74
70
B0
00
D0
90
ENDCHAR
STARTCHAR M_dotbelowcomb.ccmp
ENCODING -1
SWIDTH 851 0
DWIDTH 14 0
BBX 14 15 0 -3
BITMAP
0B4002D0
0B8007D0
0F800BC0
0EC01EC0
1DD03A80
1CD07380
28A0E340
28A2C740
38734700
343B0B00
743D0A00
70280E00
00000000
00340000
00200000
ENDCHAR
STARTCHAR m_dotbelowcomb.ccmp
ENCODING -1
SWIDTH 854 0
DWIDTH 14 0
BBX 13 12 0 -3
BITMAP
1DF87E00
2E5F9740
280B0280
380E0280
340D0340
740D0340
701C0700
B01C0700
A0280A00
00000000
00340000
00200000
ENDCHAR
STARTCHAR N_dotbelowcomb.ccmp
ENCODING -1
SWIDTH 696 0
DWIDTH 11 0
BBX 11 15 0 -3
BITMAP
0B002C
0B8028
0FC038
0ED034
1DA074
1C7470
2C38B0
281CA0
380EE0
340BD0
7403D0
7002C0
000000
01C000
018000
ENDCHAR
STARTCHAR n_dotbelowcomb.ccmp
ENCODING -1
SWIDTH 540 0
DWIDTH 9 0
BBX 8 12 0 -3
BITMAP
1DF8
2E5D
280A
380E
340D
740D
701C
B01C
A028
0000
0A00
0500
ENDCHAR
STARTCHAR O_tildecomb_acutecomb.ccmp
ENCODING -1
SWIDTH 671 0
DWIDTH 11 0
BBX 9 18 1 0
BITMAP
000A00
001800
000000
00A200
015D00
000000
02F900
0F5B40
280280
7401C0
B001C0
E001C0
D002C0
D00380
E00740
B00A00
796C00
1BE000
ENDCHAR
STARTCHAR P_acutecomb.ccmp
ENCODING -1
SWIDTH 616 0
DWIDTH 10 0
BBX 10 15 0 0
BITMAP
000B40
001800
000000
0BFE40
0A56D0
0D00A0
0D00A0
1C00E0
1C06C0
2FFE40
295000
340000
340000
740000
700000
ENDCHAR
STARTCHAR p_acutecomb.ccmp
ENCODING -1
SWIDTH 549 0
DWIDTH 9 0
BBX 9 15 -1 -3
BITMAP
000280
000A00
000000
077E00
0B9780
0A02C0
0E01C0
0D02C0
1D0280
1C0740
2E5E00
29F800
380000
340000
740000
ENDCHAR
STARTCHAR R_dotbelowcomb.ccmp
ENCODING -1
SWIDTH 602 0
DWIDTH 10 0
BBX 10 15 0 -3
BITMAP
0BFE00
0A57C0
0D01D0
0D00D0
1D01C0
1C0780
2FFD00
296C00
381D00
340E00
740B00
700740
000000
070000
020000
ENDCHAR
STARTCHAR r_dotbelowcomb.ccmp
ENCODING -1
SWIDTH 333 0
DWIDTH 5 0
BBX 6 12 0 -3
BITMAP
1DE0
2E50
2C00
3800
3400
7400
7000
B000
A000
0000
D000
9000
ENDCHAR
STARTCHAR S_dotbelowcomb.ccmp
ENCODING -1
SWIDTH 580 0
DWIDTH 9 0
BBX 9 15 0 -3
BITMAP
01FE00
0B5780
1D01C0
1C0040
0E0000
07E000
00BD00
000B00
500740
B00700
396E00
0BE400
000000
034000
020000
ENDCHAR
STARTCHAR s_dotbelowcomb.ccmp
ENCODING -1
SWIDTH 504 0
DWIDTH 8 0
BBX 8 12 0 -3
BITMAP
07E4
1D6C
2809
2D00
0BE0
0078
602C
7978
1BE0
0000
0600
0500
ENDCHAR
STARTCHAR T_dotbelowcomb.ccmp
ENCODING -1
SWIDTH 583 0
DWIDTH 9 0
BBX 9 15 1 -3
BITMAP
BFFFC0
15D540
01C000
02C000
028000
038000
034000
074000
070000
0B0000
0A0000
0A0000
000000
1C0000
080000
ENDCHAR
STARTCHAR t_dotbelowcomb.ccmp
ENCODING -1
SWIDTH 321 0
DWIDTH 5 0
BBX 5 14 0 -3
BITMAP
0B00
0A00
7FC0
1D00
1D00
1C00
2C00
2800
2800
2900
1E00
0000
1C00
1800
ENDCHAR
STARTCHAR U_tildecomb_acutecomb.ccmp
ENCODING -1
SWIDTH 633 0
DWIDTH 10 0
BBX 10 18 1 0
BITMAP
000D00
002400
000000
01D600
025D00
000000
3801D0
3401C0
3402C0
700280
700380
A00340
A00740
D00700
D00A00
E00D00
B97800
1FE000
ENDCHAR
STARTCHAR V_tildecomb.ccmp
ENCODING -1
SWIDTH 622 0
DWIDTH 10 0
BBX 10 15 1 0
BITMAP
02D700
062D00
000000
B000E0
7002C0
740380
340B00
380E00
281C00
1C3800
1C7000
0DE000
0EC000
0B8000
0B0000
ENDCHAR
STARTCHAR v_tildecomb.ccmp
ENCODING -1
SWIDTH 474 0
DWIDTH 8 0
BBX 7 12 1 0
BITMAP
1E64
35E0
0000
D038
D070
A0A0
61D0
7280
3740
3A00
2D00
2800
ENDCHAR
STARTCHAR V_dotbelowcomb.ccmp
ENCODING -1
SWIDTH 622 0
DWIDTH 10 0
BBX 10 15 1 -3
BITMAP
B000E0
7002C0
740380
340B00
380E00
281C00
1C3800
1C7000
0DE000
0EC000
0B8000
0B0000
000000
0A0000
050000
ENDCHAR
STARTCHAR v_dotbelowcomb.ccmp
ENCODING -1
SWIDTH 474 0
DWIDTH 8 0
BBX 7 12 1 -3
BITMAP
D038
D070
A0A0
61D0
7280
3740
3A00
2D00
2800
0000
3400
2400
ENDCHAR
STARTCHAR W_dotbelowcomb.ccmp
ENCODING -1
SWIDTH 865 0
DWIDTH 14 0
BBX 14 15 1 -3
BITMAP
700A01D0
701E02C0
702F0380
743B0740
34730B00
34D34D00
35C35C00
36826800
3B42B400
2E02F000
2D01E000
2C01D000
00000000
00A00000
00500000
ENDCHAR
STARTCHAR w_dotbelowcomb.ccmp
ENCODING -1
SWIDTH 733 0
DWIDTH 12 0
BBX 11 12 1 -3
BITMAP
D07028
D0B434
A1F470
A2A4D0
A329C0
6A1A80
7D1F40
781E00
340D00
000000
034000
020000
ENDCHAR
STARTCHAR Z_dotbelowcomb.ccmp
ENCODING -1
SWIDTH 585 0
DWIDTH 9 0
BBX 10 15 0 -3
BITMAP
1FFFE0
0556D0
000740
001E00
003800
00B000
02D000
074000
1E0000
380000
B55500
FFFF00
000000
070000
020000
ENDCHAR
STARTCHAR z_dotbelowcomb.ccmp
ENCODING -1
SWIDTH 485 0
DWIDTH 8 0
BBX 8 12 0 -3
BITMAP
2FFE
056C
0074
01D0
0780
0E00
2C00
B550
FFF4
0000
0900
0900
ENDCHAR
STARTCHAR Alphatonos.c2sc
ENCODING -1
SWIDTH 552 0
DWIDTH 9 0
BBX 9 11 -1 0
BITMAP
028000
034000
062C00
007C00
00ED00
02CA00
034A00
0B0700
1FFF40
395740
700280
ENDCHAR
STARTCHAR Epsilontonos.c2sc
ENCODING -1
SWIDTH 506 0
DWIDTH 8 0
BBX 10 11 -1 0
BITMAP
340000
700000
52FFD0
039540
034000
070000
0BFF00
0A5400
0E0000
0E5500
1FFF00
ENDCHAR
STARTCHAR Etatonos.c2sc
ENCODING -1
SWIDTH 626 0
DWIDTH 10 0
BBX 11 11 -1 0
BITMAP
280000
300000
628028
034034
034074
070070
0BFFF0
0A55A0
0E00E0
0D00D0
1D01D0
ENDCHAR
STARTCHAR Iotatonos.c2sc
ENCODING -1
SWIDTH 265 0
DWIDTH 4 0
BBX 5 11 -1 0
BITMAP
2800
3000
6280
0380
0340
0740
0700
0A00
0A00
0D00
0D00
ENDCHAR
STARTCHAR Omicrontonos.c2sc
ENCODING -1
SWIDTH 583 0
DWIDTH 9 0
BBX 9 11 0 0
BITMAP
340000
600000
92F900
0E5B00
2C0340
340380
340380
740340
340B00
2D6D00
0BE400
ENDCHAR
STARTCHAR Upsilontonos.c2sc
ENCODING -1
SWIDTH 539 0
DWIDTH 9 0
BBX 10 11 -1 0
BITMAP
A00000
D00000
8700B0
0341D0
028740
01CE00
00FC00
00B400
00A000
00A000
00D000
ENDCHAR
STARTCHAR Omegatonos.c2sc
ENCODING -1
SWIDTH 609 0
DWIDTH 10 0
BBX 9 11 0 0
BITMAP
340000
700000
52F900
0B5B40
1C0280
380280
340280
340340
380700
2D2D00
BE7F00
ENDCHAR
STARTCHAR Alpha.c2sc
ENCODING -1
SWIDTH 552 0
DWIDTH 9 0
BBX 9 9 -1 0
BITMAP
002C00
007C00
00ED00
02CA00
034A00
0B0700
1FFF40
395740
700280
ENDCHAR
STARTCHAR Beta.c2sc
ENCODING -1
SWIDTH 527 0
DWIDTH 8 0
BBX 8 9 0 0
BITMAP
1FF8
1D5E
280A
281D
3FF4
342C
701D
B56C
BFE0
ENDCHAR
STARTCHAR Epsilon.c2sc
ENCODING -1
SWIDTH 477 0
DWIDTH 8 0
BBX 8 9 0 0
BITMAP
1FFE
1D54
2800
2800
3FF8
3550
7000
B550
BFF4
ENDCHAR
STARTCHAR Zeta.c2sc
ENCODING -1
SWIDTH 506 0
DWIDTH 8 0
BBX 9 9 -1 0
BITMAP
0BFFC0
015740
001E00
003800
00E000
028000
0B0000
2D5500
7FFE00
ENDCHAR
STARTCHAR Eta.c2sc
ENCODING -1
SWIDTH 597 0
DWIDTH 10 0
BBX 9 9 0 0
BITMAP
1C01C0
1C01C0
280280
280280
3FFF40
355740
700700
B00B00
A00A00
ENDCHAR
STARTCHAR Iota.c2sc
ENCODING -1
SWIDTH 235 0
DWIDTH 4 0
BBX 4 9 0 0
BITMAP
1D
1C
2C
28
38
34
74
70
B0
ENDCHAR
STARTCHAR Kappa.c2sc
ENCODING -1
SWIDTH 529 0
DWIDTH 8 0
BBX 9 9 0 0
BITMAP
1C0740
1C2D00
28B400
2AD000
3FC000
39D000
70B000
B03800
A01D00
ENDCHAR
STARTCHAR Mu.c2sc
ENCODING -1
SWIDTH 733 0
DWIDTH 12 0
BBX 12 9 0 0
BITMAP
1E002D
1F007C
2B40EC
2A42A8
368768
35CA34
70EC74
B0F470
A0B0B0
ENDCHAR
STARTCHAR Nu.c2sc
ENCODING -1
SWIDTH 597 0
DWIDTH 10 0
BBX 9 9 0 0
BITMAP
1D01C0
1F01C0
2F4280
29C280
34D340
347740
703B00
B01F00
A00E00
ENDCHAR
STARTCHAR Omicron.c2sc
ENCODING -1
SWIDTH 578 0
DWIDTH 9 0
BBX 9 9 0 0
BITMAP
02F900
0E5B00
280340
340340
700340
700740
340B00
2D6D00
0BE400
ENDCHAR
STARTCHAR Rho.c2sc
ENCODING -1
SWIDTH 533 0
DWIDTH 9 0
BBX 9 9 0 0
BITMAP
1FF900
1D5B00
280740
280B00
3FF800
354000
700000
B00000
A00000
ENDCHAR
STARTCHAR Tau.c2sc
ENCODING -1
SWIDTH 507 0
DWIDTH 8 0
BBX 8 9 1 0
BITMAP
FFFD
5754
0700
0B00
0A00
0E00
0D00
1D00
1C00
ENDCHAR
STARTCHAR Upsilon.c2sc
ENCODING -1
SWIDTH 510 0
DWIDTH 8 0
BBX 8 9 1 0
BITMAP
E01D
B038
34B0
29D0
1F80
0E00
0D00
1D00
1C00
ENDCHAR
STARTCHAR Chi.c2sc
ENCODING -1
SWIDTH 529 0
DWIDTH 8 0
BBX 10 9 -1 0
BITMAP
0B01D0
034780
02CE00
00FC00
00B400
02F800
076C00
1D0E00
780B00
ENDCHAR
STARTCHAR Iotadieresis.c2sc
ENCODING -1
SWIDTH 235 0
DWIDTH 4 0
BBX 6 12 0 0
BITMAP
2080
70D0
0000
1D00
1C00
2C00
2800
3800
3400
7400
7000
B000
ENDCHAR
STARTCHAR Upsilondieresis.c2sc
ENCODING -1
SWIDTH 510 0
DWIDTH 8 0
BBX 8 12 1 0
BITMAP
0814
1D34
0000
E01D
B038
34B0
29D0
1F80
0E00
0D00
1D00
1C00
ENDCHAR
STARTCHAR uni0401.c2sc
ENCODING -1
SWIDTH 477 0
DWIDTH 8 0
BBX 8 12 0 0
BITMAP
0205
074D
0000
1FFE
1D54
2800
2800
3FF8
3550
7000
B550
BFF4
ENDCHAR
STARTCHAR uni0403.c2sc
ENCODING -1
SWIDTH 451 0
DWIDTH 7 0
BBX 8 12 0 0
BITMAP
002D
0060
0000
1FFE
1D54
2800
2800
3400
3400
7000
B000
A000
ENDCHAR
STARTCHAR uni0405.c2sc
ENCODING -1
SWIDTH 504 0
DWIDTH 8 0
BBX 8 9 0 0
BITMAP
06F4
1D5D
280A
2D00
07E0
006C
A01C
7578
1FE0
ENDCHAR
STARTCHAR uni0406.c2sc
ENCODING -1
SWIDTH 235 0
DWIDTH 4 0
BBX 4 9 0 0
BITMAP
1D
1C
2C
28
38
34
74
70
B0
ENDCHAR
STARTCHAR uni0407.c2sc
ENCODING -1
SWIDTH 235 0
DWIDTH 4 0
BBX 6 12 0 0
BITMAP
2080
70D0
0000
1D00
1C00
2C00
2800
3800
3400
7400
7000
B000
ENDCHAR
STARTCHAR uni0408.c2sc
ENCODING -1
SWIDTH 466 0
DWIDTH 7 0
BBX 7 9 0 0
BITMAP
001C
001C
0028
0028
0034
0074
9070
A5E0
2F80
ENDCHAR
STARTCHAR uni040C.c2sc
ENCODING -1
SWIDTH 529 0
DWIDTH 8 0
BBX 9 12 0 0
BITMAP
002D00
00A000
000000
1C0740
1C2D00
28B400
2AD000
3FC000
39D000
70B000
B03800
A01D00
ENDCHAR
STARTCHAR uni040E.c2sc
ENCODING -1
SWIDTH 504 0
DWIDTH 8 0
BBX 9 12 0 0
BITMAP
034D00
01F800
000000
280740
2C0E00
1D1C00
0D3800
0AB000
07D000
078000
1B0000
790000
ENDCHAR
STARTCHAR uni0410.c2sc
ENCODING -1
SWIDTH 552 0
DWIDTH 9 0
BBX 9 9 -1 0
BITMAP
002C00
007C00
00ED00
02CA00
034A00
0B0700
1FFF40
395740
700280
ENDCHAR
STARTCHAR uni0412.c2sc
ENCODING -1
SWIDTH 527 0
DWIDTH 8 0
BBX 8 9 0 0
BITMAP
1FF8
1D5E
280A
281D
3FF4
342C
701D
B56C
BFE0
ENDCHAR
STARTCHAR uni0413.c2sc
ENCODING -1
SWIDTH 451 0
DWIDTH 7 0
BBX 8 9 0 0
BITMAP
1FFE
1D54
2800
2800
3400
3400
7000
B000
A000
ENDCHAR
STARTCHAR uni0415.c2sc
ENCODING -1
SWIDTH 477 0
DWIDTH 8 0
BBX 8 9 0 0
BITMAP
1FFE
1D54
2800
2800
3FF8
3550
7000
B550
BFF4
ENDCHAR
STARTCHAR uni0419.c2sc
ENCODING -1
SWIDTH 601 0
DWIDTH 10 0
BBX 10 12 0 0
BITMAP
01C700
00BD00
000000
1C02D0
1C07C0
281E80
283680
34D340
368340
7A0700
780700
B00A00
ENDCHAR
STARTCHAR uni041C.c2sc
ENCODING -1
SWIDTH 733 0
DWIDTH 12 0
BBX 12 9 0 0
BITMAP
1E002D
1F007C
2B40EC
2A42A8
368768
35CA34
70EC74
B0F470
A0B0B0
ENDCHAR
ENDFONT
